<?xml version="1.0" encoding="UTF-8" standalone="no"?>
<!-- Created with Inkscape (http://www.inkscape.org/) -->

<svg
   width="133.629"
   height="40"
   viewBox="0 0 35.356029 10.583334"
   version="1.1"
   id="svg8"
   inkscape:version="1.1 (1:1.1+202105261517+ce6663b3b7)"
   sodipodi:docname="discordname.svg"
   xmlns:inkscape="http://www.inkscape.org/namespaces/inkscape"
   xmlns:sodipodi="http://sodipodi.sourceforge.net/DTD/sodipodi-0.dtd"
   xmlns="http://www.w3.org/2000/svg"
   xmlns:svg="http://www.w3.org/2000/svg"
   xmlns:rdf="http://www.w3.org/1999/02/22-rdf-syntax-ns#"
   xmlns:cc="http://creativecommons.org/ns#"
   xmlns:dc="http://purl.org/dc/elements/1.1/">
  <defs
     id="defs2">
    <rect
       x="45.118309"
       y="189.10129"
       width="233.83926"
       height="29.225491"
       id="rect3603" />
    <rect
       x="45.118309"
       y="189.10129"
       width="571.77429"
       height="241.29497"
       id="rect3603-3" />
  </defs>
  <sodipodi:namedview
     id="base"
     pagecolor="#373746"
     bordercolor="#666666"
     borderopacity="1.0"
     inkscape:pageopacity="0"
     inkscape:pageshadow="2"
     inkscape:zoom="4.1934825"
     inkscape:cx="59.377856"
     inkscape:cy="85.012874"
     inkscape:document-units="mm"
     inkscape:current-layer="layer1"
     showgrid="false"
     inkscape:window-width="1920"
     inkscape:window-height="1080"
     inkscape:window-x="0"
     inkscape:window-y="0"
     inkscape:window-maximized="0"
     inkscape:pagecheckerboard="true"
     height="200.31496px"
     units="px"
     showguides="false" />
  <metadata
     id="metadata5">
    <rdf:RDF>
      <cc:Work
         rdf:about="">
        <dc:format>image/svg+xml</dc:format>
        <dc:type
           rdf:resource="http://purl.org/dc/dcmitype/StillImage" />
      </cc:Work>
    </rdf:RDF>
  </metadata>
  <g
     inkscape:label="Layer 1"
     inkscape:groupmode="layer"
     id="layer1">
    <rect
       style="fill:#7289da;fill-opacity:1;stroke-width:1.11035;stroke-linecap:round;stroke-linejoin:round;stroke-opacity:0.685945"
       id="rect20849"
       width="35.356007"
       height="10.583333"
       x="0.0019788432"
       y="0.010120142"
       ry="2" />
    <g
       aria-label="totoro#7044"
       transform="matrix(0.22936269,0,0,0.22936269,-7.6347283,-40.920217)"
       id="text3601"
       style="font-size:23.5871px;line-height:1.25;font-family:Iosevka;-inkscape-font-specification:Iosevka;letter-spacing:0px;word-spacing:0px;white-space:pre;shape-inside:url(#rect3603)">
      <path
         d="m 52.808535,210.68908 q -1.108594,0 -1.886968,-0.47174 -0.825548,-0.47174 -1.344465,-1.34446 -0.684026,-1.20295 -0.684026,-2.94839 v -6.22699 h -2.570993 v -1.69828 h 2.570993 v -4.83535 h 1.886968 v 4.83535 h 3.797523 v 1.69828 h -3.797523 v 6.22699 q 0,1.29729 0.471742,2.12284 0.283046,0.49533 0.707613,0.7312 0.377394,0.21228 0.849136,0.21228 0.471742,0 0.825548,-0.21228 0.188697,-0.0943 0.377394,-0.28305 0.684026,-0.70761 0.801961,-2.05207 l 1.839794,0.40098 q -0.117935,1.13218 -0.636852,2.02849 -0.518916,0.87272 -1.344464,1.34446 -0.778375,0.47174 -1.863381,0.47174 z"
         style="fill:#ffffff"
         id="path851" />
      <path
         d="m 62.80942,210.68908 q -1.368052,0 -2.35871,-0.56609 -0.967071,-0.56609 -1.556748,-1.60392 -0.754788,-1.29729 -0.754788,-3.20784 v -2.12284 q 0,-1.91056 0.754788,-3.20785 0.589677,-1.03783 1.556748,-1.60392 0.990658,-0.56609 2.35871,-0.56609 1.368052,0 2.335123,0.56609 0.990658,0.56609 1.580336,1.60392 0.754787,1.29729 0.754787,3.20785 v 2.12284 q 0,1.91055 -0.754787,3.20784 -0.448155,0.77837 -1.108594,1.29729 -0.235871,0.16511 -0.471742,0.30663 -0.967071,0.56609 -2.335123,0.56609 z m 0,-1.69827 q 0.7312,0 1.273703,-0.30663 0.589678,-0.35381 0.967072,-1.01425 0.542503,-0.91989 0.542503,-2.3587 v -2.12284 q 0,-1.43882 -0.542503,-2.35871 -0.377394,-0.66044 -0.967072,-1.01425 -0.542503,-0.30663 -1.273703,-0.30663 -0.7312,0 -1.273703,0.30663 -0.589678,0.35381 -0.967071,1.01425 -0.542504,0.91989 -0.542504,2.35871 v 2.12284 q 0,1.43881 0.542504,2.3587 0.377393,0.66044 0.967071,1.01425 0.542503,0.30663 1.273703,0.30663 z"
         style="fill:#ffffff"
         id="path853" />
      <path
         d="m 76.395544,210.68908 q -1.108593,0 -1.886968,-0.47174 -0.825548,-0.47174 -1.344464,-1.34446 -0.684026,-1.20295 -0.684026,-2.94839 v -6.22699 h -2.570994 v -1.69828 h 2.570994 v -4.83535 h 1.886968 v 4.83535 h 3.797523 v 1.69828 h -3.797523 v 6.22699 q 0,1.29729 0.471742,2.12284 0.283045,0.49533 0.707613,0.7312 0.377393,0.21228 0.849135,0.21228 0.471742,0 0.825549,-0.21228 0.188697,-0.0943 0.377393,-0.28305 0.684026,-0.70761 0.801962,-2.05207 l 1.839794,0.40098 q -0.117936,1.13218 -0.636852,2.02849 -0.518916,0.87272 -1.344465,1.34446 -0.778374,0.47174 -1.863381,0.47174 z"
         style="fill:#ffffff"
         id="path855" />
      <path
         d="m 86.396431,210.68908 q -1.368051,0 -2.358709,-0.56609 -0.967072,-0.56609 -1.556749,-1.60392 -0.754787,-1.29729 -0.754787,-3.20784 v -2.12284 q 0,-1.91056 0.754787,-3.20785 0.589677,-1.03783 1.556749,-1.60392 0.990658,-0.56609 2.358709,-0.56609 1.368052,0 2.335123,0.56609 0.990658,0.56609 1.580336,1.60392 0.754787,1.29729 0.754787,3.20785 v 2.12284 q 0,1.91055 -0.754787,3.20784 -0.448155,0.77837 -1.108594,1.29729 -0.235871,0.16511 -0.471742,0.30663 -0.967071,0.56609 -2.335123,0.56609 z m 0,-1.69827 q 0.731201,0 1.273704,-0.30663 0.589677,-0.35381 0.967071,-1.01425 0.542503,-0.91989 0.542503,-2.3587 v -2.12284 q 0,-1.43882 -0.542503,-2.35871 -0.377394,-0.66044 -0.967071,-1.01425 -0.542503,-0.30663 -1.273704,-0.30663 -0.7312,0 -1.273703,0.30663 -0.589677,0.35381 -0.967071,1.01425 -0.542503,0.91989 -0.542503,2.35871 v 2.12284 q 0,1.43881 0.542503,2.3587 0.377394,0.66044 0.967071,1.01425 0.542503,0.30663 1.273703,0.30663 z"
         style="fill:#ffffff"
         id="path857" />
      <path
         d="m 95.123611,210.50039 v -12.50117 h 1.886968 v 2.33513 q 0.16511,-0.44816 0.400981,-0.84914 0.518916,-0.89631 1.250116,-1.32088 0.613265,-0.3538 1.368054,-0.3538 0.82555,0 1.53316,0.42457 0.70761,0.40098 1.15577,1.13218 0.21228,0.37739 0.30663,0.75478 l -1.76903,0.80196 q -0.0708,-0.25945 -0.21229,-0.5425 -0.25945,-0.44815 -0.66044,-0.68402 -0.3538,-0.1887 -0.754783,-0.1887 -0.56609,0 -1.014245,0.25946 -0.542503,0.30663 -0.919897,0.96707 -0.684026,1.17935 -0.684026,3.13708 v 6.62798 z"
         style="fill:#ffffff"
         id="path859" />
      <path
         d="m 109.98344,210.68908 q -1.36805,0 -2.35871,-0.56609 -0.96707,-0.56609 -1.55675,-1.60392 -0.75479,-1.29729 -0.75479,-3.20784 v -2.12284 q 0,-1.91056 0.75479,-3.20785 0.58968,-1.03783 1.55675,-1.60392 0.99066,-0.56609 2.35871,-0.56609 1.36805,0 2.33512,0.56609 0.99066,0.56609 1.58034,1.60392 0.75478,1.29729 0.75478,3.20785 v 2.12284 q 0,1.91055 -0.75478,3.20784 -0.44816,0.77837 -1.1086,1.29729 -0.23587,0.16511 -0.47174,0.30663 -0.96707,0.56609 -2.33512,0.56609 z m 0,-1.69827 q 0.7312,0 1.2737,-0.30663 0.58968,-0.35381 0.96707,-1.01425 0.5425,-0.91989 0.5425,-2.3587 v -2.12284 q 0,-1.43882 -0.5425,-2.35871 -0.37739,-0.66044 -0.96707,-1.01425 -0.5425,-0.30663 -1.2737,-0.30663 -0.7312,0 -1.27371,0.30663 -0.58967,0.35381 -0.96707,1.01425 -0.5425,0.91989 -0.5425,2.35871 v 2.12284 q 0,1.43881 0.5425,2.3587 0.3774,0.66044 0.96707,1.01425 0.54251,0.30663 1.27371,0.30663 z"
         style="fill:#ffffff"
         id="path861" />
      <path
         d="m 118.52193,212.57605 v -5.56655 h -2.07567 v -1.69827 h 2.07567 v -6.84026 h -2.07567 v -1.69827 h 2.07567 v -5.56656 h 1.88697 v 5.56656 h 2.7361 v -5.56656 h 1.88697 v 5.56656 h 2.07566 v 1.69827 h -2.07566 v 6.84026 h 2.07566 v 1.69827 h -2.07566 v 5.56655 H 123.145 v -5.56655 h -2.7361 v 5.56655 z m 1.88697,-7.26482 h 2.7361 v -6.84026 h -2.7361 z"
         style="fill:#ffffff"
         id="path863" />
      <path
         d="m 130.59848,210.50039 5.44862,-15.63825 h -6.9582 v -1.69827 h 8.9631 v 1.69827 l -5.44862,15.63825 z"
         style="fill:#ffffff"
         id="path865" />
      <path
         d="m 145.36395,210.68908 q -1.36805,0 -2.35871,-0.56609 -0.96707,-0.56609 -1.55675,-1.60392 -0.75478,-1.29729 -0.75478,-3.20784 v -6.9582 q 0,-1.91055 0.75478,-3.20784 0.58968,-1.03784 1.55675,-1.60393 0.99066,-0.56609 2.35871,-0.56609 1.36805,0 2.33513,0.56609 0.99065,0.56609 1.58033,1.60393 0.75479,1.29729 0.75479,3.20784 v 6.9582 q 0,1.91055 -0.75479,3.20784 -0.44815,0.77837 -1.10859,1.29729 -0.23587,0.16511 -0.47174,0.30663 -0.96708,0.56609 -2.33513,0.56609 z m 0,-1.69827 q 0.7312,0 1.27371,-0.30663 0.58967,-0.35381 0.96707,-1.01425 0.5425,-0.91989 0.5425,-2.3587 v -5.56656 l -5.40144,6.95819 q 0.11793,0.54251 0.37739,0.96707 0.37739,0.66044 0.96707,1.01425 0.5425,0.30663 1.2737,0.30663 z m -2.78327,-5.07122 5.40144,-6.9582 q -0.11793,-0.5425 -0.37739,-0.96707 -0.3774,-0.66044 -0.96707,-1.01424 -0.54251,-0.30664 -1.27371,-0.30664 -0.7312,0 -1.2737,0.30664 -0.58968,0.3538 -0.96707,1.01424 -0.5425,0.9199 -0.5425,2.35871 z"
         style="fill:#ffffff"
         id="path867" />
      <path
         d="m 158.19529,210.50039 v -5.23634 h -5.70808 v -1.69827 l 5.28351,-10.40191 h 2.31154 v 10.40191 h 1.55674 v 1.69827 h -1.55674 v 5.23634 z m -3.8447,-6.93461 h 3.8447 v -7.54787 z"
         style="fill:#ffffff"
         id="path869" />
      <path
         d="m 169.98879,210.50039 v -5.23634 h -5.70808 v -1.69827 l 5.28351,-10.40191 h 2.31154 v 10.40191 h 1.55675 v 1.69827 h -1.55675 v 5.23634 z m -3.8447,-6.93461 h 3.8447 v -7.54787 z"
         style="fill:#ffffff"
         id="path871" />
    </g>
    <text
       xml:space="preserve"
       style="font-style:normal;font-variant:normal;font-weight:normal;font-stretch:normal;font-size:10.5833px;line-height:1.25;font-family:Iosevka;-inkscape-font-specification:Iosevka;letter-spacing:0px;word-spacing:0px;fill:#000000;fill-opacity:1;stroke:none;stroke-width:0.264583"
       x="213.61301"
       y="417.90695"
       id="text12650"><tspan
         sodipodi:role="line"
         id="tspan12648"
         style="stroke-width:0.264583"
         x="213.61301"
         y="417.90695"> </tspan></text>
    <text
       xml:space="preserve"
       style="font-style:normal;font-variant:normal;font-weight:normal;font-stretch:normal;font-size:10.5833px;line-height:1.25;font-family:Iosevka;-inkscape-font-specification:Iosevka;letter-spacing:0px;word-spacing:0px;fill:#000000;fill-opacity:1;stroke:none;stroke-width:0.264583"
       x="99.899643"
       y="70.990974"
       id="text19668"><tspan
         sodipodi:role="line"
         id="tspan19666"
         style="stroke-width:0.264583"
         x="99.899643"
         y="70.990974" /></text>
    <g
       id="g14"
       transform="matrix(0.26458333,0,0,0.26458333,-7.1665632,-4.4061614)" />
    <g
       id="g16"
       transform="matrix(0.26458333,0,0,0.26458333,-7.1665632,-4.4061614)" />
    <g
       id="g18"
       transform="matrix(0.26458333,0,0,0.26458333,-7.1665632,-4.4061614)" />
    <g
       id="g20"
       transform="matrix(0.26458333,0,0,0.26458333,-7.1665632,-4.4061614)" />
    <g
       id="g22"
       transform="matrix(0.26458333,0,0,0.26458333,-7.1665632,-4.4061614)" />
    <g
       id="g24"
       transform="matrix(0.26458333,0,0,0.26458333,-7.1665632,-4.4061614)" />
    <g
       id="g26"
       transform="matrix(0.26458333,0,0,0.26458333,-7.1665632,-4.4061614)" />
    <g
       id="g28"
       transform="matrix(0.26458333,0,0,0.26458333,-7.1665632,-4.4061614)" />
    <g
       id="g30"
       transform="matrix(0.26458333,0,0,0.26458333,-7.1665632,-4.4061614)" />
    <g
       id="g32"
       transform="matrix(0.26458333,0,0,0.26458333,-7.1665632,-4.4061614)" />
    <g
       id="g34"
       transform="matrix(0.26458333,0,0,0.26458333,-7.1665632,-4.4061614)" />
    <g
       id="g36"
       transform="matrix(0.26458333,0,0,0.26458333,-7.1665632,-4.4061614)" />
    <g
       id="g38"
       transform="matrix(0.26458333,0,0,0.26458333,-7.1665632,-4.4061614)" />
    <g
       id="g40"
       transform="matrix(0.26458333,0,0,0.26458333,-7.1665632,-4.4061614)" />
    <g
       id="g42"
       transform="matrix(0.26458333,0,0,0.26458333,-7.1665632,-4.4061614)" />
    <text
       xml:space="preserve"
       style="font-style:normal;font-variant:normal;font-weight:normal;font-stretch:normal;font-size:10.5833px;line-height:1.25;font-family:Iosevka;-inkscape-font-specification:Iosevka;letter-spacing:0px;word-spacing:0px;fill:#000000;fill-opacity:1;stroke:none;stroke-width:0.264583"
       x="45.853828"
       y="8.6285772"
       id="text7209"><tspan
         sodipodi:role="line"
         id="tspan7207"
         style="stroke-width:0.264583"
         x="45.853828"
         y="8.6285772"> </tspan></text>
    <text
       xml:space="preserve"
       style="font-style:normal;font-variant:normal;font-weight:normal;font-stretch:normal;font-size:10.5833px;line-height:1.25;font-family:Iosevka;-inkscape-font-specification:Iosevka;letter-spacing:0px;word-spacing:0px;fill:#000000;fill-opacity:1;stroke:none;stroke-width:0.264583"
       x="8.5282879"
       y="15.031151"
       id="text2068"><tspan
         sodipodi:role="line"
         id="tspan2066"
         style="stroke-width:0.264583"
         x="8.5282879"
         y="15.031151"> </tspan></text>
  </g>
</svg>
