<?xml version="1.0" encoding="UTF-8" standalone="no"?>
<!-- Created with Inkscape (http://www.inkscape.org/) -->

<svg
   width="133.629"
   height="40"
   viewBox="0 0 35.356029 10.583334"
   version="1.1"
   id="svg8"
   inkscape:version="1.1 (1:1.1+202105261517+ce6663b3b7)"
   sodipodi:docname="discord.svg"
   xmlns:inkscape="http://www.inkscape.org/namespaces/inkscape"
   xmlns:sodipodi="http://sodipodi.sourceforge.net/DTD/sodipodi-0.dtd"
   xmlns="http://www.w3.org/2000/svg"
   xmlns:svg="http://www.w3.org/2000/svg"
   xmlns:rdf="http://www.w3.org/1999/02/22-rdf-syntax-ns#"
   xmlns:cc="http://creativecommons.org/ns#"
   xmlns:dc="http://purl.org/dc/elements/1.1/">
  <defs
     id="defs2">
    <rect
       x="45.118309"
       y="189.10129"
       width="233.83926"
       height="29.225491"
       id="rect3603" />
    <rect
       x="45.118309"
       y="189.10129"
       width="571.77429"
       height="241.29497"
       id="rect3603-3" />
  </defs>
  <sodipodi:namedview
     id="base"
     pagecolor="#373746"
     bordercolor="#666666"
     borderopacity="1.0"
     inkscape:pageopacity="0"
     inkscape:pageshadow="2"
     inkscape:zoom="4.1934825"
     inkscape:cx="59.377856"
     inkscape:cy="85.012874"
     inkscape:document-units="mm"
     inkscape:current-layer="layer1"
     showgrid="false"
     inkscape:window-width="1920"
     inkscape:window-height="1080"
     inkscape:window-x="0"
     inkscape:window-y="0"
     inkscape:window-maximized="0"
     inkscape:pagecheckerboard="true"
     height="200.31496px"
     units="px"
     showguides="false" />
  <metadata
     id="metadata5">
    <rdf:RDF>
      <cc:Work
         rdf:about="">
        <dc:format>image/svg+xml</dc:format>
        <dc:type
           rdf:resource="http://purl.org/dc/dcmitype/StillImage" />
      </cc:Work>
    </rdf:RDF>
  </metadata>
  <g
     inkscape:label="Layer 1"
     inkscape:groupmode="layer"
     id="layer1">
    <rect
       style="fill:#7289da;fill-opacity:1;stroke-width:1.11035;stroke-linecap:round;stroke-linejoin:round;stroke-opacity:0.685945"
       id="rect20849"
       width="35.356007"
       height="10.583333"
       x="0.0019788432"
       y="0.010120142"
       ry="2" />
    <g
       aria-label="DISCORD"
       transform="matrix(0.22936269,0,0,0.22936269,2.3971042,-40.821721)"
       id="text3601"
       style="font-size:23.5871px;line-height:1.25;font-family:Iosevka;-inkscape-font-specification:Iosevka;letter-spacing:0px;word-spacing:0px;white-space:pre;shape-inside:url(#rect3603)">
      <path
         d="m 46.534367,210.50039 v -17.33652 h 3.891871 q 1.509574,0 2.618168,0.63685 1.085006,0.63685 1.769032,1.81621 0.872723,1.53316 0.872723,3.75035 v 4.9297 q 0,2.21719 -0.872723,3.75035 -0.684026,1.17935 -1.769032,1.81621 -1.108594,0.63685 -2.618168,0.63685 z m 1.886967,-1.69827 h 2.004904 q 0.872723,0 1.556748,-0.40098 0.684026,-0.40099 1.155768,-1.17936 0.660439,-1.15577 0.660439,-2.9248 v -4.9297 q 0,-1.76904 -0.660439,-2.9248 -0.471742,-0.77838 -1.155768,-1.17936 -0.684025,-0.40098 -1.556748,-0.40098 h -2.004904 z"
         style="fill:#ffffff"
         id="path850" />
      <path
         d="m 59.507226,210.50039 v -1.69827 h 2.35871 v -13.93998 h -2.35871 v -1.69827 h 6.604388 v 1.69827 h -2.35871 v 13.93998 h 2.35871 v 1.69827 z"
         style="fill:#ffffff"
         id="path852" />
      <path
         d="m 74.532164,210.68908 q -1.556749,0 -2.665343,-0.63685 -0.872722,-0.49533 -1.368051,-1.34446 -0.495329,-0.87273 -0.495329,-1.86338 l 1.86338,-0.25946 q 0,0.11793 0,0.16511 0,0.56609 0.283046,1.06142 0.283045,0.49533 0.825548,0.80196 0.636852,0.37739 1.556749,0.37739 0.849135,0 1.438813,-0.3538 0.542503,-0.30664 0.872722,-0.84914 0.353807,-0.66044 0.353807,-1.41523 0,-0.77837 -0.424568,-1.53316 -0.589678,-1.01424 -2.52382,-2.09925 -2.618168,-1.50957 -3.443716,-2.94839 -0.684026,-1.17935 -0.684026,-2.47664 0,-1.25012 0.589677,-2.28795 0.542504,-0.9199 1.462401,-1.43881 1.037832,-0.61327 2.500232,-0.61327 1.556749,0 2.665342,0.63685 0.872723,0.49533 1.368052,1.36806 0.495329,0.84913 0.495329,1.83979 l -1.863381,0.25946 q 0,-0.11794 0,-0.16511 0,-0.56609 -0.283045,-1.06142 -0.283045,-0.49533 -0.825548,-0.80196 -0.636852,-0.3774 -1.556749,-0.3774 -0.849135,0 -1.438813,0.35381 -0.542503,0.30663 -0.872723,0.84914 -0.353806,0.66043 -0.353806,1.43881 0,0.75479 0.424568,1.50957 0.589677,1.01425 2.523819,2.09925 2.618168,1.50958 3.443717,2.94839 0.684026,1.17936 0.684026,2.47665 0,1.25011 -0.589678,2.28795 -0.542503,0.91989 -1.4624,1.43881 -1.037832,0.61326 -2.500232,0.61326 z"
         style="fill:#ffffff"
         id="path854" />
      <path
         d="m 86.396431,210.68908 q -1.485987,0 -2.523819,-0.61326 -0.943484,-0.5425 -1.509574,-1.48599 -0.636852,-1.13218 -0.636852,-2.68893 v -8.13755 q 0,-1.55675 0.636852,-2.68893 0.56609,-0.94348 1.509574,-1.48598 1.037832,-0.61327 2.523819,-0.61327 1.462401,0 2.52382,0.61327 0.943484,0.5425 1.485987,1.50957 0.471742,0.77838 0.589678,1.72186 l -1.839794,0.33022 q -0.09435,-0.66044 -0.400981,-1.17936 -0.353806,-0.61326 -0.919897,-0.94348 -0.613264,-0.35381 -1.438813,-0.35381 -0.825548,0 -1.438813,0.35381 -0.56609,0.33022 -0.919896,0.9199 -0.424568,0.75478 -0.424568,1.8162 v 8.13755 q 0,1.06142 0.424568,1.81621 0.353806,0.58968 0.919896,0.9199 0.613265,0.3538 1.438813,0.3538 0.825549,0 1.438813,-0.3538 0.566091,-0.33022 0.919897,-0.94349 0.306633,-0.51891 0.400981,-1.17935 l 1.839794,0.33022 q -0.117936,0.94348 -0.589678,1.72185 -0.542503,0.96708 -1.485987,1.50958 -1.061419,0.61326 -2.52382,0.61326 z"
         style="fill:#ffffff"
         id="path856" />
      <path
         d="m 98.189934,210.68908 q -1.4624,0 -2.523819,-0.61326 -0.943484,-0.5425 -1.509575,-1.50958 -0.636851,-1.10859 -0.636851,-2.66534 v -8.13755 q 0,-1.55675 0.636851,-2.66534 0.566091,-0.96707 1.509575,-1.50957 1.061419,-0.61327 2.523819,-0.61327 1.4624,0 2.523816,0.61327 0.94349,0.5425 1.50958,1.50957 0.63685,1.10859 0.63685,2.66534 v 8.13755 q 0,1.55675 -0.63685,2.66534 -0.56609,0.96708 -1.50958,1.50958 -1.061416,0.61326 -2.523816,0.61326 z m 0,-1.69827 q 0.825549,0 1.438813,-0.3538 0.566093,-0.33022 0.919893,-0.9199 0.42457,-0.75479 0.42457,-1.81621 v -8.13755 q 0,-1.06142 -0.42457,-1.8162 -0.3538,-0.58968 -0.919893,-0.9199 -0.613264,-0.35381 -1.438813,-0.35381 -0.825548,0 -1.438813,0.35381 -0.56609,0.33022 -0.919897,0.9199 -0.424567,0.75478 -0.424567,1.8162 v 8.13755 q 0,1.06142 0.424567,1.81621 0.353807,0.58968 0.919897,0.9199 0.613265,0.3538 1.438813,0.3538 z"
         style="fill:#ffffff"
         id="path858" />
      <path
         d="m 105.50189,210.50039 v -17.33652 h 4.50513 q 1.41523,0 2.47665,0.58968 0.9199,0.56609 1.50957,1.53316 0.66044,1.17935 0.66044,2.83045 0,1.6511 -0.66044,2.80686 -0.58967,0.99066 -1.50957,1.53317 -0.42457,0.25945 -0.9199,0.40098 0.63685,0.91989 1.17936,1.83979 1.91055,3.34937 1.91055,5.80243 h -1.88697 q 0,-2.09925 -1.62751,-4.95329 -0.7312,-1.22653 -1.65109,-2.47665 h -2.09925 v 7.42994 z m 4.50513,-9.12821 q 0.80197,0 1.36806,-0.33022 0.56609,-0.33022 0.94348,-0.96707 0.44815,-0.80196 0.44815,-1.95773 0,-1.15577 -0.44815,-1.95773 -0.37739,-0.63685 -0.94348,-0.96707 -0.56609,-0.33022 -1.36806,-0.33022 h -2.61816 v 6.51004 z"
         style="fill:#ffffff"
         id="path860" />
      <path
         d="m 117.2954,210.50039 v -17.33652 h 3.89187 q 1.50957,0 2.61817,0.63685 1.085,0.63685 1.76903,1.81621 0.87272,1.53316 0.87272,3.75035 v 4.9297 q 0,2.21719 -0.87272,3.75035 -0.68403,1.17935 -1.76903,1.81621 -1.1086,0.63685 -2.61817,0.63685 z m 1.88697,-1.69827 h 2.0049 q 0.87272,0 1.55675,-0.40098 0.68402,-0.40099 1.15577,-1.17936 0.66044,-1.15577 0.66044,-2.9248 v -4.9297 q 0,-1.76904 -0.66044,-2.9248 -0.47175,-0.77838 -1.15577,-1.17936 -0.68403,-0.40098 -1.55675,-0.40098 h -2.0049 z"
         style="fill:#ffffff"
         id="path862" />
    </g>
    <text
       xml:space="preserve"
       style="font-style:normal;font-variant:normal;font-weight:normal;font-stretch:normal;font-size:10.5833px;line-height:1.25;font-family:Iosevka;-inkscape-font-specification:Iosevka;letter-spacing:0px;word-spacing:0px;fill:#000000;fill-opacity:1;stroke:none;stroke-width:0.264583"
       x="213.61301"
       y="417.90695"
       id="text12650"><tspan
         sodipodi:role="line"
         id="tspan12648"
         style="stroke-width:0.264583"
         x="213.61301"
         y="417.90695"> </tspan></text>
    <text
       xml:space="preserve"
       style="font-style:normal;font-variant:normal;font-weight:normal;font-stretch:normal;font-size:10.5833px;line-height:1.25;font-family:Iosevka;-inkscape-font-specification:Iosevka;letter-spacing:0px;word-spacing:0px;fill:#000000;fill-opacity:1;stroke:none;stroke-width:0.264583"
       x="99.899643"
       y="70.990974"
       id="text19668"><tspan
         sodipodi:role="line"
         id="tspan19666"
         style="stroke-width:0.264583"
         x="99.899643"
         y="70.990974" /></text>
    <g
       id="g14"
       transform="matrix(0.26458333,0,0,0.26458333,-7.1665632,-4.4061614)" />
    <g
       id="g16"
       transform="matrix(0.26458333,0,0,0.26458333,-7.1665632,-4.4061614)" />
    <g
       id="g18"
       transform="matrix(0.26458333,0,0,0.26458333,-7.1665632,-4.4061614)" />
    <g
       id="g20"
       transform="matrix(0.26458333,0,0,0.26458333,-7.1665632,-4.4061614)" />
    <g
       id="g22"
       transform="matrix(0.26458333,0,0,0.26458333,-7.1665632,-4.4061614)" />
    <g
       id="g24"
       transform="matrix(0.26458333,0,0,0.26458333,-7.1665632,-4.4061614)" />
    <g
       id="g26"
       transform="matrix(0.26458333,0,0,0.26458333,-7.1665632,-4.4061614)" />
    <g
       id="g28"
       transform="matrix(0.26458333,0,0,0.26458333,-7.1665632,-4.4061614)" />
    <g
       id="g30"
       transform="matrix(0.26458333,0,0,0.26458333,-7.1665632,-4.4061614)" />
    <g
       id="g32"
       transform="matrix(0.26458333,0,0,0.26458333,-7.1665632,-4.4061614)" />
    <g
       id="g34"
       transform="matrix(0.26458333,0,0,0.26458333,-7.1665632,-4.4061614)" />
    <g
       id="g36"
       transform="matrix(0.26458333,0,0,0.26458333,-7.1665632,-4.4061614)" />
    <g
       id="g38"
       transform="matrix(0.26458333,0,0,0.26458333,-7.1665632,-4.4061614)" />
    <g
       id="g40"
       transform="matrix(0.26458333,0,0,0.26458333,-7.1665632,-4.4061614)" />
    <g
       id="g42"
       transform="matrix(0.26458333,0,0,0.26458333,-7.1665632,-4.4061614)" />
    <text
       xml:space="preserve"
       style="font-style:normal;font-variant:normal;font-weight:normal;font-stretch:normal;font-size:10.5833px;line-height:1.25;font-family:Iosevka;-inkscape-font-specification:Iosevka;letter-spacing:0px;word-spacing:0px;fill:#000000;fill-opacity:1;stroke:none;stroke-width:0.264583"
       x="45.853828"
       y="8.6285772"
       id="text7209"><tspan
         sodipodi:role="line"
         id="tspan7207"
         style="stroke-width:0.264583"
         x="45.853828"
         y="8.6285772"> </tspan></text>
    <path
       d="m 8.914101,3.4896089 a 5.2363687,5.2363687 0 0 0 -1.29249,-0.400844 0.01957917,0.01957917 0 0 0 -0.0209,0.0098 c -0.05556,0.09922 -0.117475,0.2286 -0.160867,0.330729 a 4.8339374,4.8339374 0 0 0 -1.451769,0 3.3443333,3.3443333 0 0 0 -0.163247,-0.330729 0.02037292,0.02037292 0 0 0 -0.0209,-0.0098 5.2218166,5.2218166 0 0 0 -1.292489,0.400844 0.01852083,0.01852083 0 0 0 -0.0085,0.0071 c -0.823383,1.230048 -1.049073,2.429669 -0.938212,3.614208 a 0.02169583,0.02169583 0 0 0 0.0082,0.01508 5.2652083,5.2652083 0 0 0 1.585648,0.801688 0.0206375,0.0206375 0 0 0 0.02222,-0.0074 3.7279791,3.7279791 0 0 0 0.324379,-0.52758 0.02010833,0.02010833 0 0 0 -0.01085,-0.02804 3.4678937,3.4678937 0 0 1 -0.4953,-0.236009 0.02037292,0.02037292 0 0 1 -0.0021,-0.03387 2.69875,2.69875 0 0 0 0.09843,-0.07726 0.01957917,0.01957917 0 0 1 0.02037,-0.0026 c 1.039284,0.474398 2.164292,0.474398 3.191404,0 a 0.01957917,0.01957917 0 0 1 0.02064,0.0026 c 0.03175,0.02593 0.06509,0.05239 0.09869,0.07726 a 0.02037292,0.02037292 0 0 1 -0.0016,0.0336 3.2541104,3.2541104 0 0 1 -0.495565,0.236008 0.02037292,0.02037292 0 0 0 -0.01085,0.02831 c 0.09525,0.18468 0.204259,0.360363 0.324115,0.527315 a 0.02010833,0.02010833 0 0 0 0.02222,0.0074 5.2490687,5.2490687 0 0 0 1.588029,-0.801687 0.02037292,0.02037292 0 0 0 0.0085,-0.01429 C 9.993599,5.7416939 9.639586,4.5518629 8.922301,3.4972339 a 0.01613958,0.01613958 0 0 0 -0.0082,-0.0079 z m -3.253582,2.899833 c -0.313002,0 -0.570706,-0.287072 -0.570706,-0.640027 0,-0.352689 0.252942,-0.640027 0.570706,-0.640027 0.320146,0 0.575734,0.289984 0.570707,0.640292 0,0.35269 -0.252942,0.639762 -0.570707,0.639762 z m 2.110052,0 c -0.313002,0 -0.570706,-0.287072 -0.570706,-0.640027 0,-0.352689 0.252677,-0.640027 0.570706,-0.640027 0.320146,0 0.575734,0.289984 0.570707,0.640292 0,0.35269 -0.250296,0.639762 -0.570707,0.639762 z"
       id="path2"
       style="fill:#ffffff;stroke-width:0.264583" />
  </g>
</svg>
