<?xml version="1.0" encoding="UTF-8" standalone="no"?>
<!-- Created with Inkscape (http://www.inkscape.org/) -->

<svg
   width="133.629"
   height="40"
   viewBox="0 0 35.356029 10.583334"
   version="1.1"
   id="svg8"
   inkscape:version="1.1 (1:1.1+202105261517+ce6663b3b7)"
   sodipodi:docname="discord.svg"
   xmlns:inkscape="http://www.inkscape.org/namespaces/inkscape"
   xmlns:sodipodi="http://sodipodi.sourceforge.net/DTD/sodipodi-0.dtd"
   xmlns="http://www.w3.org/2000/svg"
   xmlns:svg="http://www.w3.org/2000/svg"
   xmlns:rdf="http://www.w3.org/1999/02/22-rdf-syntax-ns#"
   xmlns:cc="http://creativecommons.org/ns#"
   xmlns:dc="http://purl.org/dc/elements/1.1/">
  <defs
     id="defs2">
    <rect
       x="45.118309"
       y="189.10129"
       width="233.83926"
       height="29.225491"
       id="rect3603" />
    <rect
       x="45.118309"
       y="189.10129"
       width="571.77429"
       height="241.29497"
       id="rect3603-3" />
  </defs>
  <sodipodi:namedview
     id="base"
     pagecolor="#373746"
     bordercolor="#666666"
     borderopacity="1.0"
     inkscape:pageopacity="0"
     inkscape:pageshadow="2"
     inkscape:zoom="4.1934825"
     inkscape:cx="59.377857"
     inkscape:cy="84.893642"
     inkscape:document-units="mm"
     inkscape:current-layer="layer1"
     showgrid="false"
     inkscape:window-width="1920"
     inkscape:window-height="1046"
     inkscape:window-x="0"
     inkscape:window-y="34"
     inkscape:window-maximized="0"
     inkscape:pagecheckerboard="true"
     height="200.31496px"
     units="px"
     showguides="false" />
  <metadata
     id="metadata5">
    <rdf:RDF>
      <cc:Work
         rdf:about="">
        <dc:format>image/svg+xml</dc:format>
        <dc:type
           rdf:resource="http://purl.org/dc/dcmitype/StillImage" />
      </cc:Work>
    </rdf:RDF>
  </metadata>
  <g
     inkscape:label="Layer 1"
     inkscape:groupmode="layer"
     id="layer1">
    <rect
       style="fill:#7289da;fill-opacity:1;stroke-width:1.11035;stroke-linecap:round;stroke-linejoin:round;stroke-opacity:0.685945"
       id="rect20849"
       width="35.356007"
       height="10.583333"
       x="0.0019788432"
       y="0.010120142"
       ry="2" />
    <text
       xml:space="preserve"
       transform="matrix(0.22936269,0,0,0.22936269,2.3971042,-40.821721)"
       id="text3601"
       style="font-style:normal;font-variant:normal;font-weight:normal;font-stretch:normal;font-size:23.5871px;line-height:1.25;font-family:Iosevka;-inkscape-font-specification:Iosevka;letter-spacing:0px;word-spacing:0px;white-space:pre;shape-inside:url(#rect3603);fill:#000000;fill-opacity:1;stroke:none"><tspan
         x="45.119141"
         y="210.50039"
         id="tspan3585"><tspan
           style="fill:#ffffff"
           id="tspan3583">DISCORD</tspan></tspan></text>
    <text
       xml:space="preserve"
       style="font-style:normal;font-variant:normal;font-weight:normal;font-stretch:normal;font-size:10.5833px;line-height:1.25;font-family:Iosevka;-inkscape-font-specification:Iosevka;letter-spacing:0px;word-spacing:0px;fill:#000000;fill-opacity:1;stroke:none;stroke-width:0.264583"
       x="213.61301"
       y="417.90695"
       id="text12650"><tspan
         sodipodi:role="line"
         id="tspan12648"
         style="stroke-width:0.264583"
         x="213.61301"
         y="417.90695"> </tspan></text>
    <text
       xml:space="preserve"
       style="font-style:normal;font-variant:normal;font-weight:normal;font-stretch:normal;font-size:10.5833px;line-height:1.25;font-family:Iosevka;-inkscape-font-specification:Iosevka;letter-spacing:0px;word-spacing:0px;fill:#000000;fill-opacity:1;stroke:none;stroke-width:0.264583"
       x="99.899643"
       y="70.990974"
       id="text19668"><tspan
         sodipodi:role="line"
         id="tspan19666"
         style="stroke-width:0.264583"
         x="99.899643"
         y="70.990974" /></text>
    <g
       id="g14"
       transform="matrix(0.26458333,0,0,0.26458333,-7.1665632,-4.4061614)" />
    <g
       id="g16"
       transform="matrix(0.26458333,0,0,0.26458333,-7.1665632,-4.4061614)" />
    <g
       id="g18"
       transform="matrix(0.26458333,0,0,0.26458333,-7.1665632,-4.4061614)" />
    <g
       id="g20"
       transform="matrix(0.26458333,0,0,0.26458333,-7.1665632,-4.4061614)" />
    <g
       id="g22"
       transform="matrix(0.26458333,0,0,0.26458333,-7.1665632,-4.4061614)" />
    <g
       id="g24"
       transform="matrix(0.26458333,0,0,0.26458333,-7.1665632,-4.4061614)" />
    <g
       id="g26"
       transform="matrix(0.26458333,0,0,0.26458333,-7.1665632,-4.4061614)" />
    <g
       id="g28"
       transform="matrix(0.26458333,0,0,0.26458333,-7.1665632,-4.4061614)" />
    <g
       id="g30"
       transform="matrix(0.26458333,0,0,0.26458333,-7.1665632,-4.4061614)" />
    <g
       id="g32"
       transform="matrix(0.26458333,0,0,0.26458333,-7.1665632,-4.4061614)" />
    <g
       id="g34"
       transform="matrix(0.26458333,0,0,0.26458333,-7.1665632,-4.4061614)" />
    <g
       id="g36"
       transform="matrix(0.26458333,0,0,0.26458333,-7.1665632,-4.4061614)" />
    <g
       id="g38"
       transform="matrix(0.26458333,0,0,0.26458333,-7.1665632,-4.4061614)" />
    <g
       id="g40"
       transform="matrix(0.26458333,0,0,0.26458333,-7.1665632,-4.4061614)" />
    <g
       id="g42"
       transform="matrix(0.26458333,0,0,0.26458333,-7.1665632,-4.4061614)" />
    <text
       xml:space="preserve"
       style="font-style:normal;font-variant:normal;font-weight:normal;font-stretch:normal;font-size:10.5833px;line-height:1.25;font-family:Iosevka;-inkscape-font-specification:Iosevka;letter-spacing:0px;word-spacing:0px;fill:#000000;fill-opacity:1;stroke:none;stroke-width:0.264583"
       x="45.853828"
       y="8.6285772"
       id="text7209"><tspan
         sodipodi:role="line"
         id="tspan7207"
         style="stroke-width:0.264583"
         x="45.853828"
         y="8.6285772"> </tspan></text>
    <path
       d="m 8.914101,3.4896089 a 5.2363687,5.2363687 0 0 0 -1.29249,-0.400844 0.01957917,0.01957917 0 0 0 -0.0209,0.0098 c -0.05556,0.09922 -0.117475,0.2286 -0.160867,0.330729 a 4.8339374,4.8339374 0 0 0 -1.451769,0 3.3443333,3.3443333 0 0 0 -0.163247,-0.330729 0.02037292,0.02037292 0 0 0 -0.0209,-0.0098 5.2218166,5.2218166 0 0 0 -1.292489,0.400844 0.01852083,0.01852083 0 0 0 -0.0085,0.0071 c -0.823383,1.230048 -1.049073,2.429669 -0.938212,3.614208 a 0.02169583,0.02169583 0 0 0 0.0082,0.01508 5.2652083,5.2652083 0 0 0 1.585648,0.801688 0.0206375,0.0206375 0 0 0 0.02222,-0.0074 3.7279791,3.7279791 0 0 0 0.324379,-0.52758 0.02010833,0.02010833 0 0 0 -0.01085,-0.02804 3.4678937,3.4678937 0 0 1 -0.4953,-0.236009 0.02037292,0.02037292 0 0 1 -0.0021,-0.03387 2.69875,2.69875 0 0 0 0.09843,-0.07726 0.01957917,0.01957917 0 0 1 0.02037,-0.0026 c 1.039284,0.474398 2.164292,0.474398 3.191404,0 a 0.01957917,0.01957917 0 0 1 0.02064,0.0026 c 0.03175,0.02593 0.06509,0.05239 0.09869,0.07726 a 0.02037292,0.02037292 0 0 1 -0.0016,0.0336 3.2541104,3.2541104 0 0 1 -0.495565,0.236008 0.02037292,0.02037292 0 0 0 -0.01085,0.02831 c 0.09525,0.18468 0.204259,0.360363 0.324115,0.527315 a 0.02010833,0.02010833 0 0 0 0.02222,0.0074 5.2490687,5.2490687 0 0 0 1.588029,-0.801687 0.02037292,0.02037292 0 0 0 0.0085,-0.01429 C 9.993599,5.7416939 9.639586,4.5518629 8.922301,3.4972339 a 0.01613958,0.01613958 0 0 0 -0.0082,-0.0079 z m -3.253582,2.899833 c -0.313002,0 -0.570706,-0.287072 -0.570706,-0.640027 0,-0.352689 0.252942,-0.640027 0.570706,-0.640027 0.320146,0 0.575734,0.289984 0.570707,0.640292 0,0.35269 -0.252942,0.639762 -0.570707,0.639762 z m 2.110052,0 c -0.313002,0 -0.570706,-0.287072 -0.570706,-0.640027 0,-0.352689 0.252677,-0.640027 0.570706,-0.640027 0.320146,0 0.575734,0.289984 0.570707,0.640292 0,0.35269 -0.250296,0.639762 -0.570707,0.639762 z"
       id="path2"
       style="fill:#ffffff;stroke-width:0.264583" />
  </g>
</svg>
