<?xml version="1.0" encoding="UTF-8" standalone="no"?>
<!-- Generator: Adobe Illustrator 19.0.0, SVG Export Plug-In . SVG Version: 6.00 Build 0)  -->

<svg
   version="1.1"
   id="Layer_1"
   x="0px"
   y="0px"
   viewBox="0 0 512 512"
   style="enable-background:new 0 0 512 512;"
   xml:space="preserve"
   sodipodi:docname="ghost-pacman-svgrepo-com.svg"
   inkscape:version="1.1 (1:1.1+202105261517+ce6663b3b7)"
   xmlns:inkscape="http://www.inkscape.org/namespaces/inkscape"
   xmlns:sodipodi="http://sodipodi.sourceforge.net/DTD/sodipodi-0.dtd"
   xmlns="http://www.w3.org/2000/svg"
   xmlns:svg="http://www.w3.org/2000/svg"><defs
   id="defs53" /><sodipodi:namedview
   id="namedview51"
   pagecolor="#505050"
   bordercolor="#ffffff"
   borderopacity="1"
   inkscape:pageshadow="0"
   inkscape:pageopacity="0"
   inkscape:pagecheckerboard="1"
   showgrid="false"
   inkscape:zoom="0.6683953"
   inkscape:cx="114.45323"
   inkscape:cy="101.7362"
   inkscape:window-width="1920"
   inkscape:window-height="1080"
   inkscape:window-x="0"
   inkscape:window-y="0"
   inkscape:window-maximized="1"
   inkscape:current-layer="Layer_1" />
<path
   style="fill:#d4ff2a;stroke:#000000;stroke-width:1px;stroke-linecap:butt;stroke-linejoin:miter;stroke-opacity:1"
   d="m 85.797215,496.42556 -0.926655,-322.21962 21.49481,-82.403169 66.46375,-64.873593 69.1736,-18.6080648 -0.64068,0.6406856 64.71157,5.2356852 52.19934,26.298901 47.778,48.333972 15.45026,31.278653 5.2073,65.24471 3.80386,314.91584 -41.54066,-41.83255 -42.19502,45.63495 -42.64684,-46.97535 -42.14674,45.88941 -42.16868,-41.19976 -39.07425,38.63163 -45.98871,-38.54707 z"
   id="path975" /><g
   id="g6">
	<g
   id="g4">
		<path
   d="M262.468,0H251.85C153.818,0,72.902,79.089,72.902,177.126v324.407c0,4.026,2.884,7.684,6.511,9.431    c3.617,1.747,8.214,1.257,11.354-1.257l45.149-36.007l35.303,35.23c4.087,4.087,10.744,4.087,14.831,0l34.471-34.454    l34.462,34.454c4.087,4.087,10.713,4.087,14.8,0l34.456-34.454l34.454,34.454c4.087,4.087,10.709,4.087,14.796,0l34.454-34.454    l34.453,34.454c2.003,2.003,4.675,3.065,7.398,3.065c1.349,0,2.129-0.255,3.427-0.797c3.908-1.614,5.878-5.436,5.878-9.666    V177.126C439.098,79.089,360.499,0,262.468,0z M418.173,476.275l-23.411-23.991c-4.087-4.087-10.418-4.087-14.505,0    l-34.309,34.454l-34.381-34.454c-2.044-2.043-4.685-3.065-7.362-3.065c-2.677,0-5.336,1.022-7.38,3.065l-34.444,34.454    l-34.449-34.454c-4.087-4.087-10.705-4.087-14.792,0l-34.454,34.454l-34.452-34.454c-3.77-3.77-10.357-4.107-14.51-0.777    l-35.897,28.252V177.126c0-86.502,71.527-156.201,158.023-156.201h10.617c86.495,0,155.705,69.699,155.705,156.201V476.275z"
   id="path2" />
	</g>
</g>
<g
   id="g12">
	<g
   id="g10">
		<path
   d="M194.383,156.262c-14.423,0-26.157,11.73-26.157,26.157c0,14.427,11.733,26.157,26.157,26.157    c14.421,0,26.156-11.73,26.156-26.157C220.539,167.992,208.804,156.262,194.383,156.262z M194.383,187.65    c-2.888,0-5.231-2.35-5.231-5.231c0-2.881,2.344-5.231,5.231-5.231c2.885,0,5.231,2.35,5.231,5.231    C199.615,185.3,197.268,187.65,194.383,187.65z"
   id="path8" />
	</g>
</g>
<g
   id="g18">
	<g
   id="g16">
		<path
   d="M319.935,156.262c-14.422,0-26.157,11.73-26.157,26.157c0,14.427,11.735,26.157,26.157,26.157    c14.422,0,26.157-11.73,26.157-26.157C346.092,167.992,334.357,156.262,319.935,156.262z M319.935,187.65    c-2.886,0-5.231-2.35-5.231-5.231c0-2.881,2.345-5.231,5.231-5.231s5.231,2.35,5.231,5.231    C325.166,185.3,322.821,187.65,319.935,187.65z"
   id="path14" />
	</g>
</g>
<g
   id="g20">
</g>
<g
   id="g22">
</g>
<g
   id="g24">
</g>
<g
   id="g26">
</g>
<g
   id="g28">
</g>
<g
   id="g30">
</g>
<g
   id="g32">
</g>
<g
   id="g34">
</g>
<g
   id="g36">
</g>
<g
   id="g38">
</g>
<g
   id="g40">
</g>
<g
   id="g42">
</g>
<g
   id="g44">
</g>
<g
   id="g46">
</g>
<g
   id="g48">
</g>
</svg>
