<?xml version="1.0" encoding="UTF-8" standalone="no"?>
<!-- Created with Inkscape (http://www.inkscape.org/) -->

<svg
   width="122.85"
   height="40"
   viewBox="0 0 32.504084 10.583334"
   version="1.1"
   id="svg8"
   inkscape:version="1.1 (1:1.1+202105261517+ce6663b3b7)"
   sodipodi:docname="github.svg"
   xmlns:inkscape="http://www.inkscape.org/namespaces/inkscape"
   xmlns:sodipodi="http://sodipodi.sourceforge.net/DTD/sodipodi-0.dtd"
   xmlns="http://www.w3.org/2000/svg"
   xmlns:svg="http://www.w3.org/2000/svg"
   xmlns:rdf="http://www.w3.org/1999/02/22-rdf-syntax-ns#"
   xmlns:cc="http://creativecommons.org/ns#"
   xmlns:dc="http://purl.org/dc/elements/1.1/">
  <defs
     id="defs2">
    <rect
       x="45.118309"
       y="189.10129"
       width="233.83926"
       height="29.225491"
       id="rect3603" />
    <rect
       x="45.118309"
       y="189.10129"
       width="571.77429"
       height="241.29497"
       id="rect3603-3" />
  </defs>
  <sodipodi:namedview
     id="base"
     pagecolor="#373746"
     bordercolor="#666666"
     borderopacity="1.0"
     inkscape:pageopacity="0"
     inkscape:pageshadow="2"
     inkscape:zoom="2.9466026"
     inkscape:cx="112.33276"
     inkscape:cy="38.518937"
     inkscape:document-units="mm"
     inkscape:current-layer="layer1"
     showgrid="false"
     inkscape:window-width="1920"
     inkscape:window-height="1080"
     inkscape:window-x="0"
     inkscape:window-y="0"
     inkscape:window-maximized="0"
     inkscape:pagecheckerboard="true"
     height="200.31496px"
     units="px"
     showguides="false" />
  <metadata
     id="metadata5">
    <rdf:RDF>
      <cc:Work
         rdf:about="">
        <dc:format>image/svg+xml</dc:format>
        <dc:type
           rdf:resource="http://purl.org/dc/dcmitype/StillImage" />
      </cc:Work>
    </rdf:RDF>
  </metadata>
  <g
     inkscape:label="Layer 1"
     inkscape:groupmode="layer"
     id="layer1">
    <rect
       style="fill:#222222;fill-opacity:1;stroke-width:1.06463;stroke-linecap:round;stroke-linejoin:round;stroke-opacity:0.685945"
       id="rect20849"
       width="32.504063"
       height="10.583333"
       x="0.0019788432"
       y="0.010120142"
       ry="2" />
    <g
       aria-label="GITHUB"
       transform="matrix(0.22936269,0,0,0.22936269,2.3971042,-40.821721)"
       id="text3601"
       style="font-size:23.5871px;line-height:1.25;font-family:Iosevka;-inkscape-font-specification:Iosevka;letter-spacing:0px;word-spacing:0px;white-space:pre;shape-inside:url(#rect3603)">
      <path
         d="m 50.992328,210.68908 q -1.438813,0 -2.500232,-0.61326 -0.943484,-0.5425 -1.509575,-1.50958 -0.636851,-1.10859 -0.636851,-2.66534 v -8.13755 q 0,-1.55675 0.636851,-2.68893 0.566091,-0.94348 1.509575,-1.48598 1.037832,-0.61327 2.523819,-0.61327 1.462401,0 2.52382,0.61327 0.943484,0.5425 1.485987,1.50957 0.471742,0.77838 0.589678,1.72186 l -1.839794,0.33022 q -0.09435,-0.66044 -0.400981,-1.17936 -0.353806,-0.61326 -0.919897,-0.94348 -0.613264,-0.35381 -1.438813,-0.35381 -0.825548,0 -1.438813,0.35381 -0.56609,0.33022 -0.919897,0.9199 -0.424567,0.75478 -0.424567,1.8162 v 8.13755 q 0,1.06142 0.424567,1.81621 0.353807,0.58968 0.919897,0.9199 0.613265,0.3538 1.415226,0.3538 0.754787,0 1.297291,-0.30663 0.542503,-0.33022 0.872722,-0.89631 0.448155,-0.75479 0.448155,-1.88697 v -3.13708 h -2.594581 v -1.69827 h 4.481549 v 4.83535 q 0,1.62751 -0.660439,2.73611 -0.542503,0.94348 -1.4624,1.48598 -0.990658,0.56609 -2.382297,0.56609 z"
         style="fill:#ffffff"
         id="path852" />
      <path
         d="m 59.507226,210.50039 v -1.69827 h 2.35871 v -13.93998 h -2.35871 v -1.69827 h 6.604388 v 1.69827 h -2.35871 v 13.93998 h 2.35871 v 1.69827 z"
         style="fill:#ffffff"
         id="path854" />
      <path
         d="m 73.659441,210.50039 v -15.63825 h -3.538065 v -1.69827 h 8.963098 v 1.69827 h -3.538065 v 15.63825 z"
         style="fill:#ffffff"
         id="path856" />
      <path
         d="m 81.914883,210.50039 v -17.33652 h 1.886968 v 7.38276 h 5.189161 v -7.38276 h 1.886968 v 17.33652 h -1.886968 v -8.25549 h -5.189161 v 8.25549 z"
         style="fill:#ffffff"
         id="path858" />
      <path
         d="m 98.189934,210.68908 q -1.368051,0 -2.35871,-0.56609 -0.919897,-0.5425 -1.4624,-1.48598 -0.660439,-1.1086 -0.660439,-2.73611 v -12.73703 h 1.886968 v 12.73703 q 0,1.13218 0.448155,1.88697 0.33022,0.56609 0.872723,0.89631 0.542503,0.30663 1.273703,0.30663 0.7312,0 1.273704,-0.30663 0.542502,-0.33022 0.872722,-0.89631 0.44816,-0.75479 0.44816,-1.88697 v -12.73703 h 1.88696 v 12.73703 q 0,1.62751 -0.66044,2.73611 -0.5425,0.94348 -1.4624,1.48598 -0.990654,0.56609 -2.358706,0.56609 z"
         style="fill:#ffffff"
         id="path860" />
      <path
         d="m 105.50189,210.50039 v -17.33652 h 4.12774 q 1.32088,0 2.28795,0.56609 0.87272,0.49533 1.41523,1.41523 0.61326,1.085 0.61326,2.57099 0,1.34446 -0.5425,2.26436 -0.49533,0.84914 -1.34447,1.34447 -0.0944,0.0472 -0.1887,0.0943 0.3774,0.14153 0.70762,0.33022 0.96707,0.56609 1.50957,1.50958 0.56609,0.96707 0.56609,2.33512 0,1.53316 -0.63685,2.64176 -0.58968,1.01424 -1.58033,1.60392 -1.17936,0.66044 -2.80687,0.66044 z m 1.88697,-9.85941 h 2.24077 q 0.68403,0 1.20294,-0.30663 0.49533,-0.28305 0.82555,-0.82555 0.40098,-0.7312 0.40098,-1.76903 0,-1.03784 -0.40098,-1.74545 -0.33022,-0.5425 -0.84913,-0.82555 -0.49533,-0.30663 -1.17936,-0.30663 h -2.24077 z m 0,8.16114 h 2.24077 q 0.99066,0 1.69827,-0.40098 0.63685,-0.3774 1.01425,-1.01425 0.42456,-0.75479 0.42456,-1.81621 0,-1.06142 -0.42456,-1.8162 -0.40098,-0.63686 -1.01425,-1.01425 -0.70761,-0.40098 -1.69827,-0.40098 h -2.24077 z"
         style="fill:#ffffff"
         id="path862" />
    </g>
    <text
       xml:space="preserve"
       style="font-style:normal;font-variant:normal;font-weight:normal;font-stretch:normal;font-size:10.5833px;line-height:1.25;font-family:Iosevka;-inkscape-font-specification:Iosevka;letter-spacing:0px;word-spacing:0px;fill:#000000;fill-opacity:1;stroke:none;stroke-width:0.264583"
       x="213.61301"
       y="417.90695"
       id="text12650"><tspan
         sodipodi:role="line"
         id="tspan12648"
         style="stroke-width:0.264583"
         x="213.61301"
         y="417.90695"> </tspan></text>
    <text
       xml:space="preserve"
       style="font-style:normal;font-variant:normal;font-weight:normal;font-stretch:normal;font-size:10.5833px;line-height:1.25;font-family:Iosevka;-inkscape-font-specification:Iosevka;letter-spacing:0px;word-spacing:0px;fill:#000000;fill-opacity:1;stroke:none;stroke-width:0.264583"
       x="99.899643"
       y="70.990974"
       id="text19668"><tspan
         sodipodi:role="line"
         id="tspan19666"
         style="stroke-width:0.264583"
         x="99.899643"
         y="70.990974" /></text>
    <g
       id="g14"
       transform="matrix(0.26458333,0,0,0.26458333,-7.1665632,-4.4061614)" />
    <g
       id="g16"
       transform="matrix(0.26458333,0,0,0.26458333,-7.1665632,-4.4061614)" />
    <g
       id="g18"
       transform="matrix(0.26458333,0,0,0.26458333,-7.1665632,-4.4061614)" />
    <g
       id="g20"
       transform="matrix(0.26458333,0,0,0.26458333,-7.1665632,-4.4061614)" />
    <g
       id="g22"
       transform="matrix(0.26458333,0,0,0.26458333,-7.1665632,-4.4061614)" />
    <g
       id="g24"
       transform="matrix(0.26458333,0,0,0.26458333,-7.1665632,-4.4061614)" />
    <g
       id="g26"
       transform="matrix(0.26458333,0,0,0.26458333,-7.1665632,-4.4061614)" />
    <g
       id="g28"
       transform="matrix(0.26458333,0,0,0.26458333,-7.1665632,-4.4061614)" />
    <g
       id="g30"
       transform="matrix(0.26458333,0,0,0.26458333,-7.1665632,-4.4061614)" />
    <g
       id="g32"
       transform="matrix(0.26458333,0,0,0.26458333,-7.1665632,-4.4061614)" />
    <g
       id="g34"
       transform="matrix(0.26458333,0,0,0.26458333,-7.1665632,-4.4061614)" />
    <g
       id="g36"
       transform="matrix(0.26458333,0,0,0.26458333,-7.1665632,-4.4061614)" />
    <g
       id="g38"
       transform="matrix(0.26458333,0,0,0.26458333,-7.1665632,-4.4061614)" />
    <g
       id="g40"
       transform="matrix(0.26458333,0,0,0.26458333,-7.1665632,-4.4061614)" />
    <g
       id="g42"
       transform="matrix(0.26458333,0,0,0.26458333,-7.1665632,-4.4061614)" />
    <text
       xml:space="preserve"
       style="font-style:normal;font-variant:normal;font-weight:normal;font-stretch:normal;font-size:10.5833px;line-height:1.25;font-family:Iosevka;-inkscape-font-specification:Iosevka;letter-spacing:0px;word-spacing:0px;fill:#000000;fill-opacity:1;stroke:none;stroke-width:0.264583"
       x="45.853828"
       y="8.6285772"
       id="text7209"><tspan
         sodipodi:role="line"
         id="tspan7207"
         style="stroke-width:0.264583"
         x="45.853828"
         y="8.6285772"> </tspan></text>
    <text
       xml:space="preserve"
       style="font-style:normal;font-variant:normal;font-weight:normal;font-stretch:normal;font-size:10.5833px;line-height:1.25;font-family:Iosevka;-inkscape-font-specification:Iosevka;letter-spacing:0px;word-spacing:0px;fill:#000000;fill-opacity:1;stroke:none;stroke-width:0.264583"
       x="41.890079"
       y="30.934006"
       id="text3216"><tspan
         sodipodi:role="line"
         id="tspan3214"
         style="stroke-width:0.264583"
         x="41.890079"
         y="30.934006"> </tspan></text>
    <path
       d="M 6.6805562,2.3408018 C 5.0390258,2.3400692 3.7094724,3.6690297 3.7094724,5.3092327 c 0,1.297027 0.8317176,2.399566 1.9900154,2.804473 0.1559887,0.03916 0.1320928,-0.07169 0.1320928,-0.147358 v -0.51443 C 4.9308297,7.5574597 4.8943217,6.9613837 4.8339175,6.8618157 4.7117819,6.6533867 4.4230371,6.6002857 4.5093284,6.5007177 c 0.2051083,-0.105539 0.4141997,0.02656 0.6564797,0.384332 0.1752383,0.259537 0.5170854,0.215725 0.6903321,0.17258 0.037836,-0.155987 0.118817,-0.295382 0.2303321,-0.403576 -0.9332762,-0.167273 -1.3222518,-0.736797 -1.3222518,-1.413856 0,-0.328571 0.1081964,-0.630591 0.3206064,-0.874198 -0.1354114,-0.401588 0.012611,-0.745426 0.032526,-0.796538 0.385657,-0.0345 0.7865806,0.276134 0.8177785,0.300693 0.2190478,-0.05908 0.4692931,-0.09028 0.7494089,-0.09028 0.2814428,0 0.5323523,0.03253 0.7533912,0.09226 0.075007,-0.05708 0.4467247,-0.323923 0.8051665,-0.291397 0.019248,0.05111 0.163954,0.386984 0.036508,0.78326 0.2150652,0.244271 0.3245891,0.548946 0.3245891,0.878184 0,0.678385 -0.3916308,1.248571 -1.3275623,1.413189 a 0.84632086,0.84632086 0 0 1 0.2529006,0.604042 v 0.746752 c 0.00531,0.05974 0,0.118817 0.099567,0.118817 1.1755566,-0.396276 2.0218773,-1.506782 2.0218773,-2.815095 0,-1.640866 -1.3302174,-2.9690939 -2.9704204,-2.9690939 z"
       id="path2-3"
       style="fill:#ffffff;stroke-width:0.00663781" />
  </g>
</svg>
