<?xml version="1.0" encoding="UTF-8" standalone="no"?>
<!-- Created with Inkscape (http://www.inkscape.org/) -->

<svg
   width="132.386"
   height="40"
   viewBox="0 0 35.027153 10.583334"
   version="1.1"
   id="svg8"
   inkscape:version="1.1 (1:1.1+202105261517+ce6663b3b7)"
   sodipodi:docname="hello.svg"
   xmlns:inkscape="http://www.inkscape.org/namespaces/inkscape"
   xmlns:sodipodi="http://sodipodi.sourceforge.net/DTD/sodipodi-0.dtd"
   xmlns="http://www.w3.org/2000/svg"
   xmlns:svg="http://www.w3.org/2000/svg"
   xmlns:rdf="http://www.w3.org/1999/02/22-rdf-syntax-ns#"
   xmlns:cc="http://creativecommons.org/ns#"
   xmlns:dc="http://purl.org/dc/elements/1.1/">
  <defs
     id="defs2">
    <rect
       x="45.118309"
       y="189.10129"
       width="233.83926"
       height="29.225491"
       id="rect3603" />
    <rect
       x="45.118309"
       y="189.10129"
       width="571.77429"
       height="241.29497"
       id="rect3603-3" />
  </defs>
  <sodipodi:namedview
     id="base"
     pagecolor="#373746"
     bordercolor="#666666"
     borderopacity="1.0"
     inkscape:pageopacity="0"
     inkscape:pageshadow="2"
     inkscape:zoom="5.9201155"
     inkscape:cx="83.106487"
     inkscape:cy="44.509267"
     inkscape:document-units="mm"
     inkscape:current-layer="layer1"
     showgrid="false"
     inkscape:window-width="1920"
     inkscape:window-height="1080"
     inkscape:window-x="0"
     inkscape:window-y="0"
     inkscape:window-maximized="0"
     inkscape:pagecheckerboard="true"
     height="200.31496px"
     units="px"
     showguides="false" />
  <metadata
     id="metadata5">
    <rdf:RDF>
      <cc:Work
         rdf:about="">
        <dc:format>image/svg+xml</dc:format>
        <dc:type
           rdf:resource="http://purl.org/dc/dcmitype/StillImage" />
      </cc:Work>
    </rdf:RDF>
  </metadata>
  <g
     inkscape:label="Layer 1"
     inkscape:groupmode="layer"
     id="layer1">
    <rect
       style="fill:#1e2127;fill-opacity:1;stroke-width:1.10518;stroke-linecap:round;stroke-linejoin:round;stroke-opacity:0.685945"
       id="rect20849"
       width="35.02713"
       height="10.583333"
       x="0.0019788432"
       y="0.010120142"
       ry="2" />
    <g
       aria-label="hello!"
       transform="matrix(0.22936269,0,0,0.22936269,-1.7290396,-40.856817)"
       id="text3601"
       style="font-size:23.5871px;line-height:1.25;font-family:Iosevka;-inkscape-font-specification:Iosevka;letter-spacing:0px;word-spacing:0px;white-space:pre;shape-inside:url(#rect3603);fill:#ffffff">
      <path
         d="m 46.534367,210.50039 v -17.33652 h 1.886967 v 6.62797 q 0.02359,-0.0708 0.07076,-0.14152 0.56609,-0.94348 1.368052,-1.41522 0.754787,-0.42457 1.745445,-0.42457 0.990658,0 1.721858,0.42457 0.825549,0.47174 1.368052,1.41522 0.801961,1.39164 0.801961,3.53807 v 7.312 h -1.886968 v -7.312 q 0,-1.48599 -0.542503,-2.45306 -0.377394,-0.63685 -0.919897,-0.94349 -0.495329,-0.28304 -1.132181,-0.28304 -0.636851,0 -1.13218,0.28304 -0.542504,0.30664 -0.919897,0.94349 -0.542504,0.96707 -0.542504,2.45306 v 7.312 z"
         id="path852" />
      <path
         d="m 62.97453,210.68908 q -0.471742,0 -0.919897,-0.0708 -0.872723,-0.14152 -1.556749,-0.5425 -1.014245,-0.56609 -1.603922,-1.60392 -0.754788,-1.29729 -0.754788,-3.16067 v -2.12284 q 0,-1.91056 0.754788,-3.20785 0.589677,-1.03783 1.556748,-1.60392 0.990658,-0.56609 2.35871,-0.56609 1.368052,0 2.335123,0.56609 0.990658,0.56609 1.580336,1.60392 0.754787,1.29729 0.754787,3.20785 v 1.91055 h -7.453524 v 0.21229 q 0,1.39163 0.542504,2.28794 0.377393,0.68403 0.990658,1.03784 0.613264,0.3538 1.415226,0.3538 0.825548,0 1.415226,-0.3538 0.636851,-0.35381 1.037832,-1.03784 0.212284,-0.40098 0.353807,-0.84913 l 1.721858,0.68402 q -0.16511,0.54251 -0.448155,1.01425 -0.613265,1.06142 -1.603923,1.62751 -1.061419,0.61326 -2.476645,0.61326 z m -2.948388,-7.28841 h 5.566556 v -0.21228 q 0,-1.43882 -0.542503,-2.35871 -0.377394,-0.66044 -0.967072,-1.01425 -0.542503,-0.30663 -1.273703,-0.30663 -0.7312,0 -1.273703,0.30663 -0.589678,0.35381 -0.967071,1.01425 -0.542504,0.91989 -0.542504,2.35871 z"
         id="path854" />
      <path
         d="m 70.475182,210.50039 v -1.69827 h 3.349369 v -13.93998 h -3.019149 v -1.69827 h 4.906116 v 15.63825 h 3.019149 v 1.69827 z"
         id="path856" />
      <path
         d="m 82.268689,210.50039 v -1.69827 h 3.349368 v -13.93998 h -3.019149 v -1.69827 h 4.906117 v 15.63825 h 3.019149 v 1.69827 z"
         id="path858" />
      <path
         d="m 98.189934,210.68908 q -1.368051,0 -2.35871,-0.56609 -0.967071,-0.56609 -1.556748,-1.60392 -0.754787,-1.29729 -0.754787,-3.20784 v -2.12284 q 0,-1.91056 0.754787,-3.20785 0.589677,-1.03783 1.556748,-1.60392 0.990659,-0.56609 2.35871,-0.56609 1.368052,0 2.335126,0.56609 0.99066,0.56609 1.58033,1.60392 0.75479,1.29729 0.75479,3.20785 v 2.12284 q 0,1.91055 -0.75479,3.20784 -0.44815,0.77837 -1.10859,1.29729 -0.23587,0.16511 -0.47174,0.30663 -0.967074,0.56609 -2.335126,0.56609 z m 0,-1.69827 q 0.7312,0 1.273704,-0.30663 0.589682,-0.35381 0.967072,-1.01425 0.5425,-0.91989 0.5425,-2.3587 v -2.12284 q 0,-1.43882 -0.5425,-2.35871 -0.37739,-0.66044 -0.967072,-1.01425 -0.542504,-0.30663 -1.273704,-0.30663 -0.7312,0 -1.273703,0.30663 -0.589678,0.35381 -0.967071,1.01425 -0.542503,0.91989 -0.542503,2.35871 v 2.12284 q 0,1.43881 0.542503,2.3587 0.377393,0.66044 0.967071,1.01425 0.542503,0.30663 1.273703,0.30663 z"
         id="path860" />
      <path
         d="m 109.03995,204.36774 v -11.20387 h 1.88697 v 11.20387 z m 0.94349,6.32134 q -0.51892,0 -0.9199,-0.21228 -0.33022,-0.21228 -0.51892,-0.5425 -0.23587,-0.3774 -0.21228,-0.9199 -0.0236,-0.51892 0.21228,-0.89631 0.1887,-0.33022 0.51892,-0.5425 0.40098,-0.21229 0.9199,-0.21229 0.51891,0 0.91989,0.21229 0.33022,0.21228 0.51892,0.5425 0.21228,0.35381 0.23587,0.89631 -0.0236,0.56609 -0.23587,0.9199 -0.1887,0.33022 -0.51892,0.5425 -0.40098,0.21228 -0.91989,0.21228 z"
         id="path862" />
    </g>
    <text
       xml:space="preserve"
       style="font-style:normal;font-variant:normal;font-weight:normal;font-stretch:normal;font-size:10.5833px;line-height:1.25;font-family:Iosevka;-inkscape-font-specification:Iosevka;letter-spacing:0px;word-spacing:0px;fill:#000000;fill-opacity:1;stroke:none;stroke-width:0.264583"
       x="213.61301"
       y="417.90695"
       id="text12650"><tspan
         sodipodi:role="line"
         id="tspan12648"
         style="stroke-width:0.264583"
         x="213.61301"
         y="417.90695"> </tspan></text>
    <text
       xml:space="preserve"
       style="font-style:normal;font-variant:normal;font-weight:normal;font-stretch:normal;font-size:10.5833px;line-height:1.25;font-family:Iosevka;-inkscape-font-specification:Iosevka;letter-spacing:0px;word-spacing:0px;fill:#000000;fill-opacity:1;stroke:none;stroke-width:0.264583"
       x="99.899643"
       y="70.990974"
       id="text19668"><tspan
         sodipodi:role="line"
         id="tspan19666"
         style="stroke-width:0.264583"
         x="99.899643"
         y="70.990974" /></text>
    <g
       id="g14"
       transform="matrix(0.26458333,0,0,0.26458333,-7.1665632,-4.4061614)" />
    <g
       id="g16"
       transform="matrix(0.26458333,0,0,0.26458333,-7.1665632,-4.4061614)" />
    <g
       id="g18"
       transform="matrix(0.26458333,0,0,0.26458333,-7.1665632,-4.4061614)" />
    <g
       id="g20"
       transform="matrix(0.26458333,0,0,0.26458333,-7.1665632,-4.4061614)" />
    <g
       id="g22"
       transform="matrix(0.26458333,0,0,0.26458333,-7.1665632,-4.4061614)" />
    <g
       id="g24"
       transform="matrix(0.26458333,0,0,0.26458333,-7.1665632,-4.4061614)" />
    <g
       id="g26"
       transform="matrix(0.26458333,0,0,0.26458333,-7.1665632,-4.4061614)" />
    <g
       id="g28"
       transform="matrix(0.26458333,0,0,0.26458333,-7.1665632,-4.4061614)" />
    <g
       id="g30"
       transform="matrix(0.26458333,0,0,0.26458333,-7.1665632,-4.4061614)" />
    <g
       id="g32"
       transform="matrix(0.26458333,0,0,0.26458333,-7.1665632,-4.4061614)" />
    <g
       id="g34"
       transform="matrix(0.26458333,0,0,0.26458333,-7.1665632,-4.4061614)" />
    <g
       id="g36"
       transform="matrix(0.26458333,0,0,0.26458333,-7.1665632,-4.4061614)" />
    <g
       id="g38"
       transform="matrix(0.26458333,0,0,0.26458333,-7.1665632,-4.4061614)" />
    <g
       id="g40"
       transform="matrix(0.26458333,0,0,0.26458333,-7.1665632,-4.4061614)" />
    <g
       id="g42"
       transform="matrix(0.26458333,0,0,0.26458333,-7.1665632,-4.4061614)" />
    <text
       xml:space="preserve"
       style="font-style:normal;font-variant:normal;font-weight:normal;font-stretch:normal;font-size:10.5833px;line-height:1.25;font-family:Iosevka;-inkscape-font-specification:Iosevka;letter-spacing:0px;word-spacing:0px;fill:#000000;fill-opacity:1;stroke:none;stroke-width:0.264583"
       x="45.853828"
       y="8.6285772"
       id="text7209"><tspan
         sodipodi:role="line"
         id="tspan7207"
         style="stroke-width:0.264583"
         x="45.853828"
         y="8.6285772"> </tspan></text>
    <text
       xml:space="preserve"
       style="font-style:normal;font-variant:normal;font-weight:normal;font-stretch:normal;font-size:10.5833px;line-height:1.25;font-family:Iosevka;-inkscape-font-specification:Iosevka;letter-spacing:0px;word-spacing:0px;fill:#000000;fill-opacity:1;stroke:none;stroke-width:0.264583"
       x="41.890079"
       y="30.934006"
       id="text3216"><tspan
         sodipodi:role="line"
         id="tspan3214"
         style="stroke-width:0.264583"
         x="41.890079"
         y="30.934006"> </tspan></text>
    <text
       xml:space="preserve"
       style="font-style:normal;font-variant:normal;font-weight:normal;font-stretch:normal;font-size:10.5833px;line-height:1.25;font-family:Iosevka;-inkscape-font-specification:Iosevka;letter-spacing:0px;word-spacing:0px;fill:#000000;fill-opacity:1;stroke:none;stroke-width:0.264583"
       x="17.682642"
       y="14.817046"
       id="text1773"><tspan
         sodipodi:role="line"
         id="tspan1771"
         style="stroke-width:0.264583"
         x="17.682642"
         y="14.817046"> </tspan></text>
  </g>
</svg>
