<?xml version="1.0" encoding="UTF-8" standalone="no"?>
<!-- Created with Inkscape (http://www.inkscape.org/) -->

<svg
   width="153"
   height="40"
   viewBox="0 0 40.481277 10.583334"
   version="1.1"
   id="svg8"
   inkscape:version="1.1 (1:1.1+202105261517+ce6663b3b7)"
   sodipodi:docname="insta.svg"
   xmlns:inkscape="http://www.inkscape.org/namespaces/inkscape"
   xmlns:sodipodi="http://sodipodi.sourceforge.net/DTD/sodipodi-0.dtd"
   xmlns="http://www.w3.org/2000/svg"
   xmlns:svg="http://www.w3.org/2000/svg"
   xmlns:rdf="http://www.w3.org/1999/02/22-rdf-syntax-ns#"
   xmlns:cc="http://creativecommons.org/ns#"
   xmlns:dc="http://purl.org/dc/elements/1.1/">
  <defs
     id="defs2">
    <rect
       x="45.118309"
       y="189.10129"
       width="233.83926"
       height="29.225491"
       id="rect3603" />
    <rect
       x="45.118309"
       y="189.10129"
       width="571.77429"
       height="241.29497"
       id="rect3603-3" />
  </defs>
  <sodipodi:namedview
     id="base"
     pagecolor="#373746"
     bordercolor="#666666"
     borderopacity="1.0"
     inkscape:pageopacity="0"
     inkscape:pageshadow="2"
     inkscape:zoom="6.3572438"
     inkscape:cx="77.392029"
     inkscape:cy="24.460286"
     inkscape:document-units="mm"
     inkscape:current-layer="layer1"
     showgrid="false"
     inkscape:window-width="1920"
     inkscape:window-height="1080"
     inkscape:window-x="0"
     inkscape:window-y="0"
     inkscape:window-maximized="0"
     inkscape:pagecheckerboard="true"
     height="200.31496px"
     units="px"
     showguides="false" />
  <metadata
     id="metadata5">
    <rdf:RDF>
      <cc:Work
         rdf:about="">
        <dc:format>image/svg+xml</dc:format>
        <dc:type
           rdf:resource="http://purl.org/dc/dcmitype/StillImage" />
      </cc:Work>
    </rdf:RDF>
  </metadata>
  <g
     inkscape:label="Layer 1"
     inkscape:groupmode="layer"
     id="layer1">
    <rect
       style="fill:#e4405f;fill-opacity:1;stroke-width:1.1881;stroke-linecap:round;stroke-linejoin:round;stroke-opacity:0.685945"
       id="rect20849"
       width="40.481251"
       height="10.583333"
       x="0.0019788432"
       y="0.010120142"
       ry="2" />
    <text
       xml:space="preserve"
       transform="matrix(0.22936269,0,0,0.22936269,2.3971042,-40.821721)"
       id="text3601"
       style="font-style:normal;font-variant:normal;font-weight:normal;font-stretch:normal;font-size:23.5871px;line-height:1.25;font-family:Iosevka;-inkscape-font-specification:Iosevka;letter-spacing:0px;word-spacing:0px;white-space:pre;shape-inside:url(#rect3603);fill:#000000;fill-opacity:1;stroke:none"><tspan
         x="45.119141"
         y="210.50039"
         id="tspan11995"><tspan
           style="fill:#ffffff"
           id="tspan11993">INSTAGRAM</tspan></tspan></text>
    <text
       xml:space="preserve"
       style="font-style:normal;font-variant:normal;font-weight:normal;font-stretch:normal;font-size:10.5833px;line-height:1.25;font-family:Iosevka;-inkscape-font-specification:Iosevka;letter-spacing:0px;word-spacing:0px;fill:#000000;fill-opacity:1;stroke:none;stroke-width:0.264583"
       x="213.61301"
       y="417.90695"
       id="text12650"><tspan
         sodipodi:role="line"
         id="tspan12648"
         style="stroke-width:0.264583"
         x="213.61301"
         y="417.90695"> </tspan></text>
    <text
       xml:space="preserve"
       style="font-style:normal;font-variant:normal;font-weight:normal;font-stretch:normal;font-size:10.5833px;line-height:1.25;font-family:Iosevka;-inkscape-font-specification:Iosevka;letter-spacing:0px;word-spacing:0px;fill:#000000;fill-opacity:1;stroke:none;stroke-width:0.264583"
       x="99.899643"
       y="70.990974"
       id="text19668"><tspan
         sodipodi:role="line"
         id="tspan19666"
         style="stroke-width:0.264583"
         x="99.899643"
         y="70.990974" /></text>
    <g
       id="g12"
       transform="matrix(0.03280944,0,0,0.03280944,2.6132027,1.4928599)">
      <path
         style="fill:#ffffff"
         d="m 167.809,36.555 c -22.276,-0.183 -44.597,-1.054 -66.919,-0.504 -25.851,0.642 -46.018,2.2 -61.281,22.872 -3.988,9.854 -6.004,21.359 -6.967,33.368 -0.183,3.163 -0.367,6.417 -0.596,9.763 -0.825,20.396 0.55,41.435 0.092,58.118 2.154,10.955 6.371,20.809 14.255,28.326 26.126,24.888 79.294,17.142 114.128,15.767 16.73,-6.096 30.663,-11.138 38.134,-30.251 5.913,-15.034 4.95,-34.193 5.363,-50.326 0.779,-33.186 2.246,-78.974 -36.209,-87.133 z"
         id="path2" />
      <path
         d="m 157.588,48.38 c 44.505,5.729 31.443,70.219 30.205,101.478 -0.688,17.188 -3.758,30.48 -21.496,36.438 -23.33,7.838 -57.706,5.225 -81.494,1.742 -15.905,-2.292 -28.372,-7.059 -32.772,-23.559 -6.967,-26.08 -4.996,-61.373 -1.971,-87.957 0.092,-0.504 0.229,-0.871 0.458,-1.192 0.412,-39.783 83.923,-29.929 107.07,-26.95 z"
         id="path4"
         style="fill:#e4405f;fill-opacity:1" />
      <path
         style="fill:#ffffff"
         d="m 176.059,72.627 c 0.092,-10.955 -13.567,-14.438 -20.901,-7.7 -1.971,1.833 -2.888,4.629 -3.025,7.654 0.733,3.896 3.071,7.746 6.096,9.946 7.105,4.996 17.738,-1.65 17.83,-9.9 z"
         id="path6" />
      <path
         style="fill:#ffffff"
         d="m 155.754,93.94 c -15.675,-23.742 -51.06,-26.08 -70.081,-5.042 -12.971,14.346 -13.888,38.226 -4.125,55.185 0.55,0.183 1.054,0.504 1.513,1.054 15.859,17.692 43.176,24.109 62.794,8.067 17.508,-14.346 22.641,-39.968 9.899,-59.264 z"
         id="path8" />
      <path
         d="m 93.282,126.483 c 5.546,15.584 25.255,27.959 40.976,18.334 31.763,-19.434 -5.546,-72.235 -31.718,-48.814 -9.258,5.454 -12.879,20.258 -9.258,30.48 z"
         id="path10"
         style="fill:#e4405f;fill-opacity:1" />
    </g>
    <g
       id="g14"
       transform="matrix(0.26458333,0,0,0.26458333,-7.1665632,-4.4061614)" />
    <g
       id="g16"
       transform="matrix(0.26458333,0,0,0.26458333,-7.1665632,-4.4061614)" />
    <g
       id="g18"
       transform="matrix(0.26458333,0,0,0.26458333,-7.1665632,-4.4061614)" />
    <g
       id="g20"
       transform="matrix(0.26458333,0,0,0.26458333,-7.1665632,-4.4061614)" />
    <g
       id="g22"
       transform="matrix(0.26458333,0,0,0.26458333,-7.1665632,-4.4061614)" />
    <g
       id="g24"
       transform="matrix(0.26458333,0,0,0.26458333,-7.1665632,-4.4061614)" />
    <g
       id="g26"
       transform="matrix(0.26458333,0,0,0.26458333,-7.1665632,-4.4061614)" />
    <g
       id="g28"
       transform="matrix(0.26458333,0,0,0.26458333,-7.1665632,-4.4061614)" />
    <g
       id="g30"
       transform="matrix(0.26458333,0,0,0.26458333,-7.1665632,-4.4061614)" />
    <g
       id="g32"
       transform="matrix(0.26458333,0,0,0.26458333,-7.1665632,-4.4061614)" />
    <g
       id="g34"
       transform="matrix(0.26458333,0,0,0.26458333,-7.1665632,-4.4061614)" />
    <g
       id="g36"
       transform="matrix(0.26458333,0,0,0.26458333,-7.1665632,-4.4061614)" />
    <g
       id="g38"
       transform="matrix(0.26458333,0,0,0.26458333,-7.1665632,-4.4061614)" />
    <g
       id="g40"
       transform="matrix(0.26458333,0,0,0.26458333,-7.1665632,-4.4061614)" />
    <g
       id="g42"
       transform="matrix(0.26458333,0,0,0.26458333,-7.1665632,-4.4061614)" />
    <text
       xml:space="preserve"
       style="font-style:normal;font-variant:normal;font-weight:normal;font-stretch:normal;font-size:10.5833px;line-height:1.25;font-family:Iosevka;-inkscape-font-specification:Iosevka;letter-spacing:0px;word-spacing:0px;fill:#000000;fill-opacity:1;stroke:none;stroke-width:0.264583"
       x="45.853828"
       y="8.6285772"
       id="text7209"><tspan
         sodipodi:role="line"
         id="tspan7207"
         style="stroke-width:0.264583"
         x="45.853828"
         y="8.6285772"> </tspan></text>
  </g>
</svg>
