<?xml version="1.0" encoding="UTF-8" standalone="no"?>
<!-- Created with Inkscape (http://www.inkscape.org/) -->

<svg
   width="153"
   height="40"
   viewBox="0 0 40.481277 10.583334"
   version="1.1"
   id="svg8"
   inkscape:version="1.1 (1:1.1+202105261517+ce6663b3b7)"
   sodipodi:docname="insta.svg"
   xmlns:inkscape="http://www.inkscape.org/namespaces/inkscape"
   xmlns:sodipodi="http://sodipodi.sourceforge.net/DTD/sodipodi-0.dtd"
   xmlns="http://www.w3.org/2000/svg"
   xmlns:svg="http://www.w3.org/2000/svg"
   xmlns:rdf="http://www.w3.org/1999/02/22-rdf-syntax-ns#"
   xmlns:cc="http://creativecommons.org/ns#"
   xmlns:dc="http://purl.org/dc/elements/1.1/">
  <defs
     id="defs2">
    <rect
       x="45.118309"
       y="189.10129"
       width="233.83926"
       height="29.225491"
       id="rect3603" />
    <rect
       x="45.118309"
       y="189.10129"
       width="571.77429"
       height="241.29497"
       id="rect3603-3" />
  </defs>
  <sodipodi:namedview
     id="base"
     pagecolor="#373746"
     bordercolor="#666666"
     borderopacity="1.0"
     inkscape:pageopacity="0"
     inkscape:pageshadow="2"
     inkscape:zoom="6.3572438"
     inkscape:cx="77.39203"
     inkscape:cy="24.460286"
     inkscape:document-units="mm"
     inkscape:current-layer="layer1"
     showgrid="false"
     inkscape:window-width="1920"
     inkscape:window-height="1046"
     inkscape:window-x="0"
     inkscape:window-y="34"
     inkscape:window-maximized="0"
     inkscape:pagecheckerboard="true"
     height="200.31496px"
     units="px"
     showguides="false" />
  <metadata
     id="metadata5">
    <rdf:RDF>
      <cc:Work
         rdf:about="">
        <dc:format>image/svg+xml</dc:format>
        <dc:type
           rdf:resource="http://purl.org/dc/dcmitype/StillImage" />
      </cc:Work>
    </rdf:RDF>
  </metadata>
  <g
     inkscape:label="Layer 1"
     inkscape:groupmode="layer"
     id="layer1">
    <rect
       style="fill:#e4405f;fill-opacity:1;stroke-width:1.1881;stroke-linecap:round;stroke-linejoin:round;stroke-opacity:0.685945"
       id="rect20849"
       width="40.481251"
       height="10.583333"
       x="0.0019788432"
       y="0.010120142"
       ry="2" />
    <g
       aria-label="INSTAGRAM"
       transform="matrix(0.22936269,0,0,0.22936269,2.3971042,-40.821721)"
       id="text3601"
       style="font-size:23.5871px;line-height:1.25;font-family:Iosevka;-inkscape-font-specification:Iosevka;letter-spacing:0px;word-spacing:0px;white-space:pre;shape-inside:url(#rect3603)">
      <path
         d="m 47.713722,210.50039 v -1.69827 h 2.358709 v -13.93998 h -2.358709 v -1.69827 h 6.604387 v 1.69827 h -2.35871 v 13.93998 h 2.35871 v 1.69827 z"
         style="fill:#ffffff"
         id="path855" />
      <path
         d="m 58.327871,210.50039 v -17.33652 h 2.618168 l 4.528723,14.17585 q 0,-0.33022 -0.02359,-0.70762 0,-0.40098 0,-1.17935 0,-0.68403 -0.02359,-1.03783 v -0.23588 q -0.02359,-2.38229 -0.02359,-3.96263 v -7.05254 h 1.886968 v 17.33652 h -2.618168 l -4.528723,-14.15226 q 0,1.01424 0.02359,2.35871 0,0.16511 0,0.33022 v 0.23587 q 0.02359,0.3538 0.02359,0.70761 v 0.21228 q 0,0.0708 0,0.11794 v 0.23587 q 0,0.5425 0.02359,1.03783 0,0.7312 0,1.39164 v 0.23587 q 0,0.0943 0,0.23587 v 7.05255 z"
         style="fill:#ffffff"
         id="path857" />
      <path
         d="m 74.532164,210.68908 q -1.556749,0 -2.665343,-0.63685 -0.872722,-0.49533 -1.368051,-1.34446 -0.495329,-0.87273 -0.495329,-1.86338 l 1.86338,-0.25946 q 0,0.11793 0,0.16511 0,0.56609 0.283046,1.06142 0.283045,0.49533 0.825548,0.80196 0.636852,0.37739 1.556749,0.37739 0.849135,0 1.438813,-0.3538 0.542503,-0.30664 0.872722,-0.84914 0.353807,-0.66044 0.353807,-1.41523 0,-0.77837 -0.424568,-1.53316 -0.589678,-1.01424 -2.52382,-2.09925 -2.618168,-1.50957 -3.443716,-2.94839 -0.684026,-1.17935 -0.684026,-2.47664 0,-1.25012 0.589677,-2.28795 0.542504,-0.9199 1.462401,-1.43881 1.037832,-0.61327 2.500232,-0.61327 1.556749,0 2.665342,0.63685 0.872723,0.49533 1.368052,1.36806 0.495329,0.84913 0.495329,1.83979 l -1.863381,0.25946 q 0,-0.11794 0,-0.16511 0,-0.56609 -0.283045,-1.06142 -0.283045,-0.49533 -0.825548,-0.80196 -0.636852,-0.3774 -1.556749,-0.3774 -0.849135,0 -1.438813,0.35381 -0.542503,0.30663 -0.872723,0.84914 -0.353806,0.66043 -0.353806,1.43881 0,0.75479 0.424568,1.50957 0.589677,1.01425 2.523819,2.09925 2.618168,1.50958 3.443717,2.94839 0.684026,1.17936 0.684026,2.47665 0,1.25011 -0.589678,2.28795 -0.542503,0.91989 -1.4624,1.43881 -1.037832,0.61326 -2.500232,0.61326 z"
         style="fill:#ffffff"
         id="path859" />
      <path
         d="m 85.452947,210.50039 v -15.63825 h -3.538064 v -1.69827 h 8.963097 v 1.69827 h -3.538065 v 15.63825 z"
         style="fill:#ffffff"
         id="path861" />
      <path
         d="m 93.708385,210.50039 v -1.74545 q 0,-4.69383 3.538065,-15.59107 h 1.886968 q 3.538062,10.89724 3.538062,15.59107 v 1.74545 h -1.88696 v -1.74545 q 0,-1.17935 -0.21229,-2.80686 h -4.764593 q -0.212284,1.62751 -0.212284,2.80686 v 1.74545 z m 6.604385,-6.25058 q -0.636849,-3.63242 -2.122836,-8.93951 -1.485987,5.30709 -2.122839,8.93951 z"
         style="fill:#ffffff"
         id="path863" />
      <path
         d="m 109.95985,210.68908 q -1.43881,0 -2.50023,-0.61326 -0.94349,-0.5425 -1.50958,-1.50958 -0.63685,-1.10859 -0.63685,-2.66534 v -8.13755 q 0,-1.55675 0.63685,-2.68893 0.56609,-0.94348 1.50958,-1.48598 1.03783,-0.61327 2.52382,-0.61327 1.4624,0 2.52382,0.61327 0.94348,0.5425 1.48598,1.50957 0.47175,0.77838 0.58968,1.72186 l -1.83979,0.33022 q -0.0943,-0.66044 -0.40098,-1.17936 -0.35381,-0.61326 -0.9199,-0.94348 -0.61326,-0.35381 -1.43881,-0.35381 -0.82555,0 -1.43882,0.35381 -0.56609,0.33022 -0.91989,0.9199 -0.42457,0.75478 -0.42457,1.8162 v 8.13755 q 0,1.06142 0.42457,1.81621 0.3538,0.58968 0.91989,0.9199 0.61327,0.3538 1.41523,0.3538 0.75479,0 1.29729,-0.30663 0.5425,-0.33022 0.87272,-0.89631 0.44816,-0.75479 0.44816,-1.88697 v -3.13708 h -2.59458 v -1.69827 h 4.48155 v 4.83535 q 0,1.62751 -0.66044,2.73611 -0.54251,0.94348 -1.4624,1.48598 -0.99066,0.56609 -2.3823,0.56609 z"
         style="fill:#ffffff"
         id="path865" />
      <path
         d="m 117.2954,210.50039 v -17.33652 h 4.50513 q 1.41523,0 2.47665,0.58968 0.9199,0.56609 1.50957,1.53316 0.66044,1.17935 0.66044,2.83045 0,1.6511 -0.66044,2.80686 -0.58967,0.99066 -1.50957,1.53317 -0.42457,0.25945 -0.9199,0.40098 0.63685,0.91989 1.17936,1.83979 1.91055,3.34937 1.91055,5.80243 h -1.88696 q 0,-2.09925 -1.62751,-4.95329 -0.7312,-1.22653 -1.6511,-2.47665 h -2.09925 v 7.42994 z m 4.50513,-9.12821 q 0.80197,0 1.36806,-0.33022 0.56609,-0.33022 0.94348,-0.96707 0.44816,-0.80196 0.44816,-1.95773 0,-1.15577 -0.44816,-1.95773 -0.37739,-0.63685 -0.94348,-0.96707 -0.56609,-0.33022 -1.36806,-0.33022 h -2.61816 v 6.51004 z"
         style="fill:#ffffff"
         id="path867" />
      <path
         d="m 129.0889,210.50039 v -1.74545 q 0,-4.69383 3.53807,-15.59107 h 1.88696 q 3.53807,10.89724 3.53807,15.59107 v 1.74545 h -1.88697 v -1.74545 q 0,-1.17935 -0.21228,-2.80686 h -4.7646 q -0.21228,1.62751 -0.21228,2.80686 v 1.74545 z m 6.60439,-6.25058 q -0.63685,-3.63242 -2.12284,-8.93951 -1.48599,5.30709 -2.12284,8.93951 z"
         style="fill:#ffffff"
         id="path869" />
      <path
         d="m 140.8824,210.50039 v -17.33652 h 2.07567 l 2.40588,9.38766 2.40589,-9.38766 h 2.07566 v 17.33652 h -1.88697 v -3.46731 q 0,-1.085 0.0236,-2.35871 l 0.0236,-0.23587 q 0.0236,-0.80196 0.0472,-1.74544 l 0.0236,-0.23587 q 0.0236,-0.42457 0.0472,-0.9199 0,-0.28305 0.0236,-0.61327 v -0.25945 q 0.0236,-0.16511 0.0236,-0.44816 l 0.0236,-0.23587 v -0.11793 -0.23588 q 0.0236,-0.0236 0.0236,-0.0708 0,-0.11793 0,-0.16511 v -0.23587 l 0.0236,-0.23587 q 0.0236,-0.58968 0.0472,-1.06142 v -0.23587 q 0.0236,-0.16511 0.0236,-0.35381 v -0.23587 q 0.0236,-0.25945 0.0236,-0.51891 l -2.26436,8.7744 h -1.41523 l -2.26436,-8.7744 q 0,0.0708 0,0.11793 0,0.1887 0.0236,0.40098 v 0.28305 q 0,0.14152 0.0236,0.30663 v 0.23587 q 0,0.1887 0.0236,0.3774 0,0.33021 0.0236,0.68402 l 0.0236,0.23587 v 0.23587 q 0,0.0472 0,0.16511 0,0.0472 0.0236,0.0708 v 0.23588 0.11793 l 0.0236,0.23587 q 0,0.23587 0.0236,0.47174 v 0.23587 q 0.0472,0.87273 0.0708,1.53317 l 0.0236,0.23587 q 0.0236,0.94348 0.0472,1.74544 l 0.0236,0.23587 q 0.0236,1.27371 0.0236,2.35871 v 3.46731 z"
         style="fill:#ffffff"
         id="path871" />
    </g>
    <text
       xml:space="preserve"
       style="font-style:normal;font-variant:normal;font-weight:normal;font-stretch:normal;font-size:10.5833px;line-height:1.25;font-family:Iosevka;-inkscape-font-specification:Iosevka;letter-spacing:0px;word-spacing:0px;fill:#000000;fill-opacity:1;stroke:none;stroke-width:0.264583"
       x="213.61301"
       y="417.90695"
       id="text12650"><tspan
         sodipodi:role="line"
         id="tspan12648"
         style="stroke-width:0.264583"
         x="213.61301"
         y="417.90695"> </tspan></text>
    <text
       xml:space="preserve"
       style="font-style:normal;font-variant:normal;font-weight:normal;font-stretch:normal;font-size:10.5833px;line-height:1.25;font-family:Iosevka;-inkscape-font-specification:Iosevka;letter-spacing:0px;word-spacing:0px;fill:#000000;fill-opacity:1;stroke:none;stroke-width:0.264583"
       x="99.899643"
       y="70.990974"
       id="text19668"><tspan
         sodipodi:role="line"
         id="tspan19666"
         style="stroke-width:0.264583"
         x="99.899643"
         y="70.990974" /></text>
    <g
       id="g12"
       transform="matrix(0.03280944,0,0,0.03280944,2.6132027,1.4928599)">
      <path
         style="fill:#ffffff"
         d="m 167.809,36.555 c -22.276,-0.183 -44.597,-1.054 -66.919,-0.504 -25.851,0.642 -46.018,2.2 -61.281,22.872 -3.988,9.854 -6.004,21.359 -6.967,33.368 -0.183,3.163 -0.367,6.417 -0.596,9.763 -0.825,20.396 0.55,41.435 0.092,58.118 2.154,10.955 6.371,20.809 14.255,28.326 26.126,24.888 79.294,17.142 114.128,15.767 16.73,-6.096 30.663,-11.138 38.134,-30.251 5.913,-15.034 4.95,-34.193 5.363,-50.326 0.779,-33.186 2.246,-78.974 -36.209,-87.133 z"
         id="path2" />
      <path
         d="m 157.588,48.38 c 44.505,5.729 31.443,70.219 30.205,101.478 -0.688,17.188 -3.758,30.48 -21.496,36.438 -23.33,7.838 -57.706,5.225 -81.494,1.742 -15.905,-2.292 -28.372,-7.059 -32.772,-23.559 -6.967,-26.08 -4.996,-61.373 -1.971,-87.957 0.092,-0.504 0.229,-0.871 0.458,-1.192 0.412,-39.783 83.923,-29.929 107.07,-26.95 z"
         id="path4"
         style="fill:#e4405f;fill-opacity:1" />
      <path
         style="fill:#ffffff"
         d="m 176.059,72.627 c 0.092,-10.955 -13.567,-14.438 -20.901,-7.7 -1.971,1.833 -2.888,4.629 -3.025,7.654 0.733,3.896 3.071,7.746 6.096,9.946 7.105,4.996 17.738,-1.65 17.83,-9.9 z"
         id="path6" />
      <path
         style="fill:#ffffff"
         d="m 155.754,93.94 c -15.675,-23.742 -51.06,-26.08 -70.081,-5.042 -12.971,14.346 -13.888,38.226 -4.125,55.185 0.55,0.183 1.054,0.504 1.513,1.054 15.859,17.692 43.176,24.109 62.794,8.067 17.508,-14.346 22.641,-39.968 9.899,-59.264 z"
         id="path8" />
      <path
         d="m 93.282,126.483 c 5.546,15.584 25.255,27.959 40.976,18.334 31.763,-19.434 -5.546,-72.235 -31.718,-48.814 -9.258,5.454 -12.879,20.258 -9.258,30.48 z"
         id="path10"
         style="fill:#e4405f;fill-opacity:1" />
    </g>
    <g
       id="g14"
       transform="matrix(0.26458333,0,0,0.26458333,-7.1665632,-4.4061614)" />
    <g
       id="g16"
       transform="matrix(0.26458333,0,0,0.26458333,-7.1665632,-4.4061614)" />
    <g
       id="g18"
       transform="matrix(0.26458333,0,0,0.26458333,-7.1665632,-4.4061614)" />
    <g
       id="g20"
       transform="matrix(0.26458333,0,0,0.26458333,-7.1665632,-4.4061614)" />
    <g
       id="g22"
       transform="matrix(0.26458333,0,0,0.26458333,-7.1665632,-4.4061614)" />
    <g
       id="g24"
       transform="matrix(0.26458333,0,0,0.26458333,-7.1665632,-4.4061614)" />
    <g
       id="g26"
       transform="matrix(0.26458333,0,0,0.26458333,-7.1665632,-4.4061614)" />
    <g
       id="g28"
       transform="matrix(0.26458333,0,0,0.26458333,-7.1665632,-4.4061614)" />
    <g
       id="g30"
       transform="matrix(0.26458333,0,0,0.26458333,-7.1665632,-4.4061614)" />
    <g
       id="g32"
       transform="matrix(0.26458333,0,0,0.26458333,-7.1665632,-4.4061614)" />
    <g
       id="g34"
       transform="matrix(0.26458333,0,0,0.26458333,-7.1665632,-4.4061614)" />
    <g
       id="g36"
       transform="matrix(0.26458333,0,0,0.26458333,-7.1665632,-4.4061614)" />
    <g
       id="g38"
       transform="matrix(0.26458333,0,0,0.26458333,-7.1665632,-4.4061614)" />
    <g
       id="g40"
       transform="matrix(0.26458333,0,0,0.26458333,-7.1665632,-4.4061614)" />
    <g
       id="g42"
       transform="matrix(0.26458333,0,0,0.26458333,-7.1665632,-4.4061614)" />
    <text
       xml:space="preserve"
       style="font-style:normal;font-variant:normal;font-weight:normal;font-stretch:normal;font-size:10.5833px;line-height:1.25;font-family:Iosevka;-inkscape-font-specification:Iosevka;letter-spacing:0px;word-spacing:0px;fill:#000000;fill-opacity:1;stroke:none;stroke-width:0.264583"
       x="45.853828"
       y="8.6285772"
       id="text7209"><tspan
         sodipodi:role="line"
         id="tspan7207"
         style="stroke-width:0.264583"
         x="45.853828"
         y="8.6285772"> </tspan></text>
  </g>
</svg>
