<?xml version="1.0" encoding="UTF-8" standalone="no"?>
<!-- Created with Inkscape (http://www.inkscape.org/) -->

<svg
   width="132.386"
   height="40"
   viewBox="0 0 35.027153 10.583334"
   version="1.1"
   id="svg8"
   inkscape:version="1.1 (1:1.1+202105261517+ce6663b3b7)"
   sodipodi:docname="lichess.svg"
   xmlns:inkscape="http://www.inkscape.org/namespaces/inkscape"
   xmlns:sodipodi="http://sodipodi.sourceforge.net/DTD/sodipodi-0.dtd"
   xmlns="http://www.w3.org/2000/svg"
   xmlns:svg="http://www.w3.org/2000/svg"
   xmlns:rdf="http://www.w3.org/1999/02/22-rdf-syntax-ns#"
   xmlns:cc="http://creativecommons.org/ns#"
   xmlns:dc="http://purl.org/dc/elements/1.1/">
  <defs
     id="defs2">
    <rect
       x="45.118309"
       y="189.10129"
       width="233.83926"
       height="29.225491"
       id="rect3603" />
    <rect
       x="45.118309"
       y="189.10129"
       width="571.77429"
       height="241.29497"
       id="rect3603-3" />
  </defs>
  <sodipodi:namedview
     id="base"
     pagecolor="#373746"
     bordercolor="#666666"
     borderopacity="1.0"
     inkscape:pageopacity="0"
     inkscape:pageshadow="2"
     inkscape:zoom="5.9201155"
     inkscape:cx="83.106487"
     inkscape:cy="44.509267"
     inkscape:document-units="mm"
     inkscape:current-layer="text3601"
     showgrid="false"
     inkscape:window-width="1920"
     inkscape:window-height="1080"
     inkscape:window-x="0"
     inkscape:window-y="0"
     inkscape:window-maximized="0"
     inkscape:pagecheckerboard="true"
     height="200.31496px"
     units="px"
     showguides="false" />
  <metadata
     id="metadata5">
    <rdf:RDF>
      <cc:Work
         rdf:about="">
        <dc:format>image/svg+xml</dc:format>
        <dc:type
           rdf:resource="http://purl.org/dc/dcmitype/StillImage" />
      </cc:Work>
    </rdf:RDF>
  </metadata>
  <g
     inkscape:label="Layer 1"
     inkscape:groupmode="layer"
     id="layer1">
    <rect
       style="fill:#69beb8;fill-opacity:1;stroke-width:1.10518;stroke-linecap:round;stroke-linejoin:round;stroke-opacity:0.685945"
       id="rect20849"
       width="35.02713"
       height="10.583333"
       x="0.0019788432"
       y="0.010120142"
       ry="2" />
    <g
       aria-label="LICHESS"
       transform="matrix(0.22936269,0,0,0.22936269,2.3971042,-40.821721)"
       id="text3601"
       style="font-size:23.5871px;line-height:1.25;font-family:Iosevka;-inkscape-font-specification:Iosevka;letter-spacing:0px;word-spacing:0px;white-space:pre;shape-inside:url(#rect3603);fill:#ffffff">
      <path
         d="m 47.24198,210.50039 v -17.33652 h 1.886967 v 15.63825 h 6.557214 v 1.69827 z"
         id="path853" />
      <path
         d="m 59.507226,210.50039 v -1.69827 h 2.35871 v -13.93998 h -2.35871 v -1.69827 h 6.604388 v 1.69827 h -2.35871 v 13.93998 h 2.35871 v 1.69827 z"
         id="path855" />
      <path
         d="m 74.602925,210.68908 q -1.485987,0 -2.52382,-0.61326 -0.943484,-0.5425 -1.509574,-1.48599 -0.636852,-1.13218 -0.636852,-2.68893 v -8.13755 q 0,-1.55675 0.636852,-2.68893 0.56609,-0.94348 1.509574,-1.48598 1.037833,-0.61327 2.52382,-0.61327 1.4624,0 2.523819,0.61327 0.943484,0.5425 1.485988,1.50957 0.471742,0.77838 0.589677,1.72186 l -1.839794,0.33022 q -0.09435,-0.66044 -0.40098,-1.17936 -0.353807,-0.61326 -0.919897,-0.94348 -0.613265,-0.35381 -1.438813,-0.35381 -0.825549,0 -1.438813,0.35381 -0.566091,0.33022 -0.919897,0.9199 -0.424568,0.75478 -0.424568,1.8162 v 8.13755 q 0,1.06142 0.424568,1.81621 0.353806,0.58968 0.919897,0.9199 0.613264,0.3538 1.438813,0.3538 0.825548,0 1.438813,-0.3538 0.56609,-0.33022 0.919897,-0.94349 0.306632,-0.51891 0.40098,-1.17935 l 1.839794,0.33022 q -0.117935,0.94348 -0.589677,1.72185 -0.542504,0.96708 -1.485988,1.50958 -1.061419,0.61326 -2.523819,0.61326 z"
         id="path857" />
      <path
         d="m 81.914883,210.50039 v -17.33652 h 1.886968 v 7.38276 h 5.189161 v -7.38276 h 1.886968 v 17.33652 h -1.886968 v -8.25549 h -5.189161 v 8.25549 z"
         id="path859" />
      <path
         d="m 94.415998,210.50039 v -17.33652 h 8.255482 v 1.69827 h -6.368514 v 5.42503 h 5.024054 v 1.69827 h -5.024054 v 6.81668 h 6.368514 v 1.69827 z"
         id="path861" />
      <path
         d="m 109.91268,210.68908 q -1.55675,0 -2.66535,-0.63685 -0.87272,-0.49533 -1.36805,-1.34446 -0.49533,-0.87273 -0.49533,-1.86338 l 1.86338,-0.25946 q 0,0.11793 0,0.16511 0,0.56609 0.28305,1.06142 0.28304,0.49533 0.82555,0.80196 0.63685,0.37739 1.55675,0.37739 0.84913,0 1.43881,-0.3538 0.5425,-0.30664 0.87272,-0.84914 0.35381,-0.66044 0.35381,-1.41523 0,-0.77837 -0.42457,-1.53316 -0.58968,-1.01424 -2.52382,-2.09925 -2.61817,-1.50957 -3.44372,-2.94839 -0.68402,-1.17935 -0.68402,-2.47664 0,-1.25012 0.58968,-2.28795 0.5425,-0.9199 1.4624,-1.43881 1.03783,-0.61327 2.50023,-0.61327 1.55675,0 2.66534,0.63685 0.87272,0.49533 1.36805,1.36806 0.49533,0.84913 0.49533,1.83979 l -1.86338,0.25946 q 0,-0.11794 0,-0.16511 0,-0.56609 -0.28304,-1.06142 -0.28305,-0.49533 -0.82555,-0.80196 -0.63685,-0.3774 -1.55675,-0.3774 -0.84914,0 -1.43881,0.35381 -0.54251,0.30663 -0.87273,0.84914 -0.3538,0.66043 -0.3538,1.43881 0,0.75479 0.42456,1.50957 0.58968,1.01425 2.52382,2.09925 2.61817,1.50958 3.44372,2.94839 0.68403,1.17936 0.68403,2.47665 0,1.25011 -0.58968,2.28795 -0.5425,0.91989 -1.4624,1.43881 -1.03783,0.61326 -2.50023,0.61326 z"
         id="path863" />
      <path
         d="m 121.70619,210.68908 q -1.55675,0 -2.66535,-0.63685 -0.87272,-0.49533 -1.36805,-1.34446 -0.49533,-0.87273 -0.49533,-1.86338 l 1.86338,-0.25946 q 0,0.11793 0,0.16511 0,0.56609 0.28305,1.06142 0.28304,0.49533 0.82555,0.80196 0.63685,0.37739 1.55675,0.37739 0.84913,0 1.43881,-0.3538 0.5425,-0.30664 0.87272,-0.84914 0.35381,-0.66044 0.35381,-1.41523 0,-0.77837 -0.42457,-1.53316 -0.58968,-1.01424 -2.52382,-2.09925 -2.61817,-1.50957 -3.44372,-2.94839 -0.68402,-1.17935 -0.68402,-2.47664 0,-1.25012 0.58968,-2.28795 0.5425,-0.9199 1.4624,-1.43881 1.03783,-0.61327 2.50023,-0.61327 1.55675,0 2.66534,0.63685 0.87272,0.49533 1.36805,1.36806 0.49533,0.84913 0.49533,1.83979 l -1.86338,0.25946 q 0,-0.11794 0,-0.16511 0,-0.56609 -0.28304,-1.06142 -0.28305,-0.49533 -0.82555,-0.80196 -0.63685,-0.3774 -1.55675,-0.3774 -0.84914,0 -1.43881,0.35381 -0.54251,0.30663 -0.87273,0.84914 -0.3538,0.66043 -0.3538,1.43881 0,0.75479 0.42456,1.50957 0.58968,1.01425 2.52382,2.09925 2.61817,1.50958 3.44372,2.94839 0.68403,1.17936 0.68403,2.47665 0,1.25011 -0.58968,2.28795 -0.5425,0.91989 -1.4624,1.43881 -1.03783,0.61326 -2.50023,0.61326 z"
         id="path865" />
    </g>
    <text
       xml:space="preserve"
       style="font-style:normal;font-variant:normal;font-weight:normal;font-stretch:normal;font-size:10.5833px;line-height:1.25;font-family:Iosevka;-inkscape-font-specification:Iosevka;letter-spacing:0px;word-spacing:0px;fill:#000000;fill-opacity:1;stroke:none;stroke-width:0.264583"
       x="213.61301"
       y="417.90695"
       id="text12650"><tspan
         sodipodi:role="line"
         id="tspan12648"
         style="stroke-width:0.264583"
         x="213.61301"
         y="417.90695"> </tspan></text>
    <text
       xml:space="preserve"
       style="font-style:normal;font-variant:normal;font-weight:normal;font-stretch:normal;font-size:10.5833px;line-height:1.25;font-family:Iosevka;-inkscape-font-specification:Iosevka;letter-spacing:0px;word-spacing:0px;fill:#000000;fill-opacity:1;stroke:none;stroke-width:0.264583"
       x="99.899643"
       y="70.990974"
       id="text19668"><tspan
         sodipodi:role="line"
         id="tspan19666"
         style="stroke-width:0.264583"
         x="99.899643"
         y="70.990974" /></text>
    <g
       id="g14"
       transform="matrix(0.26458333,0,0,0.26458333,-7.1665632,-4.4061614)" />
    <g
       id="g16"
       transform="matrix(0.26458333,0,0,0.26458333,-7.1665632,-4.4061614)" />
    <g
       id="g18"
       transform="matrix(0.26458333,0,0,0.26458333,-7.1665632,-4.4061614)" />
    <g
       id="g20"
       transform="matrix(0.26458333,0,0,0.26458333,-7.1665632,-4.4061614)" />
    <g
       id="g22"
       transform="matrix(0.26458333,0,0,0.26458333,-7.1665632,-4.4061614)" />
    <g
       id="g24"
       transform="matrix(0.26458333,0,0,0.26458333,-7.1665632,-4.4061614)" />
    <g
       id="g26"
       transform="matrix(0.26458333,0,0,0.26458333,-7.1665632,-4.4061614)" />
    <g
       id="g28"
       transform="matrix(0.26458333,0,0,0.26458333,-7.1665632,-4.4061614)" />
    <g
       id="g30"
       transform="matrix(0.26458333,0,0,0.26458333,-7.1665632,-4.4061614)" />
    <g
       id="g32"
       transform="matrix(0.26458333,0,0,0.26458333,-7.1665632,-4.4061614)" />
    <g
       id="g34"
       transform="matrix(0.26458333,0,0,0.26458333,-7.1665632,-4.4061614)" />
    <g
       id="g36"
       transform="matrix(0.26458333,0,0,0.26458333,-7.1665632,-4.4061614)" />
    <g
       id="g38"
       transform="matrix(0.26458333,0,0,0.26458333,-7.1665632,-4.4061614)" />
    <g
       id="g40"
       transform="matrix(0.26458333,0,0,0.26458333,-7.1665632,-4.4061614)" />
    <g
       id="g42"
       transform="matrix(0.26458333,0,0,0.26458333,-7.1665632,-4.4061614)" />
    <text
       xml:space="preserve"
       style="font-style:normal;font-variant:normal;font-weight:normal;font-stretch:normal;font-size:10.5833px;line-height:1.25;font-family:Iosevka;-inkscape-font-specification:Iosevka;letter-spacing:0px;word-spacing:0px;fill:#000000;fill-opacity:1;stroke:none;stroke-width:0.264583"
       x="45.853828"
       y="8.6285772"
       id="text7209"><tspan
         sodipodi:role="line"
         id="tspan7207"
         style="stroke-width:0.264583"
         x="45.853828"
         y="8.6285772"> </tspan></text>
    <text
       xml:space="preserve"
       style="font-style:normal;font-variant:normal;font-weight:normal;font-stretch:normal;font-size:10.5833px;line-height:1.25;font-family:Iosevka;-inkscape-font-specification:Iosevka;letter-spacing:0px;word-spacing:0px;fill:#000000;fill-opacity:1;stroke:none;stroke-width:0.264583"
       x="41.890079"
       y="30.934006"
       id="text3216"><tspan
         sodipodi:role="line"
         id="tspan3214"
         style="stroke-width:0.264583"
         x="41.890079"
         y="30.934006"> </tspan></text>
    <path
       d="m 5.9593989,3.5600491 a 0.06270625,0.06270625 0 0 0 -0.07832,0.04366 c -0.211666,0.736865 0.745861,1.476111 1.379538,1.965325 0.172773,0.13335 0.321733,0.248444 0.420952,0.341842 0.461698,0.434446 0.678391,0.754327 0.723106,0.840846 a 0.0635,0.0635 0 0 0 0.07276,0.03228 c 0.01244,-0.0034 1.250421,-0.343959 1.040871,-1.210204 a 0.06799792,0.06799792 0 0 0 -0.0061,-0.01588 l -1.503098,-2.726532 0.192087,-0.823383 a 0.0635,0.0635 0 0 0 -0.06932,-0.07752 c -0.449792,0.05318 -0.824177,0.115094 -1.190625,0.377031 -1.281642,-0.08546 -2.306638,0.238125 -2.966773,0.936361 -0.693473,0.73316 -0.846931,1.732756 -0.759354,2.424112 0.201877,1.496219 1.373452,2.283619 2.402681,2.522009 0.262731,0.06059 0.522287,0.08996 0.773377,0.08996 0.884767,0 1.666081,-0.36539 2.102379,-1.018646 a 0.0635,0.0635 0 0 0 -0.09842,-0.07937 c -0.902494,0.933186 -2.381779,1.093788 -3.5179,0.382058 -1.186656,-0.743479 -1.640946,-2.225145 -1.034521,-3.373172 0.604309,-1.144059 1.678517,-1.635919 3.024452,-1.385094 0.01482,0.0026 0.03043,0 0.04366,-0.0077 l 0.08864,-0.05212 c 0.245004,-0.144463 0.518848,-0.306123 0.760148,-0.338402 l -0.183621,0.527314 a 0.06429375,0.06429375 0 0 0 0.0053,0.05345 l 1.609196,2.696634 c -0.05107,0.536575 -0.45138,0.663045 -0.588963,0.690827 -0.07594,-0.170657 -0.215371,-0.360892 -0.610129,-0.741627 -0.111654,-0.107686 -0.320146,-0.248973 -0.561975,-0.41275 -0.625475,-0.423598 -1.570831,-1.063625 -1.426369,-1.583267 a 0.06323542,0.06323542 0 0 0 -0.04366,-0.07805 z"
       id="path2"
       style="stroke-width:0.264583;fill:#ffffff" />
    <text
       xml:space="preserve"
       style="font-style:normal;font-variant:normal;font-weight:normal;font-stretch:normal;font-size:10.5833px;line-height:1.25;font-family:Iosevka;-inkscape-font-specification:Iosevka;letter-spacing:0px;word-spacing:0px;fill:#000000;fill-opacity:1;stroke:none;stroke-width:0.264583"
       x="17.682642"
       y="14.817046"
       id="text1773"><tspan
         sodipodi:role="line"
         id="tspan1771"
         style="stroke-width:0.264583"
         x="17.682642"
         y="14.817046"> </tspan></text>
  </g>
</svg>
