<?xml version="1.0" encoding="UTF-8" standalone="no"?>
<!-- Created with Inkscape (http://www.inkscape.org/) -->

<svg
   width="132.386"
   height="40"
   viewBox="0 0 35.027153 10.583334"
   version="1.1"
   id="svg8"
   inkscape:version="1.1 (1:1.1+202105261517+ce6663b3b7)"
   sodipodi:docname="lichess.svg"
   xmlns:inkscape="http://www.inkscape.org/namespaces/inkscape"
   xmlns:sodipodi="http://sodipodi.sourceforge.net/DTD/sodipodi-0.dtd"
   xmlns="http://www.w3.org/2000/svg"
   xmlns:svg="http://www.w3.org/2000/svg"
   xmlns:rdf="http://www.w3.org/1999/02/22-rdf-syntax-ns#"
   xmlns:cc="http://creativecommons.org/ns#"
   xmlns:dc="http://purl.org/dc/elements/1.1/">
  <defs
     id="defs2">
    <rect
       x="45.118309"
       y="189.10129"
       width="233.83926"
       height="29.225491"
       id="rect3603" />
    <rect
       x="45.118309"
       y="189.10129"
       width="571.77429"
       height="241.29497"
       id="rect3603-3" />
  </defs>
  <sodipodi:namedview
     id="base"
     pagecolor="#373746"
     bordercolor="#666666"
     borderopacity="1.0"
     inkscape:pageopacity="0"
     inkscape:pageshadow="2"
     inkscape:zoom="5.9201155"
     inkscape:cx="83.106486"
     inkscape:cy="44.424809"
     inkscape:document-units="mm"
     inkscape:current-layer="layer1"
     showgrid="false"
     inkscape:window-width="1920"
     inkscape:window-height="1046"
     inkscape:window-x="0"
     inkscape:window-y="34"
     inkscape:window-maximized="0"
     inkscape:pagecheckerboard="true"
     height="200.31496px"
     units="px"
     showguides="false" />
  <metadata
     id="metadata5">
    <rdf:RDF>
      <cc:Work
         rdf:about="">
        <dc:format>image/svg+xml</dc:format>
        <dc:type
           rdf:resource="http://purl.org/dc/dcmitype/StillImage" />
      </cc:Work>
    </rdf:RDF>
  </metadata>
  <g
     inkscape:label="Layer 1"
     inkscape:groupmode="layer"
     id="layer1">
    <rect
       style="fill:#69beb8;fill-opacity:1;stroke-width:1.10518;stroke-linecap:round;stroke-linejoin:round;stroke-opacity:0.685945"
       id="rect20849"
       width="35.02713"
       height="10.583333"
       x="0.0019788432"
       y="0.010120142"
       ry="2" />
    <text
       xml:space="preserve"
       transform="matrix(0.22936269,0,0,0.22936269,2.3971042,-40.821721)"
       id="text3601"
       style="font-style:normal;font-variant:normal;font-weight:normal;font-stretch:normal;font-size:23.5871px;line-height:1.25;font-family:Iosevka;-inkscape-font-specification:Iosevka;letter-spacing:0px;word-spacing:0px;white-space:pre;shape-inside:url(#rect3603);fill:#ffffff;fill-opacity:1;stroke:none"><tspan
         x="45.119141"
         y="210.50039"
         id="tspan4219">LICHESS</tspan></text>
    <text
       xml:space="preserve"
       style="font-style:normal;font-variant:normal;font-weight:normal;font-stretch:normal;font-size:10.5833px;line-height:1.25;font-family:Iosevka;-inkscape-font-specification:Iosevka;letter-spacing:0px;word-spacing:0px;fill:#000000;fill-opacity:1;stroke:none;stroke-width:0.264583"
       x="213.61301"
       y="417.90695"
       id="text12650"><tspan
         sodipodi:role="line"
         id="tspan12648"
         style="stroke-width:0.264583"
         x="213.61301"
         y="417.90695"> </tspan></text>
    <text
       xml:space="preserve"
       style="font-style:normal;font-variant:normal;font-weight:normal;font-stretch:normal;font-size:10.5833px;line-height:1.25;font-family:Iosevka;-inkscape-font-specification:Iosevka;letter-spacing:0px;word-spacing:0px;fill:#000000;fill-opacity:1;stroke:none;stroke-width:0.264583"
       x="99.899643"
       y="70.990974"
       id="text19668"><tspan
         sodipodi:role="line"
         id="tspan19666"
         style="stroke-width:0.264583"
         x="99.899643"
         y="70.990974" /></text>
    <g
       id="g14"
       transform="matrix(0.26458333,0,0,0.26458333,-7.1665632,-4.4061614)" />
    <g
       id="g16"
       transform="matrix(0.26458333,0,0,0.26458333,-7.1665632,-4.4061614)" />
    <g
       id="g18"
       transform="matrix(0.26458333,0,0,0.26458333,-7.1665632,-4.4061614)" />
    <g
       id="g20"
       transform="matrix(0.26458333,0,0,0.26458333,-7.1665632,-4.4061614)" />
    <g
       id="g22"
       transform="matrix(0.26458333,0,0,0.26458333,-7.1665632,-4.4061614)" />
    <g
       id="g24"
       transform="matrix(0.26458333,0,0,0.26458333,-7.1665632,-4.4061614)" />
    <g
       id="g26"
       transform="matrix(0.26458333,0,0,0.26458333,-7.1665632,-4.4061614)" />
    <g
       id="g28"
       transform="matrix(0.26458333,0,0,0.26458333,-7.1665632,-4.4061614)" />
    <g
       id="g30"
       transform="matrix(0.26458333,0,0,0.26458333,-7.1665632,-4.4061614)" />
    <g
       id="g32"
       transform="matrix(0.26458333,0,0,0.26458333,-7.1665632,-4.4061614)" />
    <g
       id="g34"
       transform="matrix(0.26458333,0,0,0.26458333,-7.1665632,-4.4061614)" />
    <g
       id="g36"
       transform="matrix(0.26458333,0,0,0.26458333,-7.1665632,-4.4061614)" />
    <g
       id="g38"
       transform="matrix(0.26458333,0,0,0.26458333,-7.1665632,-4.4061614)" />
    <g
       id="g40"
       transform="matrix(0.26458333,0,0,0.26458333,-7.1665632,-4.4061614)" />
    <g
       id="g42"
       transform="matrix(0.26458333,0,0,0.26458333,-7.1665632,-4.4061614)" />
    <text
       xml:space="preserve"
       style="font-style:normal;font-variant:normal;font-weight:normal;font-stretch:normal;font-size:10.5833px;line-height:1.25;font-family:Iosevka;-inkscape-font-specification:Iosevka;letter-spacing:0px;word-spacing:0px;fill:#000000;fill-opacity:1;stroke:none;stroke-width:0.264583"
       x="45.853828"
       y="8.6285772"
       id="text7209"><tspan
         sodipodi:role="line"
         id="tspan7207"
         style="stroke-width:0.264583"
         x="45.853828"
         y="8.6285772"> </tspan></text>
    <text
       xml:space="preserve"
       style="font-style:normal;font-variant:normal;font-weight:normal;font-stretch:normal;font-size:10.5833px;line-height:1.25;font-family:Iosevka;-inkscape-font-specification:Iosevka;letter-spacing:0px;word-spacing:0px;fill:#000000;fill-opacity:1;stroke:none;stroke-width:0.264583"
       x="41.890079"
       y="30.934006"
       id="text3216"><tspan
         sodipodi:role="line"
         id="tspan3214"
         style="stroke-width:0.264583"
         x="41.890079"
         y="30.934006"> </tspan></text>
    <path
       d="m 5.9593989,3.5600491 a 0.06270625,0.06270625 0 0 0 -0.07832,0.04366 c -0.211666,0.736865 0.745861,1.476111 1.379538,1.965325 0.172773,0.13335 0.321733,0.248444 0.420952,0.341842 0.461698,0.434446 0.678391,0.754327 0.723106,0.840846 a 0.0635,0.0635 0 0 0 0.07276,0.03228 c 0.01244,-0.0034 1.250421,-0.343959 1.040871,-1.210204 a 0.06799792,0.06799792 0 0 0 -0.0061,-0.01588 l -1.503098,-2.726532 0.192087,-0.823383 a 0.0635,0.0635 0 0 0 -0.06932,-0.07752 c -0.449792,0.05318 -0.824177,0.115094 -1.190625,0.377031 -1.281642,-0.08546 -2.306638,0.238125 -2.966773,0.936361 -0.693473,0.73316 -0.846931,1.732756 -0.759354,2.424112 0.201877,1.496219 1.373452,2.283619 2.402681,2.522009 0.262731,0.06059 0.522287,0.08996 0.773377,0.08996 0.884767,0 1.666081,-0.36539 2.102379,-1.018646 a 0.0635,0.0635 0 0 0 -0.09842,-0.07937 c -0.902494,0.933186 -2.381779,1.093788 -3.5179,0.382058 -1.186656,-0.743479 -1.640946,-2.225145 -1.034521,-3.373172 0.604309,-1.144059 1.678517,-1.635919 3.024452,-1.385094 0.01482,0.0026 0.03043,0 0.04366,-0.0077 l 0.08864,-0.05212 c 0.245004,-0.144463 0.518848,-0.306123 0.760148,-0.338402 l -0.183621,0.527314 a 0.06429375,0.06429375 0 0 0 0.0053,0.05345 l 1.609196,2.696634 c -0.05107,0.536575 -0.45138,0.663045 -0.588963,0.690827 -0.07594,-0.170657 -0.215371,-0.360892 -0.610129,-0.741627 -0.111654,-0.107686 -0.320146,-0.248973 -0.561975,-0.41275 -0.625475,-0.423598 -1.570831,-1.063625 -1.426369,-1.583267 a 0.06323542,0.06323542 0 0 0 -0.04366,-0.07805 z"
       id="path2"
       style="stroke-width:0.264583;fill:#ffffff" />
    <text
       xml:space="preserve"
       style="font-style:normal;font-variant:normal;font-weight:normal;font-stretch:normal;font-size:10.5833px;line-height:1.25;font-family:Iosevka;-inkscape-font-specification:Iosevka;letter-spacing:0px;word-spacing:0px;fill:#000000;fill-opacity:1;stroke:none;stroke-width:0.264583"
       x="17.682642"
       y="14.817046"
       id="text1773"><tspan
         sodipodi:role="line"
         id="tspan1771"
         style="stroke-width:0.264583"
         x="17.682642"
         y="14.817046"> </tspan></text>
  </g>
</svg>
