<?xml version="1.0" encoding="UTF-8" standalone="no"?>
<!-- Created with Inkscape (http://www.inkscape.org/) -->

<svg
   width="228.629"
   height="40"
   viewBox="0 0 60.491509 10.583334"
   version="1.1"
   id="svg8"
   inkscape:version="1.1 (1:1.1+202105261517+ce6663b3b7)"
   sodipodi:docname="linux.svg"
   xmlns:inkscape="http://www.inkscape.org/namespaces/inkscape"
   xmlns:sodipodi="http://sodipodi.sourceforge.net/DTD/sodipodi-0.dtd"
   xmlns="http://www.w3.org/2000/svg"
   xmlns:svg="http://www.w3.org/2000/svg"
   xmlns:rdf="http://www.w3.org/1999/02/22-rdf-syntax-ns#"
   xmlns:cc="http://creativecommons.org/ns#"
   xmlns:dc="http://purl.org/dc/elements/1.1/">
  <defs
     id="defs2">
    <rect
       x="45.118309"
       y="189.10129"
       width="233.83926"
       height="29.225491"
       id="rect3603" />
    <rect
       x="45.118309"
       y="189.10129"
       width="571.77429"
       height="241.29497"
       id="rect3603-3" />
    <rect
       x="45.118309"
       y="189.10129"
       width="233.83926"
       height="29.225491"
       id="rect3603-36" />
  </defs>
  <sodipodi:namedview
     id="base"
     pagecolor="#373746"
     bordercolor="#666666"
     borderopacity="1.0"
     inkscape:pageopacity="0"
     inkscape:pageshadow="2"
     inkscape:zoom="3.1441495"
     inkscape:cx="154.25475"
     inkscape:cy="5.247842"
     inkscape:document-units="mm"
     inkscape:current-layer="layer1"
     showgrid="false"
     inkscape:window-width="1920"
     inkscape:window-height="1046"
     inkscape:window-x="0"
     inkscape:window-y="34"
     inkscape:window-maximized="0"
     inkscape:pagecheckerboard="true"
     height="200.31496px"
     units="px"
     showguides="false" />
  <metadata
     id="metadata5">
    <rdf:RDF>
      <cc:Work
         rdf:about="">
        <dc:format>image/svg+xml</dc:format>
        <dc:type
           rdf:resource="http://purl.org/dc/dcmitype/StillImage" />
      </cc:Work>
    </rdf:RDF>
  </metadata>
  <g
     inkscape:label="Layer 1"
     inkscape:groupmode="layer"
     id="layer1">
    <rect
       style="fill:#bf616a;fill-opacity:1;stroke-width:1.45233;stroke-linecap:round;stroke-linejoin:round;stroke-opacity:0.685945"
       id="rect20849"
       width="60.489105"
       height="10.583333"
       x="0.0019788432"
       y="0.010120142"
       ry="2" />
    <text
       xml:space="preserve"
       transform="matrix(0.22936269,0,0,0.22936269,-6.5987295,-40.821721)"
       id="text3601"
       style="font-style:normal;font-variant:normal;font-weight:normal;font-stretch:normal;font-size:23.5871px;line-height:1.25;font-family:Iosevka;-inkscape-font-specification:Iosevka;letter-spacing:0px;word-spacing:0px;white-space:pre;shape-inside:url(#rect3603);fill:#ffffff;fill-opacity:1;stroke:none"><tspan
         x="45.119141"
         y="210.50039"
         id="tspan6433">I'm a </tspan></text>
    <text
       xml:space="preserve"
       transform="matrix(0.22936269,0,0,0.22936269,16.755929,-40.68461)"
       id="text3601-7"
       style="font-style:normal;font-variant:normal;font-weight:normal;font-stretch:normal;font-size:23.5871px;line-height:1.25;font-family:Iosevka;-inkscape-font-specification:Iosevka;letter-spacing:0px;word-spacing:0px;white-space:pre;shape-inside:url(#rect3603-36);fill:#ffffff;fill-opacity:1;stroke:none"><tspan
         x="45.119141"
         y="210.50039"
         id="tspan6435">linux user.</tspan></text>
    <path
       d="m 22.358398,2.1803236 c -0.04101,0 -0.08334,0.0021 -0.126735,0.0056 -1.118394,0.08811 -0.821796,1.2718517 -0.838729,1.6663457 -0.02037,0.28919 -0.07937,0.516996 -0.278077,0.799306 -0.234157,0.278077 -0.562769,0.727604 -0.718609,1.196182 -0.07355,0.220133 -0.108479,0.445558 -0.07594,0.658547 -0.01032,0.009 -0.02011,0.01799 -0.02937,0.03572 -0.06879,0.07091 -0.118798,0.159015 -0.175154,0.221986 -0.05265,0.05265 -0.128323,0.07064 -0.210873,0.105833 -0.08281,0.03598 -0.174096,0.07117 -0.2286,0.180181 -0.02381,0.04974 -0.03598,0.103981 -0.03493,0.159015 0,0.05265 0.0071,0.106098 0.01455,0.141816 0.01535,0.105569 0.03069,0.192882 0.01032,0.256646 -0.06562,0.179917 -0.07382,0.303213 -0.02778,0.392907 0.04604,0.08837 0.141552,0.124089 0.248443,0.159014 0.214578,0.05292 0.505355,0.03572 0.734219,0.158486 0.245004,0.12356 0.493713,0.177535 0.69215,0.124354 0.139171,-0.03043 0.256646,-0.122502 0.319617,-0.250032 0.15531,-7.93e-4 0.325437,-0.07117 0.597958,-0.08837 0.184944,-0.01535 0.416454,0.07064 0.682096,0.05265 0.0066,0.03572 0.01667,0.05265 0.03016,0.08837 l 7.93e-4,7.93e-4 c 0.103452,0.205846 0.294482,0.299509 0.498475,0.283369 0.203994,-0.01587 0.421217,-0.141817 0.597165,-0.345546 0.166952,-0.202406 0.445294,-0.286808 0.629179,-0.397669 0.09207,-0.05265 0.166423,-0.124089 0.171715,-0.225689 0.0061,-0.105833 -0.05265,-0.214842 -0.188913,-0.364331 v -0.02567 l -7.94e-4,-7.94e-4 c -0.04498,-0.05292 -0.06615,-0.141552 -0.08943,-0.245004 -0.02249,-0.106098 -0.04815,-0.207962 -0.130175,-0.276754 h -7.94e-4 c -0.01561,-0.01429 -0.03254,-0.01773 -0.04974,-0.03572 -0.01482,-0.01005 -0.03202,-0.0164 -0.05027,-0.01693 0.114035,-0.338138 0.06985,-0.674688 -0.04577,-0.977371 -0.141023,-0.373062 -0.387615,-0.697971 -0.575469,-0.921544 -0.210608,-0.265906 -0.416983,-0.517789 -0.413014,-0.891381 0.0071,-0.569383 0.06271,-1.6226897 -0.937684,-1.6242767 z m 0.139965,0.9009057 h 0.0034 c 0.05636,0 0.104775,0.0164 0.154516,0.05239 0.05054,0.03572 0.08731,0.08784 0.116152,0.141023 0.02778,0.06853 0.0418,0.121443 0.04392,0.191558 0,-0.0053 0.0016,-0.01058 0.0016,-0.01561 v 0.02752 c -5.3e-4,-0.0019 -0.0011,-0.004 -0.0011,-0.0056 l -0.0011,-0.0063 c -5.29e-4,0.06429 -0.01402,0.127794 -0.03969,0.186796 -0.01243,0.03307 -0.03149,0.0635 -0.05636,0.08864 -0.0077,-0.0042 -0.01508,-0.0079 -0.02328,-0.01111 -0.02778,-0.01191 -0.05265,-0.01693 -0.07541,-0.03519 -0.01879,-0.0074 -0.03836,-0.01349 -0.05794,-0.01746 0.01296,-0.01561 0.03836,-0.03519 0.04815,-0.05239 0.01402,-0.03387 0.0217,-0.06985 0.02328,-0.106362 v -0.005 c 5.3e-4,-0.03572 -0.0048,-0.0717 -0.01614,-0.105834 -0.01191,-0.03572 -0.02672,-0.05318 -0.04842,-0.08837 -0.02223,-0.01746 -0.04419,-0.03493 -0.07064,-0.03493 h -0.0042 c -0.02461,0 -0.04657,0.0079 -0.06932,0.03493 -0.02514,0.02487 -0.04392,0.05477 -0.05424,0.08837 -0.01402,0.0336 -0.02222,0.06985 -0.02381,0.105834 v 0.005 c 5.29e-4,0.02355 0.0021,0.04736 0.0053,0.07064 -0.05106,-0.01773 -0.115888,-0.03572 -0.160602,-0.05344 -0.0026,-0.0172 -0.0042,-0.03492 -0.0048,-0.05265 v -0.0053 c -0.0021,-0.06985 0.01138,-0.139171 0.03969,-0.203465 0.02169,-0.05794 0.06138,-0.107421 0.11377,-0.141023 0.04524,-0.03413 0.100278,-0.05265 0.157163,-0.05265 z m -0.783696,0.01561 h 0.0095 c 0.03757,0 0.07144,0.0127 0.105569,0.03572 0.03863,0.03413 0.06985,0.0762 0.09102,0.123032 0.02381,0.05265 0.03731,0.106098 0.04048,0.176477 v 0.0011 c 0.0019,0.03545 0.0016,0.05318 -5.29e-4,0.07038 v 0.02117 c -0.0079,0.0019 -0.01482,0.0048 -0.02196,0.0064 -0.04022,0.01455 -0.0725,0.03572 -0.103981,0.05292 0.0032,-0.02355 0.0034,-0.04736 7.94e-4,-0.07064 v -0.004 c -0.0032,-0.03519 -0.01032,-0.05265 -0.0217,-0.08811 -0.0082,-0.02699 -0.02328,-0.05107 -0.04392,-0.07064 -0.01297,-0.01191 -0.03043,-0.01799 -0.04842,-0.01693 h -0.0056 c -0.01878,0.0016 -0.0344,0.01085 -0.04921,0.03493 -0.01693,0.02037 -0.02778,0.04524 -0.03175,0.07144 -0.0071,0.02858 -0.0093,0.05794 -0.0061,0.08758 v 0.0037 c 0.0032,0.03572 0.0098,0.05318 0.02143,0.08837 0.01191,0.03545 0.02567,0.05292 0.04366,0.07091 0.0029,0.0024 0.0056,0.0048 0.009,0.0064 -0.01852,0.01508 -0.03096,0.01852 -0.04657,0.03598 -0.0098,0.0074 -0.02117,0.01587 -0.03466,0.01799 -0.02752,-0.03307 -0.05186,-0.06879 -0.07276,-0.106363 -0.0254,-0.05556 -0.03863,-0.115887 -0.04101,-0.176477 -0.0045,-0.0598 0.0029,-0.119592 0.02117,-0.176742 0.01455,-0.05212 0.04022,-0.100277 0.07488,-0.141552 0.03387,-0.03519 0.06879,-0.05292 0.110596,-0.05292 z m 0.362744,0.451379 c 0.08758,0 0.193675,0.0172 0.321469,0.105569 0.07752,0.05292 0.138377,0.07117 0.278606,0.123825 h 7.94e-4 c 0.06747,0.03598 0.107156,0.07038 0.12647,0.105568 v -0.03466 c 0.01931,0.03889 0.02064,0.08414 0.0042,0.124354 -0.03254,0.08228 -0.136525,0.170392 -0.281517,0.223044 v 5.29e-4 c -0.07091,0.03572 -0.132556,0.08811 -0.205052,0.123031 -0.07303,0.03572 -0.155575,0.07726 -0.267758,0.07064 -0.04022,0.0021 -0.0807,-0.004 -0.118534,-0.01773 -0.0291,-0.01588 -0.05768,-0.03334 -0.08519,-0.05239 -0.05159,-0.03572 -0.09604,-0.08784 -0.161925,-0.123031 v -0.0013 h -0.0013 c -0.105834,-0.06509 -0.162984,-0.135466 -0.181505,-0.188119 -0.01826,-0.07091 -0.0013,-0.124089 0.05106,-0.15875 0.05927,-0.03572 0.100542,-0.0717 0.127794,-0.0889 0.02752,-0.01958 0.03784,-0.02699 0.04657,-0.03466 h 5.3e-4 v -7.94e-4 c 0.04471,-0.05345 0.115358,-0.124089 0.221985,-0.159014 0.03678,-0.0095 0.07779,-0.0172 0.123296,-0.0172 z m 0.740569,0.567002 c 0.09499,0.374914 0.316706,0.919427 0.459316,1.183481 0.07567,0.141288 0.226219,0.438944 0.291571,0.8001 0.04127,-0.0013 0.08705,0.0048 0.135731,0.01693 0.170921,-0.442118 -0.144462,-0.91731 -0.288131,-1.049337 -0.05847,-0.05318 -0.06138,-0.08864 -0.03254,-0.08864 0.15584,0.141287 0.361157,0.415925 0.435505,0.729456 0.03413,0.141552 0.04207,0.2921 0.0056,0.441854 0.01773,0.0074 0.03572,0.01614 0.05424,0.01773 0.27305,0.141288 0.373857,0.248179 0.325438,0.406665 v -0.01138 c -0.01614,-7.94e-4 -0.03175,0 -0.04789,0 h -0.004 c 0.03995,-0.123561 -0.04815,-0.218282 -0.281782,-0.32385 -0.242093,-0.105834 -0.435504,-0.0889 -0.468577,0.123031 -0.0019,0.01138 -0.0032,0.01746 -0.0045,0.03572 -0.01799,0.0061 -0.03678,0.01402 -0.0553,0.01693 -0.11377,0.07091 -0.175154,0.177006 -0.209814,0.31406 -0.0344,0.141023 -0.04498,0.305859 -0.05424,0.494507 v 7.93e-4 c -0.0056,0.08837 -0.04524,0.221721 -0.0844,0.357452 -0.396875,0.283634 -0.947208,0.40693 -1.415256,0.08837 -0.02937,-0.05106 -0.06509,-0.09895 -0.106363,-0.141023 -0.01958,-0.03307 -0.04445,-0.06271 -0.07276,-0.08837 0.04815,0 0.08943,-0.0077 0.123031,-0.01773 0.03836,-0.01773 0.068,-0.04974 0.08308,-0.08837 0.02858,-0.07064 0,-0.184415 -0.09128,-0.307711 -0.09128,-0.12356 -0.246327,-0.26326 -0.473075,-0.402431 -0.166687,-0.105569 -0.260879,-0.230188 -0.304271,-0.369358 -0.04366,-0.141288 -0.03784,-0.287073 -0.004,-0.43524 0.06482,-0.283104 0.230981,-0.558271 0.337079,-0.731044 0.02831,-0.0172 0.0098,0.03572 -0.10795,0.257704 -0.104775,0.198702 -0.30189,0.660665 -0.03228,1.019705 0.01005,-0.261673 0.06826,-0.519907 0.171185,-0.760942 0.149225,-0.338138 0.461169,-0.9271 0.485775,-1.393825 0.0127,0.0095 0.05741,0.03572 0.07646,0.05345 0.05768,0.03519 0.100541,0.08811 0.156104,0.123031 0.05583,0.05318 0.126206,0.08864 0.231775,0.08864 0.01032,7.94e-4 0.01984,0.0016 0.02937,0.0016 0.108744,0 0.192882,-0.03545 0.263525,-0.07091 0.07673,-0.03546 0.137848,-0.08837 0.195792,-0.105834 h 0.0013 c 0.12356,-0.03572 0.221192,-0.106362 0.27649,-0.185208 z m 0.578379,2.370137 c 0.0098,0.159015 0.09075,0.329407 0.233362,0.364332 0.155575,0.03545 0.379413,-0.08811 0.473869,-0.202407 l 0.05583,-0.0024 c 0.08334,-0.0021 0.152665,0.0026 0.224102,0.07064 l 7.94e-4,7.94e-4 c 0.05503,0.05265 0.0807,0.140493 0.103452,0.231775 0.02249,0.106098 0.04075,0.206375 0.108215,0.282045 0.128587,0.139436 0.170656,0.239713 0.168275,0.301625 l 7.93e-4,-0.0016 v 0.0048 l -7.93e-4,-0.0032 c -0.004,0.06932 -0.04895,0.104775 -0.131763,0.157428 -0.166687,0.106097 -0.461962,0.188383 -0.650081,0.415395 -0.163513,0.194998 -0.362744,0.301361 -0.538692,0.315119 -0.175683,0.01402 -0.327289,-0.05292 -0.416454,-0.237596 l -0.0013,-7.93e-4 c -0.05556,-0.106098 -0.03175,-0.271198 0.01482,-0.447146 0.04657,-0.176742 0.113241,-0.355865 0.122502,-0.502179 0.0098,-0.188913 0.02011,-0.353219 0.05159,-0.479955 0.03175,-0.123031 0.08149,-0.210873 0.169598,-0.26035 l 0.01191,-0.0058 z m -2.861469,0.01296 h 0.0026 c 0.01402,0 0.02778,0.0013 0.04154,0.0037 0.09948,0.01455 0.186796,0.08811 0.270669,0.198967 l 0.240771,0.440266 7.94e-4,7.94e-4 c 0.06429,0.141023 0.199496,0.281517 0.314589,0.433388 0.11483,0.158221 0.20373,0.299243 0.192882,0.415396 v 0.0016 c -0.01508,0.19685 -0.126736,0.303742 -0.297657,0.342371 -0.170656,0.03572 -0.402166,5.29e-4 -0.633677,-0.122767 -0.256116,-0.141816 -0.560387,-0.124089 -0.755914,-0.159279 -0.09763,-0.01746 -0.161661,-0.05318 -0.191294,-0.106098 -0.02937,-0.05265 -0.0299,-0.159014 0.03254,-0.325437 v -7.94e-4 l 5.29e-4,-7.94e-4 c 0.03096,-0.08837 0.0079,-0.199231 -0.0071,-0.296069 -0.01455,-0.106098 -0.02196,-0.187589 0.01138,-0.248708 0.04233,-0.08837 0.104775,-0.105569 0.182298,-0.141023 0.07805,-0.03572 0.169598,-0.05345 0.242358,-0.124089 h 5.3e-4 v -7.94e-4 c 0.06773,-0.07091 0.117739,-0.159015 0.176741,-0.221721 0.05027,-0.05318 0.100542,-0.0889 0.175419,-0.0889 z m 1.894152,-2.400829 c -0.115094,0.05318 -0.250031,0.141552 -0.3937,0.141552 -0.143404,0 -0.256646,-0.07064 -0.338402,-0.123296 -0.04101,-0.03545 -0.07408,-0.07091 -0.09895,-0.08864 -0.04339,-0.03546 -0.0381,-0.08837 -0.01958,-0.08837 0.02884,0.0042 0.03413,0.03572 0.05265,0.05318 0.0254,0.01746 0.05688,0.05265 0.09551,0.08811 0.07699,0.05292 0.179917,0.123561 0.308505,0.123561 0.128322,0 0.278606,-0.07064 0.369887,-0.123296 0.05159,-0.03572 0.11774,-0.08837 0.17145,-0.123561 0.04127,-0.03625 0.03942,-0.07091 0.07382,-0.07091 0.03413,0.0042 0.009,0.03545 -0.03889,0.08811 -0.04789,0.03572 -0.121973,0.08864 -0.182562,0.123825 v -2.64e-4 z m -0.286279,-0.4191 v -0.0058 c -0.0016,-0.005 0.0034,-0.01111 0.0077,-0.01323 0.01958,-0.01138 0.04762,-0.0071 0.06879,0.0011 0.01667,0 0.04233,0.01773 0.03969,0.03572 -0.0016,0.01296 -0.02249,0.01746 -0.03572,0.01746 -0.01455,0 -0.02434,-0.01138 -0.03731,-0.01799 -0.01376,-0.0048 -0.03863,-0.0021 -0.04313,-0.0172 z m -0.145785,0 c -0.0053,0.01535 -0.0299,0.01296 -0.04392,0.01746 -0.01244,0.0066 -0.02275,0.01799 -0.03678,0.01799 -0.01349,0 -0.03466,-0.005 -0.03625,-0.01799 -0.0024,-0.01746 0.02328,-0.03519 0.03969,-0.03519 0.02143,-0.0082 0.04868,-0.01244 0.06853,-0.0013 0.005,0.0024 0.0095,0.0079 0.0079,0.01323 v 0.0056 h 7.94e-4 z"
       id="path4"
       style="fill:#ffffff;stroke-width:0.264583" />
    <text
       xml:space="preserve"
       style="font-style:normal;font-variant:normal;font-weight:normal;font-stretch:normal;font-size:10.5833px;line-height:1.25;font-family:Iosevka;-inkscape-font-specification:Iosevka;letter-spacing:0px;word-spacing:0px;fill:#000000;fill-opacity:1;stroke:none;stroke-width:0.264583"
       x="213.61301"
       y="417.90695"
       id="text12650"><tspan
         sodipodi:role="line"
         id="tspan12648"
         style="stroke-width:0.264583"
         x="213.61301"
         y="417.90695"> </tspan></text>
    <text
       xml:space="preserve"
       style="font-style:normal;font-variant:normal;font-weight:normal;font-stretch:normal;font-size:10.5833px;line-height:1.25;font-family:Iosevka;-inkscape-font-specification:Iosevka;letter-spacing:0px;word-spacing:0px;fill:#000000;fill-opacity:1;stroke:none;stroke-width:0.264583"
       x="99.899643"
       y="70.990974"
       id="text19668"><tspan
         sodipodi:role="line"
         id="tspan19666"
         style="stroke-width:0.264583"
         x="99.899643"
         y="70.990974" /></text>
    <g
       id="g14"
       transform="matrix(0.26458333,0,0,0.26458333,-7.1665632,-4.4061614)" />
    <g
       id="g16"
       transform="matrix(0.26458333,0,0,0.26458333,-7.1665632,-4.4061614)" />
    <g
       id="g18"
       transform="matrix(0.26458333,0,0,0.26458333,-7.1665632,-4.4061614)" />
    <g
       id="g20"
       transform="matrix(0.26458333,0,0,0.26458333,-7.1665632,-4.4061614)" />
    <g
       id="g22"
       transform="matrix(0.26458333,0,0,0.26458333,-7.1665632,-4.4061614)" />
    <g
       id="g24"
       transform="matrix(0.26458333,0,0,0.26458333,-7.1665632,-4.4061614)" />
    <g
       id="g26"
       transform="matrix(0.26458333,0,0,0.26458333,-7.1665632,-4.4061614)" />
    <g
       id="g28"
       transform="matrix(0.26458333,0,0,0.26458333,-7.1665632,-4.4061614)" />
    <g
       id="g30"
       transform="matrix(0.26458333,0,0,0.26458333,-7.1665632,-4.4061614)" />
    <g
       id="g32"
       transform="matrix(0.26458333,0,0,0.26458333,-7.1665632,-4.4061614)" />
    <g
       id="g34"
       transform="matrix(0.26458333,0,0,0.26458333,-7.1665632,-4.4061614)" />
    <g
       id="g36"
       transform="matrix(0.26458333,0,0,0.26458333,-7.1665632,-4.4061614)" />
    <g
       id="g38"
       transform="matrix(0.26458333,0,0,0.26458333,-7.1665632,-4.4061614)" />
    <g
       id="g40"
       transform="matrix(0.26458333,0,0,0.26458333,-7.1665632,-4.4061614)" />
    <g
       id="g42"
       transform="matrix(0.26458333,0,0,0.26458333,-7.1665632,-4.4061614)" />
    <text
       xml:space="preserve"
       style="font-style:normal;font-variant:normal;font-weight:normal;font-stretch:normal;font-size:10.5833px;line-height:1.25;font-family:Iosevka;-inkscape-font-specification:Iosevka;letter-spacing:0px;word-spacing:0px;fill:#000000;fill-opacity:1;stroke:none;stroke-width:0.264583"
       x="45.853828"
       y="8.6285772"
       id="text7209"><tspan
         sodipodi:role="line"
         id="tspan7207"
         style="stroke-width:0.264583"
         x="45.853828"
         y="8.6285772"> </tspan></text>
  </g>
</svg>
