<?xml version="1.0" encoding="UTF-8" standalone="no"?>
<!-- Created with Inkscape (http://www.inkscape.org/) -->

<svg
   width="167mm"
   height="168mm"
   viewBox="0 0 167 168"
   version="1.1"
   id="svg8"
   inkscape:version="1.1 (1:1.1+202105261517+ce6663b3b7)"
   sodipodi:docname="pacman.svg"
   xmlns:inkscape="http://www.inkscape.org/namespaces/inkscape"
   xmlns:sodipodi="http://sodipodi.sourceforge.net/DTD/sodipodi-0.dtd"
   xmlns="http://www.w3.org/2000/svg"
   xmlns:svg="http://www.w3.org/2000/svg"
   xmlns:rdf="http://www.w3.org/1999/02/22-rdf-syntax-ns#"
   xmlns:cc="http://creativecommons.org/ns#"
   xmlns:dc="http://purl.org/dc/elements/1.1/">
  <defs
     id="defs2" />
  <sodipodi:namedview
     id="base"
     pagecolor="#2d3240"
     bordercolor="#666666"
     borderopacity="1.0"
     inkscape:pageopacity="0"
     inkscape:pageshadow="2"
     inkscape:zoom="0.70138001"
     inkscape:cx="165.38823"
     inkscape:cy="471.21388"
     inkscape:document-units="mm"
     inkscape:current-layer="layer1"
     showgrid="false"
     inkscape:window-width="1920"
     inkscape:window-height="1080"
     inkscape:window-x="0"
     inkscape:window-y="0"
     inkscape:window-maximized="0"
     inkscape:pagecheckerboard="1"
     height="296mm" />
  <metadata
     id="metadata5">
    <rdf:RDF>
      <cc:Work
         rdf:about="">
        <dc:format>image/svg+xml</dc:format>
        <dc:type
           rdf:resource="http://purl.org/dc/dcmitype/StillImage" />
      </cc:Work>
    </rdf:RDF>
  </metadata>
  <g
     inkscape:label="Layer 1"
     inkscape:groupmode="layer"
     id="layer1">
    <rect
       style="fill:#eed7f4;fill-opacity:1;stroke-width:0.264583"
       id="rect4597"
       width="57.830357"
       height="66.523811"
       x="33.672863"
       y="30.439697" />
    <rect
       style="fill:#eed7f4;fill-opacity:1;stroke-width:0.264583"
       id="rect4601"
       width="17.008928"
       height="20.410715"
       x="133.45859"
       y="45.218571" />
    <rect
       style="fill:#eed7f4;fill-opacity:1;stroke-width:0.264583"
       id="rect4599"
       width="43.621696"
       height="60.044846"
       x="95.660957"
       y="34.068272" />
    <path
       inkscape:connector-curvature="0"
       id="path33"
       d="m 6.3316412,162.01959 c -0.362639,-0.10784 -0.808494,-0.48859 -0.99079,-0.84611 -0.495809,-0.97238 -0.356672,-88.971816 0.141464,-89.470686 0.251827,-0.2522 1.716019,-0.36696 5.4901038,-0.4303 l 5.146689,-0.0864 0.0039,-15.92092 c 0.003,-12.29843 0.07999,-16.071417 0.338307,-16.582375 l 0.334407,-0.661458 5.13983,-0.07205 c 3.70646,-0.05196 5.197377,-0.162634 5.346183,-0.396875 0.113493,-0.178654 0.208177,-2.533435 0.210405,-5.232847 0.0029,-3.459774 0.09774,-5.001707 0.321551,-5.225521 0.224888,-0.224888 1.798756,-0.3175 5.39565,-0.3175 4.386535,0 5.100024,-0.057 5.23875,-0.418515 0.08833,-0.230182 0.160599,-2.596854 0.160599,-5.259269 0,-3.720755 0.08195,-4.908764 0.35418,-5.134697 0.24366,-0.202221 3.690529,-0.31553 11.046353,-0.363126 l 10.692175,-0.06918 0.132291,-5.159375 c 0.07276,-2.8376566 0.228616,-5.3082026 0.346345,-5.4901046 0.168469,-0.260297 4.929656,-0.329866 22.357282,-0.326677 13.46303,0.0025 22.298824,0.102212 22.540124,0.254459 0.32323,0.203943 0.42142,1.221936 0.52916,5.4860526 l 0.1323,5.235645 10.70544,0.06919 c 6.93765,0.04484 10.80216,0.165641 10.98021,0.343226 0.16175,0.161305 0.32919,2.418437 0.40705,5.487054 l 0.1323,5.213025 5.2042,0.132291 c 2.86233,0.07276 5.3031,0.23118 5.42396,0.352044 0.12086,0.120862 0.27928,2.561643 0.35204,5.423959 l 0.13229,5.204206 5.19769,0.07165 c 4.30479,0.05934 5.256,0.141902 5.53711,0.480618 0.47124,0.56781 0.70673,10.09512 0.26971,10.91171 -0.29989,0.56034 -0.43869,0.57457 -5.60724,0.57457 -3.14728,0 -5.50761,-0.11125 -5.81154,-0.2739 -0.47959,-0.25667 -0.51177,-0.6042 -0.51177,-5.52794 0,-4.54693 -0.0563,-5.275661 -0.41851,-5.414647 -0.23019,-0.08833 -5.0284,-0.160599 -10.66271,-0.160599 -7.61493,0 -10.32568,0.08149 -10.56169,0.3175 -0.22557,0.225565 -0.3175,1.834446 -0.3175,5.556246 0,2.88132 -0.0298,5.26228 -0.0661,5.29103 -0.0364,0.0287 -2.50693,0.11805 -5.4901,0.19844 l -5.42396,0.14616 -0.0682,16.10999 c -0.0488,11.53299 0.0155,16.21079 0.22627,16.46481 0.22401,0.26992 1.53821,0.37197 5.49217,0.42647 l 5.19768,0.0716 0.1323,5.42396 0.13229,5.42396 h 10.84791 10.84792 l 0.0716,-5.35781 c 0.0394,-2.9468 0.0394,-5.3789 0,-5.40466 -0.0394,-0.0258 -2.51241,-0.11507 -5.49559,-0.19844 l -5.42396,-0.15159 v -10.98021 -10.98021 h 11.37709 11.37708 l 0.0717,5.20168 0.0717,5.20168 5.29605,0.09 c 4.35073,0.0739 5.34078,0.16083 5.54668,0.48686 0.15518,0.24573 0.25218,17.33146 0.25469,44.862446 0.003,37.98953 -0.0506,44.54038 -0.37149,44.97917 -0.3495,0.47796 -0.73301,0.51359 -5.52847,0.51359 -6.76979,0 -6.26681,0.44518 -6.26681,-5.54669 0,-3.2221 -0.0959,-4.66503 -0.33073,-4.97439 -0.2817,-0.37117 -1.04529,-0.44731 -5.15059,-0.51359 -4.20738,-0.0679 -4.87982,-0.1378 -5.29167,-0.54976 -0.41039,-0.4105 -0.4832,-1.09075 -0.55937,-5.22553 -0.083,-4.50748 -0.11691,-4.77414 -0.65419,-5.15046 -0.79509,-0.5569 -7.77698,-0.57479 -8.53424,-0.0219 -0.46739,0.34129 -0.52548,0.8161 -0.64589,5.27939 -0.0949,3.51717 -0.22938,5.0014 -0.47558,5.24739 -0.24931,0.2491 -1.66005,0.36587 -5.15319,0.42652 -2.86305,0.0497 -4.94627,0.19669 -5.14681,0.36313 -0.24902,0.20666 -0.33691,1.47138 -0.33691,4.8481 0,4.1039 -0.0514,4.63203 -0.50579,5.19313 l -0.50579,0.62462 H 105.94527 95.182886 l -0.50579,-0.62462 c -0.47834,-0.59072 -0.50579,-1.1751 -0.50579,-10.76677 v -10.14214 l -0.58804,-0.41188 c -0.50482,-0.35359 -1.88851,-0.41188 -9.77713,-0.41188 -6.16444,0 -9.40107,0.0966 -9.83307,0.29341 -0.45069,0.20535 -0.69178,0.58255 -0.80329,1.25677 -0.0876,0.52985 -0.16063,5.21134 -0.16223,10.40332 -0.003,10.56896 0.0818,10.10923 -1.924305,10.4058 -0.616725,0.0912 -5.49276,0.12802 -10.835636,0.0819 -8.902467,-0.0769 -9.75378,-0.12333 -10.186458,-0.55583 -0.410099,-0.40992 -0.483817,-1.08786 -0.561015,-5.15937 -0.05134,-2.70786 -0.204695,-4.82711 -0.363125,-5.01817 -0.199035,-0.24002 -1.480828,-0.3318 -4.673623,-0.33463 -3.009109,-0.003 -4.608407,-0.10942 -5.060834,-0.33782 l -0.661458,-0.33393 -0.132292,-4.97554 c -0.120546,-4.53378 -0.177892,-5.00886 -0.645882,-5.35072 -0.386815,-0.28256 -1.451078,-0.37517 -4.311504,-0.37517 -3.679579,0 -3.818152,0.0202 -4.447347,0.64943 -0.638146,0.63815 -0.649433,0.72694 -0.649433,5.10881 0,3.43056 -0.08652,4.57786 -0.375041,4.97296 -0.343755,0.47075 -0.779683,0.52008 -5.225521,0.59142 -4.13376,0.0663 -4.899348,0.14221 -5.181208,0.51359 -0.233981,0.30829 -0.330729,1.72817 -0.330729,4.8538 0,6.04316 0.392229,5.65171 -5.731107,5.71964 -2.5959638,0.0288 -5.0166388,-0.0359 -5.3792768,-0.14372 z M 72.150376,88.575954 c 0.0551,-4.04127 -0.007,-5.32236 -0.26458,-5.48605 -0.18507,-0.11745 -2.629742,-0.21538 -5.432613,-0.21761 l -5.096132,-0.004 0.06905,-11.04635 0.06905,-11.04636 10.980205,-0.13229 10.98021,-0.13229 v -5.29167 -5.29166 l -5.36795,-0.13229 c -4.38189,-0.10799 -5.41395,-0.2052 -5.61834,-0.52917 -0.13772,-0.21828 -0.25222,-2.67609 -0.25445,-5.4618 -0.004,-4.372031 -0.0613,-5.08689 -0.42257,-5.225519 -0.23018,-0.08833 -5.028397,-0.160599 -10.662704,-0.160599 -7.614927,0 -10.325681,0.08149 -10.561692,0.3175 -0.225566,0.225565 -0.3175,1.834448 -0.3175,5.556248 0,2.88132 -0.02977,5.26228 -0.06615,5.29103 -0.03638,0.0287 -2.506927,0.11805 -5.490104,0.19844 l -5.423958,0.14616 -0.06821,16.10999 c -0.04883,11.53299 0.01545,16.21079 0.226269,16.46481 0.224015,0.26992 1.538208,0.37197 5.492168,0.42647 l 5.197689,0.0716 0.07202,5.13935 c 0.04585,3.27189 0.178694,5.26788 0.365593,5.49307 0.237895,0.28665 2.306666,0.34063 10.908188,0.28462 l 10.614611,-0.0691 z"
       style="fill:#4400aa;stroke-width:0.264583" />
    <path
       inkscape:connector-curvature="0"
       id="path31"
       d="m 6.4148852,162.05903 c -0.661214,-0.12871 -1.416772,-0.91268 -1.011402,-1.04943 0.175361,-0.0592 0.240033,-14.92248 0.19178,-44.07624 -0.04004,-24.192846 -0.0086,-44.252416 0.06981,-44.576836 0.140945,-0.58292 0.205448,-0.59068 5.4967618,-0.66146 l 5.354144,-0.0716 0.132292,-16.53646 0.132291,-16.536456 5.423958,-0.151588 c 2.983177,-0.08337 5.453724,-0.17267 5.490104,-0.198438 0.03638,-0.02577 0.06777,-2.21974 0.06976,-4.875495 0.0021,-2.655755 0.07541,-5.096537 0.163152,-5.423959 0.157962,-0.589436 0.206902,-0.595346 4.957323,-0.598924 2.638783,-0.0021 5.065678,-0.07541 5.3931,-0.163152 0.591304,-0.158462 0.595313,-0.19395 0.595313,-5.269154 0,-4.292329 0.0665,-5.176121 0.415774,-5.525391 0.364228,-0.364228 1.738408,-0.415774 11.084192,-0.415774 9.484126,0 10.686245,-0.04646 10.829017,-0.418515 0.08833,-0.230183 0.160599,-2.658226 0.160599,-5.395651 0,-4.2944216 0.05741,-4.9991646 0.418515,-5.1377346 0.230183,-0.08833 10.089617,-0.160599 21.909857,-0.160599 16.779714,0 21.588724,0.07251 21.935614,0.330729 0.38506,0.286638 0.45353,1.018553 0.51359,5.4901036 l 0.0693,5.159375 10.98021,0.139649 c 6.03911,0.07681 11.00998,0.166105 11.04635,0.198438 0.0364,0.03233 0.068,2.350741 0.0702,5.152017 0.002,2.801276 0.11672,5.271823 0.25443,5.490104 0.20392,0.323234 1.22189,0.421423 5.48605,0.529167 l 5.23567,0.132292 0.0715,5.324065 0.0715,5.324064 0.98681,0.163129 c 0.54275,0.08972 3.02676,0.164436 5.52002,0.166037 4.47631,0.0029 4.53521,0.0104 4.69274,0.598225 0.31355,1.169986 0.18507,9.863886 -0.15073,10.199686 -0.47669,0.47669 -10.35898,0.446 -10.75686,-0.0334 -0.18468,-0.22253 -0.31753,-2.27952 -0.36312,-5.6224 l -0.0719,-5.27148 -10.66124,-0.06916 c -7.04868,-0.04573 -10.83657,0.02466 -11.17865,0.207745 -0.48695,0.260609 -0.5174,0.587738 -0.5174,5.559265 0,2.9053 -0.0298,5.30588 -0.0661,5.33464 -0.0364,0.0288 -2.50693,0.11804 -5.49011,0.19843 l -5.42395,0.14616 -0.0689,16.40417 c -0.0638,15.18692 -0.0355,16.42871 0.3813,16.7349 0.32346,0.23762 1.88848,0.33073 5.55902,0.33073 h 5.1088 v 5.25927 c 0,4.12304 0.0781,5.32407 0.36145,5.55925 0.25948,0.21534 3.41329,0.28046 11.17865,0.23083 l 10.81719,-0.0691 0.0715,-5.4901 c 0.0393,-3.01956 0.0393,-5.50904 0,-5.53219 -0.0393,-0.0232 -2.57183,-0.11244 -5.62777,-0.19843 l -5.55625,-0.15636 v -10.98021 -10.98021 h 11.37709 11.37708 l 0.0715,5.49011 0.0715,5.4901 h 5.16055 5.16056 l 0.26034,0.68476 c 0.16795,0.44174 0.23605,16.26376 0.19189,44.582296 -0.0377,24.14365 0.0249,43.92868 0.13914,43.96674 0.11418,0.038 0.0345,0.30593 -0.17711,0.5953 -0.36116,0.49392 -0.70004,0.52611 -5.53763,0.52611 -4.69596,0 -5.20231,-0.0447 -5.70987,-0.50403 -0.56275,-0.50928 -0.78114,-1.12097 -0.29236,-0.81889 0.17276,0.10678 0.26318,-1.51761 0.26053,-4.68073 -0.003,-3.14643 -0.0917,-4.70562 -0.25413,-4.44868 -0.21837,0.34541 -0.29336,0.3385 -0.59126,-0.0545 -0.29512,-0.3893 -0.99184,-0.46056 -5.16104,-0.52787 -4.21027,-0.068 -4.87954,-0.1376 -5.29167,-0.55042 -0.29149,-0.29198 -0.37068,-0.54477 -0.20722,-0.66146 0.16892,-0.12057 0.21241,-1.9109 0.1203,-4.95137 -0.0794,-2.61937 -0.16866,-4.55955 -0.19844,-4.3115 -0.0459,0.3826 -0.15265,0.3525 -0.70358,-0.19844 -0.62816,-0.62816 -0.77174,-0.64943 -4.38302,-0.64943 -3.71909,0 -4.75713,0.20229 -4.75713,0.92705 0,0.22842 -0.15785,0.31869 -0.39688,0.22696 -0.34328,-0.13173 -0.39687,0.46106 -0.39687,4.38955 0,2.96052 0.0921,4.4849 0.26458,4.37831 0.38544,-0.23821 0.32359,0.21493 -0.11046,0.80933 -0.34345,0.47033 -0.78343,0.52063 -5.22393,0.59716 -3.86619,0.0666 -4.93835,0.16452 -5.29026,0.48299 -0.39619,0.35855 -0.45352,0.35 -0.56021,-0.0836 -0.0654,-0.26564 -0.16512,1.75091 -0.22168,4.48122 -0.086,4.15194 -0.0428,4.94114 0.2638,4.82317 0.2983,-0.11475 0.29355,-0.031 -0.0255,0.44954 -0.21567,0.32481 -0.77504,0.68979 -1.24305,0.81107 -0.46801,0.12127 -5.36375,0.1854 -10.87943,0.1425 -9.214274,-0.0717 -10.066834,-0.11636 -10.500664,-0.55058 -0.29169,-0.29194 -0.37103,-0.54478 -0.20759,-0.66146 0.17278,-0.12333 0.2171,-3.86124 0.12773,-10.7722 -0.0753,-5.82083 -0.16457,-10.3068 -0.19844,-9.96882 l -0.0616,0.61452 -0.69714,-0.54837 c -0.67496,-0.53092 -0.99023,-0.54837 -9.90943,-0.54837 -9.4416,0 -10.55523,0.10907 -10.56414,1.03466 -0.003,0.36791 -0.0357,0.37088 -0.25688,0.0237 -0.1639,-0.25728 -0.2788,3.18607 -0.32668,9.78958 -0.0406,5.60255 0.0242,10.25846 0.14414,10.34645 0.41468,0.30435 -0.62558,0.99981 -1.742507,1.16493 -0.616725,0.0912 -5.49276,0.12803 -10.835636,0.0819 -8.907846,-0.0769 -9.753518,-0.12313 -10.186458,-0.55648 -0.291669,-0.29195 -0.371004,-0.54478 -0.207555,-0.66146 0.168724,-0.12044 0.212206,-1.86641 0.120017,-4.81908 -0.07951,-2.54661 -0.168809,-4.45489 -0.198437,-4.24061 -0.03898,0.28192 -0.167709,0.22708 -0.465749,-0.19843 -0.397452,-0.56744 -0.566597,-0.58818 -4.828646,-0.59194 -4.623037,-0.004 -5.645737,-0.20736 -5.828921,-1.15856 -0.06518,-0.33844 0.0086,-0.42435 0.241057,-0.28068 0.240093,0.14839 0.284771,0.0762 0.157726,-0.25489 -0.09749,-0.25405 -0.189124,-2.44648 -0.203629,-4.87205 -0.01568,-2.62129 -0.1123,-4.14183 -0.23821,-3.74868 -0.199667,0.62346 -0.213352,0.6278 -0.238209,0.0755 -0.04263,-0.94709 -0.830332,-1.13379 -4.783505,-1.13379 -3.578318,0 -3.759745,0.0262 -4.362575,0.62899 -0.449402,0.4494 -0.710366,0.5476 -0.914016,0.34395 -0.203647,-0.20364 -0.285028,1.05653 -0.285028,4.41372 0,3.06512 0.09199,4.64188 0.264584,4.53521 0.385442,-0.23821 0.323588,0.21494 -0.110469,0.80933 -0.3439,0.47093 -0.78337,0.52044 -5.291111,0.59609 -4.74292,0.0796 -4.927156,0.1029 -5.231129,0.66146 l -0.31507,0.57896 -0.182231,-0.66146 c -0.100226,-0.3638 -0.226585,1.57244 -0.280797,4.30275 -0.08241,4.1507 -0.03849,4.9411 0.268068,4.82317 0.295229,-0.11357 0.28908,-0.024 -0.03158,0.45975 -0.219016,0.33043 -0.74119,0.676 -1.160386,0.76792 -0.84529,0.18536 -8.6311588,0.22252 -9.5403548,0.0455 z M 72.342116,93.982274 c 0.0894,-0.14468 0.18998,-2.63522 0.22347,-5.53452 l 0.0609,-5.27147 -0.77009,-0.15402 c -0.42355,-0.0847 -2.959172,-0.15402 -5.634713,-0.15402 h -4.864622 l 0.06905,-11.04635 0.06905,-11.04636 11.112495,-0.13956 c 6.11188,-0.0768 11.14474,-0.16606 11.18413,-0.19844 0.0394,-0.0324 0.0394,-2.46989 0,-5.41668 l -0.0716,-5.35782 -5.36824,-0.0716 c -3.95983,-0.0529 -5.40112,-0.15736 -5.49358,-0.39833 -0.0689,-0.17966 -0.15355,-2.62243 -0.18802,-5.42836 -0.0516,-4.199027 -0.13289,-5.146039 -0.45954,-5.352314 -0.23232,-0.146703 -4.749753,-0.252293 -10.895163,-0.254667 -9.194694,-0.0035 -10.549917,0.04758 -10.914063,0.411724 -0.349284,0.349284 -0.415774,1.233294 -0.415774,5.527947 0,4.41755 -0.05687,5.13399 -0.418515,5.27276 -0.230182,0.0883 -2.658226,0.1606 -5.39565,0.1606 -4.29442,0 -4.999165,0.0574 -5.137735,0.41852 -0.08833,0.23018 -0.160599,7.60355 -0.160599,16.38527 0,14.16245 0.04698,16.01373 0.415774,16.38252 0.349443,0.34945 1.235866,0.41578 5.55625,0.41578 h 5.140475 v 5.04447 c 0,2.97131 0.112565,5.25481 0.273892,5.55625 0.263937,0.49317 0.6673,0.51178 11.096886,0.51178 6.888046,0 10.882102,-0.0956 10.985572,-0.26306 z"
       style="fill:#ada5a5;stroke-width:0.264583" />
    <path
       inkscape:connector-curvature="0"
       id="path29"
       d="m 5.9987962,160.89913 c -0.438068,-0.25515 -0.462803,-2.64664 -0.458969,-44.3758 0.0022,-24.258366 0.09695,-44.252356 0.210484,-44.431076 0.149295,-0.23502 1.667743,-0.34487 5.4860518,-0.39688 l 5.27962,-0.0719 0.132292,-16.53646 0.132291,-16.536456 5.423958,-0.151588 c 2.983177,-0.08337 5.453724,-0.17267 5.490104,-0.198438 0.03638,-0.02577 0.06777,-2.21974 0.06976,-4.875495 0.0021,-2.655755 0.07541,-5.096537 0.163152,-5.423959 0.157962,-0.589436 0.206902,-0.595346 4.957323,-0.598924 2.638783,-0.0021 5.065678,-0.07541 5.3931,-0.163152 0.591304,-0.158462 0.595313,-0.19395 0.595313,-5.269154 0,-4.292329 0.0665,-5.176121 0.415774,-5.525391 0.364228,-0.364228 1.738408,-0.415774 11.084192,-0.415774 9.484126,0 10.686245,-0.04646 10.829017,-0.418515 0.08833,-0.230183 0.160599,-2.658226 0.160599,-5.395651 0,-4.2944216 0.05741,-4.9991646 0.418515,-5.1377346 0.230183,-0.08833 10.089613,-0.160599 21.909843,-0.160599 16.779724,0 21.588734,0.07251 21.935624,0.330729 0.38506,0.286638 0.45353,1.018553 0.51359,5.4901036 l 0.0693,5.159375 10.98021,0.139649 c 6.03911,0.07681 11.00998,0.166105 11.04635,0.198438 0.0364,0.03233 0.068,2.350741 0.0702,5.152017 0.002,2.801276 0.11672,5.271823 0.25443,5.490104 0.20392,0.323234 1.22189,0.421423 5.48605,0.529167 l 5.23567,0.132292 0.0715,5.324065 0.0715,5.324064 0.98681,0.163129 c 0.54275,0.08972 3.02676,0.164436 5.52002,0.166037 4.47631,0.0029 4.53521,0.0104 4.69274,0.598225 0.31355,1.169986 0.18507,9.863886 -0.15073,10.199686 -0.47669,0.47669 -10.35898,0.446 -10.75686,-0.0334 -0.18468,-0.22253 -0.31753,-2.27952 -0.36312,-5.6224 l -0.0719,-5.27148 -10.66124,-0.06916 c -7.04868,-0.04573 -10.83657,0.02466 -11.17865,0.207745 -0.48695,0.260609 -0.5174,0.587738 -0.5174,5.559265 0,2.9053 -0.0298,5.30588 -0.0661,5.33464 -0.0364,0.0288 -2.50693,0.11804 -5.49011,0.19843 l -5.42395,0.14616 -0.0689,16.40417 c -0.0638,15.18692 -0.0355,16.42871 0.3813,16.7349 0.32346,0.23762 1.88848,0.33073 5.55902,0.33073 h 5.1088 v 5.25927 c 0,4.12304 0.0781,5.32407 0.36145,5.55925 0.25948,0.21534 3.41329,0.28046 11.17865,0.23083 l 10.81719,-0.0691 0.1323,-5.62272 0.13229,-5.62273 -5.59409,2.6e-4 c -4.8572,2.7e-4 -5.61524,-0.0548 -5.75469,-0.41818 -0.20876,-0.54402 -0.20298,-20.43075 0.006,-21.21117 l 0.15953,-0.59532 h 11.0766 11.0766 l 0.15835,0.63092 c 0.0871,0.34701 0.11913,2.87708 0.0712,5.6224 l -0.0872,4.99154 5.36039,-0.0766 5.3604,-0.0766 0.262,0.68911 c 0.1691,0.44477 0.262,16.15615 0.262,44.309236 0,39.30189 -0.0412,43.66129 -0.41578,44.03591 -0.34776,0.34776 -1.20984,0.41577 -5.27002,0.41577 -2.66984,0 -5.04259,-0.0723 -5.27277,-0.1606 -0.35827,-0.13748 -0.41893,-0.79451 -0.42143,-4.56406 -0.002,-2.42191 -0.0767,-4.84995 -0.16691,-5.39565 l -0.16399,-0.99219 h -5.10586 c -4.28891,0 -5.17238,-0.0665 -5.52163,-0.41577 -0.34864,-0.34864 -0.41578,-1.223 -0.41578,-5.41465 0,-4.67146 -0.0335,-5.01682 -0.51177,-5.27277 -0.63932,-0.34215 -9.26096,-0.36012 -9.79807,-0.0204 -0.3134,0.19821 -0.40837,1.25264 -0.49413,5.48605 -0.071,3.50327 -0.20549,5.30512 -0.40578,5.43506 -0.16479,0.10692 -2.57769,0.19621 -5.36199,0.19844 -5.02464,0.004 -5.06356,0.008 -5.22191,0.59937 -0.0877,0.32742 -0.16117,2.70448 -0.16315,5.28235 -0.003,4.36113 -0.0392,4.70609 -0.51539,4.96094 -0.79284,0.42432 -20.952994,0.37109 -21.525044,-0.0568 -0.39817,-0.29785 -0.44923,-1.39024 -0.51359,-10.99002 -0.0612,-9.13384 -0.12827,-10.69518 -0.46834,-10.91002 -0.43285,-0.27343 -19.83917,-0.35917 -20.83593,-0.0921 l -0.59532,0.15954 v 10.66587 c 0,9.34346 -0.0515,10.71742 -0.41577,11.08164 -0.36415,0.36414 -1.719367,0.41527 -10.914061,0.41172 -6.138114,-0.002 -10.663118,-0.10804 -10.895163,-0.25443 -0.323234,-0.20392 -0.421423,-1.22189 -0.529167,-5.48605 l -0.132291,-5.23569 -5.235676,-0.13229 c -4.264162,-0.10774 -5.282133,-0.20593 -5.486053,-0.52917 -0.137708,-0.21828 -0.252201,-2.60548 -0.254429,-5.30489 -0.0029,-3.45978 -0.09774,-5.00171 -0.32155,-5.22552 -0.389591,-0.38959 -9.394124,-0.4423 -10.00125,-0.0585 -0.325443,0.20571 -0.41389,1.19312 -0.491413,5.48605 -0.06394,3.54108 -0.192373,5.2981 -0.396875,5.42958 -0.166285,0.10691 -2.581553,0.19621 -5.367258,0.19844 -4.372032,0.003 -5.086892,0.0613 -5.225521,0.42256 -0.08833,0.23019 -0.160599,2.60725 -0.160599,5.28236 0,4.53795 -0.03429,4.8822 -0.511773,5.13774 -0.670902,0.35905 -9.7832968,0.34864 -10.4022888,-0.0119 z M 72.339806,93.986014 c 0.0881,-0.14263 0.19149,-2.70017 0.22964,-5.68343 l 0.0694,-5.42411 -5.571835,-0.0713 -5.571834,-0.0713 v -10.98021 -10.98021 l 11.112499,-0.13229 11.11251,-0.13229 v -5.42396 -5.42396 l -5.36824,-0.0716 c -3.95983,-0.0529 -5.40112,-0.15736 -5.49358,-0.39833 -0.0689,-0.17966 -0.15356,-2.62243 -0.18803,-5.42836 -0.0516,-4.199027 -0.13288,-5.146039 -0.45953,-5.352314 -0.23232,-0.146703 -4.749757,-0.252293 -10.895167,-0.254667 -9.194694,-0.0035 -10.549917,0.04758 -10.914063,0.411724 -0.349284,0.349284 -0.415774,1.233294 -0.415774,5.527947 0,4.41755 -0.05687,5.13399 -0.418515,5.27276 -0.230182,0.0883 -2.658226,0.1606 -5.39565,0.1606 -4.29442,0 -4.999165,0.0574 -5.137735,0.41852 -0.08833,0.23018 -0.160599,7.60355 -0.160599,16.38527 0,14.16245 0.04698,16.01373 0.415774,16.38252 0.349443,0.34945 1.235866,0.41578 5.55625,0.41578 h 5.140475 v 5.04447 c 0,2.97131 0.112565,5.25481 0.273892,5.55625 0.263937,0.49317 0.6673,0.51178 11.096886,0.51178 6.783419,0 10.882806,-0.0968 10.983256,-0.25932 z"
       style="fill:#778ec2;stroke-width:0.264583" />
    <path
       inkscape:connector-curvature="0"
       id="path27"
       d="m 5.9987962,160.89913 c -0.438068,-0.25515 -0.462803,-2.64664 -0.458969,-44.3758 0.0022,-24.258366 0.09695,-44.252356 0.210484,-44.431076 0.149295,-0.23502 1.667743,-0.34487 5.4860518,-0.39688 l 5.27962,-0.0719 0.132292,-16.53646 0.132291,-16.536456 5.423958,-0.151588 c 2.983177,-0.08337 5.453724,-0.17267 5.490104,-0.198438 0.03638,-0.02577 0.06777,-2.21974 0.06976,-4.875495 0.0021,-2.655755 0.07541,-5.096537 0.163152,-5.423959 0.157962,-0.589436 0.206902,-0.595346 4.957323,-0.598924 2.638783,-0.0021 5.065678,-0.07541 5.3931,-0.163152 0.591304,-0.158462 0.595313,-0.19395 0.595313,-5.269154 0,-4.292329 0.0665,-5.176121 0.415774,-5.525391 0.364228,-0.364228 1.738408,-0.415774 11.084192,-0.415774 9.484126,0 10.686245,-0.04646 10.829017,-0.418515 0.08833,-0.230183 0.160599,-2.658226 0.160599,-5.395651 0,-4.2944216 0.05741,-4.9991646 0.418515,-5.1377346 0.230183,-0.08833 10.089613,-0.160599 21.909843,-0.160599 16.779724,0 21.588734,0.07251 21.935624,0.330729 0.38506,0.286638 0.45353,1.018553 0.51359,5.4901036 l 0.0693,5.159375 10.98021,0.139649 c 6.03911,0.07681 11.00998,0.166105 11.04635,0.198438 0.0364,0.03233 0.068,2.350741 0.0702,5.152017 0.002,2.801276 0.11672,5.271823 0.25443,5.490104 0.20392,0.323234 1.22189,0.421423 5.48605,0.529167 l 5.23567,0.132292 0.0715,5.324065 0.0715,5.324064 0.98681,0.163129 c 0.54275,0.08972 3.02676,0.164436 5.52002,0.166037 4.47631,0.0029 4.53521,0.0104 4.69274,0.598225 0.31355,1.169986 0.18507,9.863886 -0.15073,10.199686 -0.47669,0.47669 -10.35898,0.446 -10.75686,-0.0334 -0.18468,-0.22253 -0.31753,-2.27952 -0.36312,-5.6224 l -0.0719,-5.27148 -10.66124,-0.06916 c -7.04868,-0.04573 -10.83657,0.02466 -11.17865,0.207745 -0.48695,0.260609 -0.5174,0.587738 -0.5174,5.559265 0,2.9053 -0.0298,5.30588 -0.0661,5.33464 -0.0364,0.0288 -2.50693,0.11804 -5.49011,0.19843 l -5.42395,0.14616 -0.0689,16.40417 c -0.0638,15.18692 -0.0355,16.42871 0.3813,16.7349 0.32346,0.23762 1.88848,0.33073 5.55902,0.33073 h 5.1088 v 5.23875 c 0,3.7218 0.0919,5.33068 0.3175,5.55625 0.37541,0.3754 21.78395,0.46687 22.01437,0.0941 0.076,-0.12289 0.15188,-2.7125 0.16872,-5.75468 l 0.0306,-5.53125 -5.44774,-0.0715 -5.44774,-0.0715 0.0691,-10.7764 0.0691,-10.77639 h 10.71563 10.71562 l 0.071,5.42396 0.071,5.42395 5.55227,-0.081 5.55227,-0.081 0.26368,0.69354 c 0.17132,0.4506 0.26369,15.97309 0.26369,44.313656 0,39.30189 -0.0412,43.66129 -0.41578,44.03591 -0.34776,0.34776 -1.20984,0.41577 -5.27002,0.41577 -2.66984,0 -5.04259,-0.0723 -5.27277,-0.1606 -0.35827,-0.13748 -0.41893,-0.79451 -0.42143,-4.56406 -0.002,-2.42191 -0.0767,-4.84995 -0.16691,-5.39565 l -0.16399,-0.99219 h -5.10586 c -4.28891,0 -5.17238,-0.0665 -5.52163,-0.41577 -0.34864,-0.34864 -0.41578,-1.223 -0.41578,-5.41465 0,-4.67146 -0.0335,-5.01682 -0.51177,-5.27277 -0.63932,-0.34215 -9.26096,-0.36012 -9.79807,-0.0204 -0.3134,0.19821 -0.40837,1.25264 -0.49413,5.48605 -0.071,3.50327 -0.20549,5.30512 -0.40578,5.43506 -0.16479,0.10692 -2.57769,0.19621 -5.36199,0.19844 -5.02464,0.004 -5.06356,0.008 -5.22191,0.59937 -0.0877,0.32742 -0.16117,2.70448 -0.16315,5.28235 -0.003,4.36113 -0.0392,4.70609 -0.51539,4.96094 -0.79284,0.42432 -20.952994,0.37109 -21.525044,-0.0568 -0.39817,-0.29785 -0.44923,-1.39024 -0.51359,-10.99002 -0.0612,-9.13384 -0.12827,-10.69518 -0.46834,-10.91002 -0.43285,-0.27343 -19.83917,-0.35917 -20.83593,-0.0921 l -0.59532,0.15954 v 10.66587 c 0,9.34346 -0.0516,10.71742 -0.41577,11.08164 -0.36415,0.36414 -1.719367,0.41527 -10.914061,0.41172 -6.138114,-0.002 -10.663118,-0.10804 -10.895163,-0.25443 -0.323234,-0.20392 -0.421423,-1.22189 -0.529167,-5.48605 l -0.132291,-5.23569 -5.235676,-0.13229 c -4.264162,-0.10774 -5.282133,-0.20593 -5.486053,-0.52917 -0.137708,-0.21828 -0.252201,-2.60548 -0.254429,-5.30489 -0.0029,-3.45978 -0.09774,-5.00171 -0.32155,-5.22552 -0.389591,-0.38959 -9.394124,-0.4423 -10.00125,-0.0585 -0.325443,0.20571 -0.41389,1.19312 -0.491413,5.48605 -0.06394,3.54108 -0.192373,5.2981 -0.396875,5.42958 -0.166285,0.10691 -2.581553,0.19621 -5.367258,0.19844 -4.372032,0.003 -5.086892,0.0613 -5.225521,0.42256 -0.08833,0.23019 -0.160599,2.60725 -0.160599,5.28236 0,4.53795 -0.03429,4.8822 -0.511773,5.13774 -0.670902,0.35905 -9.7832968,0.34864 -10.4022888,-0.0119 z M 72.342986,93.980874 c 0.0899,-0.14545 0.18622,-2.73506 0.21405,-5.75469 l 0.0506,-5.49023 -5.423956,-0.13229 -5.423958,-0.13229 -0.06925,-10.4202 c -0.04966,-7.4718 0.01566,-10.5225 0.230835,-10.78177 0.24465,-0.29478 2.272612,-0.36157 10.978269,-0.36157 h 10.67819 l 0.14633,-0.59532 c 0.0805,-0.32742 0.1125,-2.8575 0.0712,-5.62239 l -0.0751,-5.02709 -5.36824,-0.0716 c -3.95983,-0.0529 -5.40112,-0.15736 -5.49358,-0.39833 -0.0689,-0.17966 -0.15356,-2.62243 -0.18802,-5.42836 -0.0516,-4.199027 -0.13289,-5.146039 -0.45954,-5.352314 -0.23232,-0.146703 -4.749756,-0.252293 -10.895166,-0.254667 -9.194694,-0.0035 -10.549917,0.04758 -10.914063,0.411724 -0.349284,0.349284 -0.415774,1.233294 -0.415774,5.527947 0,4.41755 -0.05687,5.13399 -0.418515,5.27276 -0.230182,0.0883 -2.658226,0.1606 -5.39565,0.1606 -4.29442,0 -4.999165,0.0574 -5.137735,0.41852 -0.08833,0.23018 -0.160599,7.60355 -0.160599,16.38527 0,14.16245 0.04698,16.01373 0.415774,16.38252 0.349443,0.34945 1.235866,0.41578 5.55625,0.41578 h 5.140475 v 5.04447 c 0,2.97131 0.112565,5.25481 0.273892,5.55625 0.263937,0.49317 0.6673,0.51178 11.096886,0.51178 6.926487,0 10.881835,-0.0952 10.986435,-0.26446 z"
       style="fill:#6600ff;stroke-width:0.264583" />
    <path
       inkscape:connector-curvature="0"
       id="path25"
       d="M 6.2469862,160.48501 C 6.1468612,160.38488 6.0649422,140.50784 6.0649422,116.3138 V 72.324634 l 5.2701618,-0.086 c 2.898589,-0.0473 5.369136,-0.18517 5.490104,-0.30637 0.120968,-0.1212 0.279473,-7.62213 0.352233,-16.66875 l 0.132292,-16.448383 5.139343,-0.07202 c 3.19374,-0.04476 5.270047,-0.180496 5.484603,-0.35856 0.257768,-0.213932 0.363416,-1.60368 0.416907,-5.484231 l 0.07165,-5.197689 5.139344,-0.07202 c 3.24491,-0.04547 5.268637,-0.179326 5.490104,-0.363127 0.269763,-0.223885 0.35076,-1.505551 0.35076,-5.550375 v -5.25927 h 10.815517 c 8.659058,0 10.87356,-0.06994 11.106623,-0.35076 0.183801,-0.221466 0.317654,-2.245194 0.363128,-5.490105 l 0.07202,-5.1393426 21.878824,-0.06767 21.878844,-0.06767 0.0816,5.2717516 c 0.0449,2.899464 0.18069,5.370697 0.30182,5.49163 0.12113,0.120933 5.12176,0.279409 11.1125,0.352169 l 10.89226,0.132292 0.13229,5.423958 0.13229,5.423959 5.35415,0.07161 c 5.29042,0.07076 5.35588,0.07863 5.49942,0.661458 0.0799,0.324416 0.11131,2.613909 0.0698,5.087763 l -0.0754,4.497917 -10.82443,0.06915 c -7.45366,0.04762 -10.93472,0.160694 -11.17864,0.363127 -0.27417,0.227536 -0.35422,1.482593 -0.35422,5.553248 v 5.25927 h -5.04448 c -2.9713,0 -5.2548,0.11256 -5.55625,0.27389 -0.49763,0.26632 -0.51177,0.73282 -0.51177,16.88041 0,12.56341 0.0773,16.68383 0.3175,16.92403 0.22557,0.22556 1.83444,0.3175 5.55625,0.3175 h 5.23875 v 5.23875 c 0,3.72181 0.0919,5.33068 0.3175,5.55625 0.46868,0.46868 22.31586,0.4559 22.61949,-0.0132 0.11773,-0.1819 0.27358,-2.71198 0.34634,-5.6224 l 0.13229,-5.29166 5.13935,-0.072 c 3.24491,-0.0455 5.26863,-0.17933 5.4901,-0.36313 0.26921,-0.22342 0.35077,-1.48312 0.35077,-5.41808 v -5.12698 h 5.16014 5.16015 l -0.0669,44.119266 -0.0669,44.11927 h -5.15938 -5.15937 l -0.13229,-5.42396 -0.13229,-5.42396 -5.42396,-0.13229 -5.42396,-0.13229 -0.14616,-5.42396 c -0.0804,-2.98317 -0.16969,-5.45609 -0.19844,-5.49536 -0.0288,-0.0393 -2.58235,-0.0393 -5.67467,0 l -5.6224,0.0714 -0.13229,5.42396 -0.13229,5.42396 -5.42396,0.13229 -5.42396,0.13229 -0.14616,5.42396 c -0.0804,2.98318 -0.16968,5.45373 -0.19843,5.49011 -0.0288,0.0364 -4.8002,0.0661 -10.60322,0.0661 -8.490524,0 -10.608334,-0.0692 -10.844874,-0.35418 -0.20222,-0.24366 -0.31554,-3.69053 -0.36313,-11.04635 l -0.0692,-10.69218 -11.17865,-0.069 c -6.14825,-0.038 -11.2051,-0.038 -11.23743,0 -0.0323,0.038 -0.12163,5.01011 -0.19844,11.04922 l -0.13973,10.98018 H 61.362856 50.647232 l -0.07165,-5.19769 c -0.05349,-3.88055 -0.159139,-5.2703 -0.416907,-5.48423 -0.214555,-0.17806 -2.290862,-0.3138 -5.484603,-0.35856 l -5.139343,-0.072 -0.146161,-5.42396 c -0.08039,-2.98317 -0.169688,-5.45609 -0.198438,-5.49536 -0.02875,-0.0393 -2.582354,-0.0393 -5.674672,0 l -5.622395,0.0714 -0.07202,5.13935 c -0.04547,3.24491 -0.179326,5.26864 -0.363127,5.4901 -0.223367,0.26914 -1.480473,0.35076 -5.402468,0.35076 -3.79854,0 -5.166341,0.0849 -5.325416,0.33073 -0.117728,0.1819 -0.273583,2.65245 -0.346344,5.49011 l -0.132291,5.15937 -4.911185,0.0718 c -2.7011518,0.0395 -4.9931048,-0.0101 -5.0932288,-0.11024 z M 72.701796,94.159004 c 0.18468,-0.22254 0.31754,-2.27953 0.36313,-5.6224 l 0.0719,-5.27148 5.29166,-0.13229 5.29168,-0.1323 0.20138,-16.66875 c 0.18762,-15.52935 0.1706,-16.69135 -0.249,-16.99947 -0.32359,-0.23762 -1.88876,-0.33073 -5.55921,-0.33073 h -5.10881 v -5.23875 c 0,-3.72181 -0.0919,-5.330689 -0.3175,-5.556255 -0.45641,-0.456409 -22.19192,-0.456409 -22.648329,0 -0.225565,0.225566 -0.3175,1.834445 -0.3175,5.556255 v 5.23875 H 44.67672 c -2.97131,0 -5.254805,0.11256 -5.55625,0.27389 -0.497631,0.26632 -0.511773,0.73282 -0.511773,16.88041 0,12.56341 0.0773,16.68383 0.3175,16.92403 0.225566,0.22556 1.834444,0.3175 5.55625,0.3175 h 5.23875 v 5.23875 c 0,3.72181 0.09194,5.33068 0.3175,5.55625 0.485735,0.48573 22.258889,0.45363 22.663109,-0.0334 z m -5.518107,-11.54446 -5.423958,-0.14317 -0.06925,-10.4202 c -0.04966,-7.4718 0.01566,-10.5225 0.230835,-10.78177 0.244655,-0.29479 2.273845,-0.36157 10.98625,-0.36157 h 10.68617 l -0.0691,10.91406 -0.0691,10.91406 -5.42396,0.0109 c -2.98318,0.006 -7.864741,-0.0536 -10.847918,-0.1323 z m 66.870481,0.0556 -5.49307,-0.0772 0.0691,-10.7764 0.0691,-10.77639 h 10.71563 10.71562 l 0.22976,10.50932 c 0.12637,5.78013 0.15987,10.69146 0.0745,10.91407 -0.16427,0.42805 -0.40524,0.43109 -16.38061,0.20659 z m 5.88994,-38.83361 v -5.165092 l 5.09323,0.07186 5.09323,0.07186 0.0719,5.093232 0.0719,5.09323 h -5.16509 -5.16509 z"
       style="fill:#3e5da9;stroke-width:0.264583" />
    <path
       inkscape:connector-curvature="0"
       id="path23"
       d="M 6.2469862,160.48501 C 6.1468612,160.38488 6.0649422,140.50784 6.0649422,116.3138 V 72.324634 l 5.2701618,-0.086 c 2.898589,-0.0473 5.369136,-0.18517 5.490104,-0.30637 0.120968,-0.1212 0.279473,-7.62213 0.352233,-16.66875 l 0.132292,-16.448383 5.139343,-0.07202 c 3.19374,-0.04476 5.270047,-0.180496 5.484603,-0.35856 0.257768,-0.213932 0.363416,-1.60368 0.416907,-5.484231 l 0.07165,-5.197689 5.139344,-0.07202 c 3.24491,-0.04547 5.268637,-0.179326 5.490104,-0.363127 0.269763,-0.223885 0.35076,-1.505551 0.35076,-5.550375 v -5.25927 h 10.815517 c 8.659058,0 10.87356,-0.06994 11.106623,-0.35076 0.183801,-0.221466 0.317654,-2.245194 0.363128,-5.490105 l 0.07202,-5.1393426 21.878824,-0.06767 21.878844,-0.06767 0.0816,5.2717516 c 0.0449,2.899464 0.18069,5.370697 0.30182,5.49163 0.12113,0.120933 5.12176,0.279409 11.1125,0.352169 l 10.89226,0.132292 0.13229,5.423958 0.13229,5.423959 5.35415,0.07161 c 5.29042,0.07076 5.35588,0.07863 5.49942,0.661458 0.0799,0.324416 0.11131,2.613909 0.0698,5.087763 l -0.0754,4.497917 -10.82443,0.06915 c -7.45366,0.04762 -10.93472,0.160694 -11.17864,0.363127 -0.27417,0.227536 -0.35422,1.482593 -0.35422,5.553248 v 5.25927 h -5.04448 c -2.9713,0 -5.2548,0.11256 -5.55625,0.27389 -0.49763,0.26632 -0.51177,0.73282 -0.51177,16.88041 0,12.56341 0.0773,16.68383 0.3175,16.92403 0.22557,0.22556 1.83444,0.3175 5.55625,0.3175 h 5.23875 v 5.23875 c 0,3.72181 0.0919,5.33068 0.3175,5.55625 0.46868,0.46868 22.31586,0.4559 22.61949,-0.0132 0.11773,-0.1819 0.27358,-2.71198 0.34634,-5.6224 l 0.13229,-5.29166 5.13935,-0.072 c 3.24491,-0.0455 5.26863,-0.17933 5.4901,-0.36313 0.26921,-0.22342 0.35077,-1.48312 0.35077,-5.41808 v -5.12698 h 5.16014 5.16015 l -0.0669,44.119266 -0.0669,44.11927 h -5.15938 -5.15937 l -0.13229,-5.42396 -0.13229,-5.42396 -5.42396,-0.13229 -5.42396,-0.13229 -0.14616,-5.42396 c -0.0804,-2.98317 -0.16969,-5.45609 -0.19844,-5.49536 -0.0288,-0.0393 -2.58235,-0.0393 -5.67467,0 l -5.6224,0.0714 -0.13229,5.42396 -0.13229,5.42396 -5.42396,0.13229 -5.42396,0.13229 -0.14616,5.42396 c -0.0804,2.98318 -0.16968,5.45373 -0.19843,5.49011 -0.0288,0.0364 -4.8002,0.0661 -10.60322,0.0661 -8.490524,0 -10.608334,-0.0692 -10.844874,-0.35418 -0.20222,-0.24366 -0.31554,-3.69053 -0.36313,-11.04635 l -0.0692,-10.69218 -11.17865,-0.069 c -6.14825,-0.038 -11.2051,-0.038 -11.23743,0 -0.0323,0.038 -0.12163,5.01011 -0.19844,11.04922 l -0.13973,10.98018 H 61.362856 50.647232 l -0.07165,-5.19769 c -0.05349,-3.88055 -0.159139,-5.2703 -0.416907,-5.48423 -0.214555,-0.17806 -2.290862,-0.3138 -5.484603,-0.35856 l -5.139343,-0.072 -0.146161,-5.42396 c -0.08039,-2.98317 -0.169688,-5.45609 -0.198438,-5.49536 -0.02875,-0.0393 -2.582354,-0.0393 -5.674672,0 l -5.622395,0.0714 -0.07202,5.13935 c -0.04547,3.24491 -0.179326,5.26864 -0.363127,5.4901 -0.223367,0.26914 -1.480473,0.35076 -5.402468,0.35076 -3.79854,0 -5.166341,0.0849 -5.325416,0.33073 -0.117728,0.1819 -0.273583,2.65245 -0.346344,5.49011 l -0.132291,5.15937 -4.911185,0.0718 c -2.7011518,0.0395 -4.9931048,-0.0101 -5.0932288,-0.11024 z M 72.701796,94.159004 c 0.18468,-0.22254 0.31754,-2.27953 0.36313,-5.6224 l 0.0719,-5.27148 5.29166,-0.13229 5.29168,-0.1323 0.20138,-16.66875 c 0.18762,-15.52935 0.1706,-16.69135 -0.249,-16.99947 -0.32359,-0.23762 -1.88876,-0.33073 -5.55921,-0.33073 h -5.10881 v -5.23875 c 0,-3.72181 -0.0919,-5.330689 -0.3175,-5.556255 -0.45641,-0.456409 -22.19192,-0.456409 -22.648329,0 -0.225565,0.225566 -0.3175,1.834445 -0.3175,5.556255 v 5.23875 H 44.67672 c -2.97131,0 -5.254805,0.11256 -5.55625,0.27389 -0.497631,0.26632 -0.511773,0.73282 -0.511773,16.88041 0,12.56341 0.0773,16.68383 0.3175,16.92403 0.225566,0.22556 1.834444,0.3175 5.55625,0.3175 h 5.23875 v 5.23875 c 0,3.72181 0.09194,5.33068 0.3175,5.55625 0.485735,0.48573 22.258889,0.45363 22.663109,-0.0334 z m 67.242314,-50.32251 v -5.165092 l 5.09323,0.07186 5.09323,0.07186 0.0719,5.093232 0.0719,5.09323 h -5.16509 -5.16509 z"
       style="fill:#7f2aff;stroke-width:0.264583" />
    <path
       style="fill:#9955ff;fill-opacity:1;stroke-width:0.377976"
       d="M 6.6359805,160.15372 C 6.4544313,159.87224 6.251435,140.06615 6.1848738,116.14018 L 6.0638534,72.63843 11.440642,72.393841 c 2.957232,-0.134525 5.431681,-0.299484 5.498777,-0.36658 0.06709,-0.0671 0.238355,-7.553005 0.380582,-16.635351 l 0.258596,-16.513366 h 4.688347 c 2.578592,0 5.017344,-0.176072 5.419453,-0.391273 0.666602,-0.356754 0.731102,-0.835113 0.731102,-5.422056 v -5.030783 l 5.136782,-0.246356 c 2.825229,-0.135495 5.291524,-0.341992 5.480653,-0.45888 0.189132,-0.11689 0.343874,-2.583738 0.343874,-5.481886 v -5.26936 h 10.552419 c 5.803831,0 10.821466,-0.103243 11.150298,-0.229428 0.473985,-0.181885 0.597879,-0.836146 0.597879,-3.157352 0,-1.610357 0.109276,-3.9734088 0.242835,-5.2512247 l 0.242829,-2.3233036 h 21.669123 21.669119 l 0.10516,5.1939373 0.10516,5.19394 1.13393,0.241996 c 0.62366,0.133096 5.5941,0.26212 11.04543,0.286716 l 9.9115,0.04472 0.10486,5.38616 0.10488,5.386163 5.10268,0.238829 c 2.80647,0.131357 5.23024,0.258924 5.38616,0.283482 0.15591,0.02455 0.28348,2.255814 0.28348,4.958342 v 4.913691 h -10.41919 c -6.4594,0 -10.69706,0.148704 -11.1503,0.391274 -0.66661,0.356759 -0.73111,0.835117 -0.73111,5.422362 v 5.03109 l -5.16443,0.233439 c -2.84044,0.128391 -5.30852,0.377528 -5.48464,0.553643 -0.17611,0.176112 -0.27589,7.878881 -0.22173,17.117264 l 0.0985,16.797059 5.38616,0.104873 5.38616,0.10487 0.006,4.997807 c 0.003,2.748796 0.13186,5.195957 0.28594,5.43814 0.37438,0.588473 12.84682,0.996331 18.60287,0.608336 3.42164,-0.230646 4.35894,-0.412949 4.42002,-0.859682 0.0426,-0.31183 0.18778,-2.710513 0.32254,-5.33041 l 0.24503,-4.763444 5.14426,-0.25817 c 2.82934,-0.141989 5.23744,-0.350848 5.35132,-0.464127 0.11388,-0.113278 0.26276,-2.488491 0.33084,-5.278241 l 0.12378,-5.072274 h 4.88441 4.8844 v 43.845233 43.84524 h -5.10268 -5.10268 v -5.2362 -5.23621 l -2.89185,-0.24445 c -1.59051,-0.13445 -4.05681,-0.24445 -5.48065,-0.24445 h -2.5888 l -0.003,-2.92932 c -0.002,-1.61112 -0.11152,-4.08171 -0.24454,-5.49019 l -0.24185,-2.56089 -5.70859,0.10404 -5.70862,0.10404 -0.10488,5.38616 -0.10487,5.38616 h -2.57843 c -1.41813,0 -3.87976,0.11 -5.47027,0.24445 l -2.89185,0.24445 -0.003,2.87385 c -0.002,1.58062 -0.11223,4.03391 -0.24613,5.45177 l -0.24343,2.57791 -10.3063,-0.12107 c -5.66847,-0.0666 -10.418298,-0.23332 -10.555169,-0.37052 -0.136875,-0.13719 -0.347232,-5.11231 -0.467464,-11.0558 L 94.824134,138.28628 H 83.584914 72.345692 l -0.278416,10.96131 -0.278418,10.96131 H 61.282757 50.776653 l -0.12378,-5.07228 c -0.06808,-2.78975 -0.244274,-5.19227 -0.391547,-5.33894 -0.147269,-0.14667 -2.547223,-0.35366 -5.333224,-0.45997 l -5.065453,-0.19329 -0.241927,-3.40827 c -0.133059,-1.87454 -0.241927,-4.31763 -0.241927,-5.42907 v -2.0208 h -5.858629 -5.858632 l -0.0052,4.63021 c -0.0075,6.77041 0.490802,6.19094 -5.521579,6.42036 -2.798414,0.10679 -5.208519,0.31398 -5.355791,0.46043 -0.147273,0.14645 -0.352814,2.45004 -0.456756,5.11909 -0.103944,2.66905 -0.329941,4.99349 -0.502216,5.16542 -0.172276,0.17193 -2.234898,0.37359 -4.583605,0.44815 -3.2926545,0.10453 -4.3459501,0.0184 -4.6004608,-0.37622 z M 72.663311,94.23809 c 0.148479,-0.09177 0.392576,-2.535037 0.542444,-5.429499 l 0.272481,-5.262652 5.250881,-0.270542 5.250881,-0.270539 0.0945,-12.897231 c 0.108984,-14.874928 0.05311,-20.624136 -0.202925,-20.880173 -0.0997,-0.0997 -2.582391,-0.283969 -5.517081,-0.40948 l -5.335799,-0.228203 v -5.189503 c 0,-5.062199 -0.02088,-5.195099 -0.850445,-5.417418 -1.506564,-0.403743 -21.068593,-0.266747 -21.852974,0.153041 -0.666607,0.356759 -0.731105,0.835117 -0.731105,5.422362 v 5.03109 l -5.164431,0.233439 c -2.840437,0.128391 -5.308523,0.377528 -5.484638,0.553643 -0.176112,0.176112 -0.275891,7.878881 -0.221729,17.117264 l 0.09848,16.797059 5.38616,0.104873 5.38616,0.10487 0.0058,4.997807 c 0.003,2.748796 0.135715,5.202209 0.294515,5.452031 0.165703,0.260691 1.491888,0.522303 3.112516,0.614005 3.281228,0.185653 19.267143,-0.07953 19.666328,-0.326244 z"
       id="path4575"
       inkscape:connector-curvature="0" />
    <path
       style="fill:#00002b;fill-opacity:1;stroke-width:0.377976"
       d="M 66.72191,82.441711 62.126026,82.32309 61.967678,80.161084 C 61.6854,76.307013 61.642005,65.044555 61.901884,63.085482 l 0.252886,-1.906341 h 10.781377 10.781376 l -0.24502,4.252232 c -0.13476,2.338726 -0.245792,7.186271 -0.246737,10.77232 l -0.0016,6.52009 -5.953125,-0.08173 c -3.274219,-0.04495 -8.021272,-0.135104 -10.549012,-0.200345 z"
       id="path4577"
       inkscape:connector-curvature="0" />
    <path
       style="fill:#00002b;fill-opacity:1;stroke-width:0.377976"
       d="M 71.506786,82.355957 62.246369,82.156818 V 71.762474 61.368127 l 10.731183,-0.10047 10.731185,-0.10047 -0.239059,1.990352 c -0.131485,1.094692 -0.240538,5.944928 -0.242345,10.778297 l -0.0033,8.787947 -1.228424,-0.08434 c -0.675632,-0.04639 -5.395608,-0.173958 -10.488837,-0.283482 z"
       id="path4579"
       inkscape:connector-curvature="0" />
    <path
       style="fill:#442178;fill-opacity:1;stroke-width:0.377976"
       d="M 69.805891,82.357915 62.246369,82.156818 V 71.762474 61.368127 l 10.732297,-0.100473 10.732296,-0.100472 -0.243457,2.329283 c -0.133903,1.281104 -0.243459,6.13134 -0.243459,10.778299 v 8.449019 l -2.929315,-0.08239 c -1.611122,-0.04532 -6.331101,-0.172881 -10.48884,-0.283482 z"
       id="path4581"
       inkscape:connector-curvature="0" />
    <path
       style="fill:#442178;fill-opacity:1;stroke-width:0.377976"
       d="m 131.07349,82.421684 -2.61038,-0.113109 0.24638,-8.202366 c 0.13551,-4.511302 0.24712,-9.265425 0.24803,-10.564717 l 0.002,-2.362351 h 10.53335 10.53336 l 0.18177,10.29985 c 0.1,5.664917 0.10043,10.522456 0.001,10.794527 -0.14315,0.391752 -1.88104,0.470397 -8.35278,0.377976 -4.49461,-0.06418 -9.34669,-0.167598 -10.7824,-0.22981 z"
       id="path4583"
       inkscape:connector-curvature="0" />
    <path
       style="fill:#7f2aff;fill-opacity:1;stroke-width:0.377976"
       d="m 139.92048,43.792235 v -4.913691 h 5.10268 5.10267 v 4.913691 4.913691 h -5.10267 -5.10268 z"
       id="path4585"
       inkscape:connector-curvature="0" />
  </g>
</svg>
